<svg width="80" height="80" viewBox="0 0 80 80" fill="none" xmlns="http://www.w3.org/2000/svg">
<circle cx="40" cy="40" r="40" fill="url(#paint0_linear_5_54)"/>
<g clip-path="url(#clip0_5_54)">
<path fill-rule="evenodd" clip-rule="evenodd" d="M21.3509 12C22.3182 12 23.2638 12.2701 24.0681 12.776C24.8723 13.282 25.499 14.0012 25.869 14.8425C26.2389 15.6838 26.3355 16.6095 26.1464 17.5025C25.9574 18.3955 25.4912 19.2157 24.8068 19.8592C24.1225 20.5027 23.2508 20.9408 22.3019 21.1178C21.3531 21.2949 20.3697 21.2031 19.4763 20.854C18.5829 20.505 17.8196 19.9143 17.2828 19.1568C16.7461 18.3992 16.4601 17.5089 16.4611 16.5983C16.4611 15.9941 16.5876 15.3957 16.8334 14.8376C17.0792 14.2794 17.4395 13.7723 17.8936 13.3452C18.3477 12.9182 18.8868 12.5795 19.48 12.3487C20.0733 12.1179 20.709 11.9994 21.3509 12ZM58.286 51.2702C59.1259 51.2693 59.9473 51.5029 60.6462 51.9415C61.3451 52.3802 61.89 53.0041 62.2121 53.7343C62.5342 54.4645 62.619 55.2683 62.4557 56.0439C62.2925 56.8195 61.8885 57.532 61.2948 58.0914C60.7012 58.6508 59.9447 59.032 59.1209 59.1865C58.2972 59.3411 57.4432 59.2622 56.6671 58.9599C55.891 58.6575 55.2276 58.1452 54.7608 57.4879C54.2941 56.8305 54.0449 56.0576 54.0449 55.2669C54.0449 54.2077 54.4916 53.1918 55.2868 52.4424C56.082 51.693 57.1607 51.2714 58.286 51.2702ZM24.5269 51.2702C25.3668 51.2693 26.1882 51.5029 26.8871 51.9415C27.586 52.3802 28.1309 53.0041 28.453 53.7343C28.7751 54.4645 28.8599 55.2683 28.6966 56.0439C28.5334 56.8195 28.1294 57.532 27.5357 58.0914C26.9421 58.6508 26.1856 59.032 25.3618 59.1865C24.5381 59.3411 23.6841 59.2622 22.908 58.9599C22.1319 58.6575 21.4685 58.1452 21.0017 57.4879C20.535 56.8305 20.2858 56.0576 20.2858 55.2669C20.2858 54.2077 20.7325 53.1918 21.5277 52.4424C22.3229 51.693 23.4016 51.2714 24.5269 51.2702ZM21.8593 59.8516C20.8768 59.9505 19.9421 60.3021 19.1578 60.8678C18.157 61.644 17.3545 62.6222 16.8097 63.7298C16.212 64.922 15.8823 66.2175 15.8414 67.5352L15.7688 67.9909H19.4095L19.4676 67.3848C19.4801 66.7775 19.6131 66.1778 19.8598 65.6165C19.9776 65.3377 20.141 65.0778 20.3439 64.8464L20.4117 67.9909H28.6033L28.6421 65.8991V66.0358L28.6663 64.8464C28.8692 65.0778 29.0326 65.3377 29.1504 65.6165C29.3971 66.1778 29.5301 66.7775 29.5426 67.3848L29.6007 67.9909H29.8815C29.8742 67.8953 29.8742 67.7994 29.8815 67.7038L29.9493 67.2481C30.0032 66.4818 30.1164 65.7202 30.2881 64.9694C30.5018 64.1446 30.8137 63.345 31.2177 62.5859L31.3533 62.3262C30.9003 61.6398 30.2866 61.06 29.5591 60.6311C28.8316 60.2022 28.0095 59.9356 27.1558 59.8516C25.7033 59.7422 23.2826 59.8516 21.8593 59.8516ZM41.4089 50.0443C42.3101 50.0443 43.1911 50.2959 43.9404 50.7673C44.6897 51.2387 45.2736 51.9088 45.6183 52.6926C45.963 53.4765 46.0529 54.339 45.8767 55.171C45.7005 56.003 45.2662 56.7671 44.6285 57.3667C43.9909 57.9662 43.1787 58.3743 42.2947 58.5392C41.4106 58.7042 40.4945 58.6186 39.6621 58.2934C38.8297 57.9681 38.1185 57.4177 37.6185 56.7119C37.1185 56.0061 36.8521 55.1765 36.8531 54.3281C36.8531 53.7652 36.971 53.2078 37.2 52.6877C37.429 52.1677 37.7646 51.6952 38.1877 51.2974C38.6108 50.8995 39.1131 50.5841 39.6658 50.3691C40.2185 50.154 40.8108 50.0437 41.4089 50.0443ZM38.5427 59.2363C37.4864 59.344 36.4817 59.7223 35.6379 60.3301C34.566 61.1689 33.7074 62.2232 33.1252 63.4154C32.4817 64.7004 32.1273 66.0968 32.0843 67.5169L32.0068 68.0137H35.9187L35.9816 67.362C35.9968 66.711 36.1396 66.0683 36.4028 65.4661C36.5321 65.1656 36.7101 64.8858 36.9306 64.6367L37.0032 68.0137H45.7806L45.8242 65.7715V65.9173L45.8533 64.6367C46.0703 64.8881 46.2481 65.1674 46.381 65.4661C46.6419 66.0689 46.7846 66.7113 46.8022 67.362L46.8651 68.0137H50.7721L50.6995 67.5033C50.6587 66.0829 50.3042 64.6861 49.6586 63.4017C48.3853 60.8678 46.7538 59.528 44.2314 59.25C42.687 59.1315 40.0968 59.25 38.5476 59.2227L38.5427 59.2363ZM55.6184 59.8516C54.6341 59.9495 53.6976 60.3012 52.912 60.8678C52.3588 61.2956 51.8702 61.7924 51.4596 62.3444L51.5806 62.5814C51.9793 63.3525 52.2815 64.1646 52.4811 65.0013C52.6535 65.7518 52.7652 66.5135 52.8152 67.28L52.8685 67.6081C52.894 67.7373 52.907 67.8685 52.9072 68H53.188L53.2461 67.3939C53.2627 66.7866 53.3972 66.1873 53.6431 65.6257C53.7608 65.3467 53.9241 65.0868 54.1272 64.8555L54.195 68H62.3673L62.406 65.9082V66.0449L62.4351 64.8555C62.6365 65.088 62.7997 65.3476 62.9192 65.6257C63.1659 66.1869 63.2989 66.7866 63.3114 67.3939L63.3694 68H67.015L66.9424 67.5443C66.9042 66.2263 66.5744 64.9302 65.9741 63.7389C64.788 61.3783 63.2533 60.1296 60.9197 59.8698C59.4673 59.7604 57.0466 59.8698 55.628 59.8698L55.6184 59.8516ZM35.8606 28.9258L41.3362 23.5163C41.491 23.3628 41.7041 23.2734 41.9288 23.2679C42.1535 23.2623 42.3714 23.341 42.5345 23.4867C42.6975 23.6323 42.7925 23.833 42.7984 24.0445C42.8043 24.256 42.7207 24.4611 42.5659 24.6146L37.405 29.7096C37.6852 30.0285 37.8629 30.4161 37.9171 30.8267C37.9714 31.2374 37.9001 31.6541 37.7114 32.0279C37.5228 32.4016 37.2247 32.717 36.8523 32.9368C36.4798 33.1567 36.0485 33.2719 35.6089 33.2689V39.6035H62.5416V19.1413H35.6089V28.862L35.8606 28.9076V28.9258ZM47.7511 44.9583V41.2578H30.0606C29.9397 41.2663 29.8183 41.2512 29.7039 41.2134C29.5895 41.1757 29.4846 41.1161 29.3958 41.0385C29.307 40.9609 29.2361 40.8668 29.1877 40.7622C29.1392 40.6576 29.1142 40.5448 29.1142 40.4307C29.1142 40.3166 29.1392 40.2037 29.1877 40.0991C29.2361 39.9945 29.307 39.9005 29.3958 39.8228C29.4846 39.7452 29.5895 39.6857 29.7039 39.6479C29.8183 39.6102 29.9397 39.5951 30.0606 39.6035H33.8514V32.9863L29.4651 32.1934C28.8803 32.0923 28.3597 31.782 28.0127 31.3275L26.1294 28.9076V28.9714L25.9793 37.0378L27.8626 47.1914L28.3467 50.5638C28.3513 50.6169 28.3513 50.6702 28.3467 50.7233C27.639 50.1947 26.8157 49.8201 25.936 49.6263C25.0563 49.4324 24.1419 49.4242 23.2584 49.6022L21.3461 39.2982L19.2304 50.8053C18.7462 53.2936 14.4519 53.3119 14.418 50.2949L16.8097 37.1244L16.616 29.1217L16.5821 27.7546C16.3472 28.03 16.1578 28.3373 16.0205 28.666C15.7388 29.3071 15.5845 29.9914 15.5654 30.6849L15.1491 35.8118V35.8939V35.9303V35.9577V36.0306V36.181V36.222V36.2448V36.2904C14.3357 37.3477 12.3169 37.6576 11.5616 36.2904V36.2493V36.2174V36.1901V36.1582V36.1172V36.0762V36.0443V35.9987V36.1536V36.1035V36.0716V36.0306V35.9941V35.9258V35.862V35.8255C11.5571 34.1629 11.6866 32.5023 11.9489 30.8581C11.7165 26.5833 14.0259 22.2585 18.9641 21.9121C20.4165 21.8119 21.898 21.9486 23.3214 21.9486C24.2792 21.9368 25.2311 22.0913 26.1294 22.4043C26.6643 22.5219 27.1367 22.8162 27.4608 23.2337L31.1887 28.0781L33.8466 28.5612V19.1413H30.0606C29.9397 19.1497 29.8183 19.1346 29.7039 19.0969C29.5895 19.0591 29.4846 18.9996 29.3958 18.922C29.307 18.8443 29.2361 18.7503 29.1877 18.6457C29.1392 18.5411 29.1142 18.4282 29.1142 18.3141C29.1142 18.2 29.1392 18.0872 29.1877 17.9826C29.2361 17.878 29.307 17.7839 29.3958 17.7063C29.4846 17.6287 29.5895 17.5691 29.7039 17.5314C29.8183 17.4936 29.9397 17.4785 30.0606 17.487H47.6107V15.0807C47.6017 14.9669 47.6178 14.8526 47.6579 14.745C47.6979 14.6373 47.7612 14.5386 47.8437 14.4549C47.9262 14.3713 48.0261 14.3046 48.1372 14.259C48.2483 14.2134 48.3682 14.1899 48.4894 14.1899C48.6106 14.1899 48.7305 14.2134 48.8416 14.259C48.9527 14.3046 49.0526 14.3713 49.1351 14.4549C49.2176 14.5386 49.2809 14.6373 49.3209 14.745C49.361 14.8526 49.3771 14.9669 49.3681 15.0807V17.4688H68.0269C68.1478 17.4603 68.2692 17.4754 68.3836 17.5132C68.498 17.5509 68.6029 17.6104 68.6917 17.6881C68.7805 17.7657 68.8514 17.8598 68.8998 17.9643C68.9483 18.0689 68.9733 18.1818 68.9733 18.2959C68.9733 18.41 68.9483 18.5229 68.8998 18.6275C68.8514 18.732 68.7805 18.8261 68.6917 18.9037C68.6029 18.9814 68.498 19.0409 68.3836 19.0786C68.2692 19.1164 68.1478 19.1315 68.0269 19.123H64.2845V39.5853H68.1285C68.2494 39.5768 68.3709 39.592 68.4852 39.6297C68.5996 39.6674 68.7045 39.727 68.7934 39.8046C68.8822 39.8822 68.953 39.9763 69.0015 40.0809C69.0499 40.1855 69.075 40.2983 69.075 40.4124C69.075 40.5265 69.0499 40.6394 69.0015 40.744C68.953 40.8486 68.8822 40.9426 68.7934 41.0203C68.7045 41.0979 68.5996 41.1574 68.4852 41.1952C68.3709 41.2329 68.2494 41.248 68.1285 41.2396H49.4892V45.0267C49.5376 45.054 49.5666 45.0859 49.615 45.1133L55.1003 50.0352C55.1645 50.0901 55.2185 50.1548 55.2601 50.2266C54.8373 50.4619 54.4442 50.7417 54.0885 51.0606L53.9578 51.1699L53.9142 51.2155L49.4892 47.2917V50.8646C49.4727 51.0734 49.3729 51.2685 49.21 51.411C49.047 51.5534 48.8328 51.6326 48.6104 51.6326C48.388 51.6326 48.1739 51.5534 48.0109 51.411C47.8479 51.2685 47.7482 51.0734 47.7317 50.8646V47.1322L45.374 49.265C44.8787 48.9274 44.3361 48.6559 43.7618 48.4583L47.7511 44.9629V44.9583Z" fill="url(#paint1_linear_5_54)"/>
</g>
<defs>
<linearGradient id="paint0_linear_5_54" x1="40" y1="0" x2="40" y2="80" gradientUnits="userSpaceOnUse">
<stop stop-color="#F8EC20"/>
<stop offset="1" stop-color="#A79F1E"/>
</linearGradient>
<linearGradient id="paint1_linear_5_54" x1="-5.42295" y1="44.0782" x2="83.5332" y2="33.6943" gradientUnits="userSpaceOnUse">
<stop stop-color="#232524"/>
<stop offset="0.770833" stop-color="#151B27" stop-opacity="0.84"/>
</linearGradient>
<clipPath id="clip0_5_54">
<rect width="58" height="56" fill="white" transform="translate(11 12)"/>
</clipPath>
</defs>
</svg>
