<svg width="80" height="80" viewBox="0 0 80 80" fill="none" xmlns="http://www.w3.org/2000/svg">
<circle cx="40" cy="40" r="40" fill="url(#paint0_linear_4_41)"/>
<path d="M27.9922 45.1541C27.9922 45.5281 27.6854 45.8273 27.3125 45.8273C26.9349 45.8273 26.6328 45.5234 26.6328 45.1541V28.6657H12.3594V61.895H14.7147C15.0923 61.895 15.3944 62.1989 15.3944 62.5682C15.3944 62.9422 15.0876 63.2414 14.7147 63.2414H11.6797C11.3021 63.2414 11 62.9375 11 62.5682V28.3057C11 28.0345 11.1133 27.7868 11.2926 27.6044C11.472 27.4268 11.7222 27.3146 12.0007 27.3146H26.6328V14.1828C26.6328 13.8602 26.765 13.561 26.9821 13.3506V13.3459C27.1992 13.1309 27.4966 13 27.827 13H52.0645C52.3949 13 52.6922 13.1309 52.9093 13.3459L52.9613 13.402C53.1453 13.6124 53.2633 13.8836 53.2633 14.1828V27.3146H67.9994C68.2731 27.3146 68.5233 27.4268 68.7026 27.6044L68.7074 27.6091C68.8867 27.7868 69 28.0345 69 28.3057V62.5682C69 62.9422 68.6932 63.2414 68.3203 63.2414H64.0062C63.6286 63.2414 63.3265 62.9375 63.3265 62.5682C63.3265 62.1942 63.6333 61.895 64.0062 61.895H67.6406V28.6657H53.2586V44.9578C53.2586 45.3317 52.9518 45.6309 52.5789 45.6309C52.2013 45.6309 51.8993 45.3271 51.8993 44.9578V14.3464H27.9922V45.1541ZM56.8553 45.0419H64.3602C64.4216 45.0419 64.4735 45.0793 64.4735 45.1214V47.3186C64.4735 47.3653 64.4216 47.4027 64.3602 47.4027H56.8553C56.7939 47.4027 56.742 47.3653 56.742 47.3186V45.1214C56.742 45.0793 56.7939 45.0419 56.8553 45.0419ZM15.5832 45.0419H23.0881C23.1494 45.0419 23.2013 45.0793 23.2013 45.1214V47.3186C23.2013 47.3653 23.1494 47.4027 23.0881 47.4027H15.5832C15.5218 47.4027 15.4699 47.3653 15.4699 47.3186V45.1214C15.4699 45.0793 15.5218 45.0419 15.5832 45.0419ZM31.0413 16.9597H48.8548C49.1522 16.9597 49.3976 17.2028 49.3976 17.4973V23.2521C49.3976 23.5466 49.1522 23.7897 48.8548 23.7897H31.0413C30.744 23.7897 30.4985 23.5466 30.4985 23.2521V17.4973C30.4938 17.2028 30.7393 16.9597 31.0413 16.9597ZM56.9733 62.096C56.4777 61.1096 55.8499 60.2728 55.1136 59.4874C56.4919 60.0157 57.9032 60.5393 58.9463 61.1891C60.8438 62.3672 60.9854 63.793 61.1411 65.8406H51.7341C51.7341 65.8266 51.7341 65.8079 51.7341 65.7939L51.5594 64.3306L52.2344 64.9103L55.5384 62.0633L56.9733 62.096ZM23.3099 59.7866L24.5041 63.2647L25.1035 61.1984L24.8109 60.8805C24.6787 60.6889 24.6504 60.5206 24.7212 60.3756C24.8817 60.0624 25.2121 60.1232 25.5189 60.1232C25.8398 60.1232 26.241 60.0624 26.3402 60.4645C26.3732 60.6 26.3307 60.7403 26.2363 60.8852L25.9437 61.2031L26.5431 63.2694L27.624 59.7913C27.7798 59.9315 28.0016 60.0484 28.2565 60.1512C28.1668 60.3382 28.0866 60.5299 28.0158 60.7356C27.8317 61.2639 27.7137 61.8482 27.6618 62.4981H27.6665C27.6665 62.5121 27.6665 62.5308 27.6618 62.5448L27.4022 65.8453H18.7598C18.2406 65.8079 17.9762 65.5414 17.9338 65.0833L18.1131 63.2601C18.165 62.6102 18.3491 62.1007 18.6465 61.708C18.8447 61.4509 19.0902 61.2592 19.3592 61.1096C20.2183 60.6187 22.5311 60.4832 23.3099 59.7866ZM22.7246 54.8546C22.6066 54.8639 22.5216 54.892 22.4556 54.9294C22.4178 54.9527 22.3942 54.9855 22.3753 55.0229C22.3564 55.0649 22.347 55.121 22.347 55.1818C22.3517 55.3735 22.4556 55.6306 22.6585 55.9251L22.6632 55.9298L23.3288 56.9816C23.5931 57.4024 23.8763 57.8278 24.2161 58.141C24.5418 58.4355 24.943 58.6366 25.467 58.6412C26.0381 58.6412 26.4535 58.4355 26.7933 58.1223C27.1473 57.7951 27.4305 57.3369 27.709 56.8835L28.4595 55.6586C28.6105 55.3174 28.6577 55.1117 28.6105 55.0135C28.5822 54.9527 28.4548 54.9387 28.2518 54.9527C28.1196 54.9808 27.9875 54.9574 27.8411 54.8826L28.214 53.77C26.8405 53.7513 25.8965 53.5175 24.7873 52.8116C24.4238 52.5825 24.3105 52.3161 23.9471 52.3395C23.6686 52.3909 23.4373 52.5171 23.2533 52.7134C23.0739 52.9004 22.9417 53.1576 22.8568 53.4895L23.0786 54.8265C22.9606 54.8966 22.8426 54.9013 22.7246 54.8546ZM28.6766 54.5226C28.8371 54.5694 28.9551 54.6629 29.0306 54.8031C29.1439 55.0322 29.1014 55.3688 28.889 55.8456C28.8843 55.855 28.8796 55.8643 28.8748 55.8737L28.1149 57.1125C27.8223 57.5941 27.5202 58.0756 27.119 58.4496C26.6989 58.8376 26.1844 59.0947 25.4764 59.0947C24.8156 59.0947 24.32 58.8423 23.9141 58.4729C23.5223 58.1176 23.2249 57.6642 22.9465 57.2201L22.2809 56.1682C22.0308 55.7989 21.9033 55.4623 21.8939 55.1865C21.8892 55.0509 21.9128 54.9294 21.9647 54.8218C22.0166 54.7096 22.1016 54.6115 22.2101 54.5413C22.262 54.5039 22.3234 54.4759 22.3942 54.4525C22.3517 53.8915 22.3376 53.195 22.3659 52.6059C22.38 52.461 22.4084 52.3208 22.4461 52.1758C22.616 51.5728 23.0456 51.0866 23.5742 50.7547C23.763 50.6378 23.966 50.5396 24.1831 50.4601C25.467 50.002 27.1662 50.2498 28.0771 51.2268C28.45 51.6242 28.6813 52.1525 28.7285 52.849L28.6766 54.5226ZM35.3932 49.8664C35.2422 49.8851 35.1289 49.9225 35.0439 49.9739C34.9873 50.0113 34.9495 50.0581 34.9259 50.1095C34.8976 50.175 34.8835 50.2544 34.8835 50.3433C34.8929 50.6284 35.0487 51.0118 35.346 51.4512L35.3507 51.4606L36.3467 53.0313C36.7432 53.6578 37.1585 54.2936 37.673 54.7611C38.1639 55.2052 38.7539 55.5044 39.5374 55.5044C40.387 55.5044 41.0101 55.1958 41.5104 54.7283C42.0391 54.2375 42.4639 53.5596 42.8745 52.8817L43.9932 51.0585C44.2197 50.549 44.2858 50.2404 44.215 50.1002C44.1678 50.0067 43.9743 49.9833 43.6439 50.016C43.6203 50.016 43.592 50.016 43.5684 50.016C43.4315 50.016 43.2852 49.9833 43.12 49.9085L43.625 48.2442C41.5718 48.2208 40.1699 47.8656 38.5085 46.8137C37.9609 46.4678 37.8005 46.0751 37.2529 46.1125C36.8423 46.1919 36.493 46.3743 36.2192 46.6688C35.9549 46.9493 35.7567 47.3326 35.6245 47.8282L35.9785 49.843C35.7756 49.9365 35.5773 49.9459 35.3932 49.8664ZM36.3184 57.2201L38.1025 62.4139L38.9993 59.3331L38.5604 58.8563C38.3621 58.5711 38.3197 58.3187 38.4282 58.1036C38.6642 57.6361 39.1598 57.725 39.6177 57.725C40.0991 57.725 40.6938 57.6361 40.8449 58.2299C40.8968 58.4309 40.8307 58.6366 40.6891 58.8563L40.2502 59.3331L41.147 62.4139L42.7612 57.2201C43.9271 58.2579 46.9243 58.4683 48.2082 59.1742C48.5575 59.3659 48.8737 59.6043 49.1427 59.9081C49.1475 59.8754 49.1569 59.838 49.1758 59.81C49.3174 59.5341 49.61 59.5856 49.8838 59.5856C50.1717 59.5856 50.5257 59.5342 50.6154 59.8894C50.6437 60.0063 50.606 60.1325 50.5257 60.2634L50.2661 60.5486L50.7995 62.3812L50.1151 62.9188L50.3416 65.8593C50.2756 66.5465 49.8838 66.9392 49.1097 67H29.9746C29.2005 66.9392 28.8088 66.5465 28.7427 65.8593L29.0117 62.3952C29.0872 61.4275 29.361 60.6608 29.8094 60.0764C30.1021 59.6931 30.4702 59.4079 30.8761 59.1835C32.1553 58.4683 35.1525 58.2579 36.3184 57.2201ZM44.3236 49.3662C44.5643 49.4363 44.7437 49.5719 44.8522 49.7869C45.0221 50.1282 44.9561 50.6284 44.6398 51.3437C44.6351 51.3577 44.6257 51.3717 44.6209 51.3858L43.4834 53.237C43.0444 53.957 42.596 54.6722 41.9966 55.2285C41.3688 55.8082 40.5994 56.1963 39.5469 56.1916C38.5604 56.1916 37.8193 55.8176 37.2104 55.266C36.6252 54.7377 36.1862 54.0598 35.7614 53.396L34.7655 51.8252C34.3926 51.2782 34.2038 50.7734 34.1896 50.3573C34.1849 50.1563 34.2179 49.9739 34.2935 49.815C34.3737 49.6467 34.4964 49.5018 34.6616 49.3942C34.7419 49.3382 34.8363 49.2961 34.9354 49.2587C34.874 48.4172 34.8551 47.3794 34.8929 46.5051C34.9165 46.2901 34.9543 46.0797 35.0156 45.8647C35.2705 44.9624 35.9077 44.2378 36.7007 43.7423C36.9792 43.5646 37.286 43.4197 37.6069 43.3075C39.5186 42.6203 42.0579 42.9943 43.4173 44.4529C43.9696 45.0466 44.3188 45.832 44.3944 46.8698L44.3236 49.3662ZM47.7834 57.94L48.6613 57.9166L49.3929 57.8979C48.5433 55.3033 48.8265 52.9191 50.875 50.8902C51.2243 52.0029 52.0031 52.9238 53.3294 53.6017C53.9619 54.0692 54.5755 54.6302 55.1702 55.28C55.2741 54.8499 54.8729 54.331 54.3867 53.7934C54.8351 54.0131 55.2505 54.3216 55.5431 54.9153C55.883 55.6025 55.8783 56.1822 55.765 56.9302C55.7131 57.2762 55.6281 57.6034 55.5054 57.8979H56.7184C57.9976 55.1865 57.1857 51.1614 54.5708 49.455C53.7684 48.9314 53.1925 48.9501 52.2485 48.9501C51.1724 48.9501 50.6201 48.9829 49.695 49.5906C48.3356 50.4835 47.4954 52.0262 47.1462 54.1673C47.0754 55.2379 47.0282 57.0845 47.7834 57.94ZM56.8553 40.2408H64.3602C64.4216 40.2408 64.4735 40.2782 64.4735 40.3249V42.5221C64.4735 42.5689 64.4216 42.6063 64.3602 42.6063H56.8553C56.7939 42.6063 56.742 42.5689 56.742 42.5221V40.3249C56.742 40.2782 56.7939 40.2408 56.8553 40.2408ZM56.8553 35.4349H64.3602C64.4216 35.4349 64.4735 35.4723 64.4735 35.5191V37.7163C64.4735 37.7631 64.4216 37.8004 64.3602 37.8004H56.8553C56.7939 37.8004 56.742 37.7631 56.742 37.7163V35.5191C56.742 35.4723 56.7939 35.4349 56.8553 35.4349ZM15.5832 40.2408H23.0881C23.1494 40.2408 23.2013 40.2782 23.2013 40.3249V42.5221C23.2013 42.5689 23.1494 42.6063 23.0881 42.6063H15.5832C15.5218 42.6063 15.4699 42.5689 15.4699 42.5221V40.3249C15.4699 40.2782 15.5218 40.2408 15.5832 40.2408ZM15.5832 35.4349H23.0881C23.1494 35.4349 23.2013 35.4723 23.2013 35.5191V37.7163C23.2013 37.7631 23.1494 37.8004 23.0881 37.8004H15.5832C15.5218 37.8004 15.4699 37.7631 15.4699 37.7163V35.5191C15.4699 35.4723 15.5218 35.4349 15.5832 35.4349ZM44.8286 35.9445H48.8359C48.8973 35.9445 48.9492 35.9959 48.9492 36.0567V40.0257C48.9492 40.0865 48.8973 40.1379 48.8359 40.1379H44.8286C44.7673 40.1379 44.7153 40.0865 44.7153 40.0257V36.0567C44.7153 35.9959 44.7673 35.9445 44.8286 35.9445ZM37.9421 35.9445H41.9494C42.0107 35.9445 42.0627 35.9959 42.0627 36.0567V40.0257C42.0627 40.0865 42.0107 40.1379 41.9494 40.1379H37.9421C37.8807 40.1379 37.8288 40.0865 37.8288 40.0257V36.0567C37.8288 35.9959 37.8807 35.9445 37.9421 35.9445ZM31.0555 35.9445H35.0628C35.1242 35.9445 35.1761 35.9959 35.1761 36.0567V40.0257C35.1761 40.0865 35.1242 40.1379 35.0628 40.1379H31.0555C30.9941 40.1379 30.9422 40.0865 30.9422 40.0257V36.0567C30.9422 35.9959 30.9941 35.9445 31.0555 35.9445ZM44.8286 28.2449H48.8359C48.8973 28.2449 48.9492 28.2963 48.9492 28.3571V32.3261C48.9492 32.3869 48.8973 32.4383 48.8359 32.4383H44.8286C44.7673 32.4383 44.7153 32.3869 44.7153 32.3261V28.3571C44.7153 28.2917 44.7673 28.2449 44.8286 28.2449ZM37.9421 28.2449H41.9494C42.0107 28.2449 42.0627 28.2963 42.0627 28.3571V32.3261C42.0627 32.3869 42.0107 32.4383 41.9494 32.4383H37.9421C37.8807 32.4383 37.8288 32.3869 37.8288 32.3261V28.3571C37.8288 28.2917 37.8807 28.2449 37.9421 28.2449ZM31.0555 28.2449H35.0628C35.1242 28.2449 35.1761 28.2963 35.1761 28.3571V32.3261C35.1761 32.3869 35.1242 32.4383 35.0628 32.4383H31.0555C30.9941 32.4383 30.9422 32.3869 30.9422 32.3261V28.3571C30.9422 28.2917 30.9941 28.2449 31.0555 28.2449Z" fill="url(#paint1_linear_4_41)"/>
<defs>
<linearGradient id="paint0_linear_4_41" x1="40" y1="0" x2="40" y2="80" gradientUnits="userSpaceOnUse">
<stop stop-color="#F8EC20"/>
<stop offset="1" stop-color="#A79F1E"/>
</linearGradient>
<linearGradient id="paint1_linear_4_41" x1="-6.12812" y1="43.925" x2="83.4671" y2="32.9847" gradientUnits="userSpaceOnUse">
<stop stop-color="#232524"/>
<stop offset="0.770833" stop-color="#151B27" stop-opacity="0.84"/>
</linearGradient>
</defs>
</svg>
