<svg width="80" height="80" viewBox="0 0 80 80" fill="none" xmlns="http://www.w3.org/2000/svg">
<circle cx="40" cy="40" r="40" fill="url(#paint0_linear_2_4)"/>
<path d="M62.9587 33.867C62.3424 33.867 61.7382 33.9654 61.1583 34.1618L55.6362 23.5715C56.047 23.1787 56.4095 22.7372 56.7116 22.2093C58.367 19.2888 57.3883 15.5214 54.5004 13.8282C53.5699 13.2758 52.5308 13.0057 51.4796 13.0057C50.96 13.0057 50.4283 13.0672 49.9087 13.2146C48.3499 13.6439 47.057 14.6625 46.2596 16.0737C46.0421 16.442 45.8729 16.8347 45.7521 17.2396H34.2486C34.1277 16.8347 33.9586 16.442 33.7411 16.0737C32.9437 14.6626 31.6507 13.644 30.092 13.2146C28.5332 12.785 26.902 13.0057 25.5004 13.8282C22.6124 15.5214 21.6335 19.2888 23.2889 22.2215C23.5911 22.7371 23.9535 23.1787 24.3643 23.5715L18.8422 34.1618C18.2622 33.9654 17.6581 33.867 17.0418 33.867C13.7068 33.867 11.0002 36.6161 11.0002 40.0027C11.0002 43.3774 13.7068 46.1385 17.0419 46.1385C17.6582 46.1385 18.2624 46.0283 18.8423 45.844L24.3645 56.4221C23.9536 56.8149 23.5911 57.2688 23.289 57.7843C21.6337 60.7048 22.6124 64.4719 25.5002 66.1778C26.4307 66.7176 27.4578 66.9999 28.509 66.9999C29.0406 66.9999 29.5724 66.9261 30.0919 66.7792C31.6507 66.3498 32.9436 65.3312 33.741 63.9321C33.9585 63.5516 34.1277 63.1591 34.2485 62.7541H45.7518C45.8727 63.1591 46.0418 63.5516 46.2472 63.9201C47.0568 65.3312 48.3497 66.3498 49.9085 66.7793C50.4281 66.9263 50.9597 67 51.4914 67C52.5426 67 53.5696 66.7177 54.5001 66.1657C57.388 64.472 58.3668 60.705 56.7113 57.7845C56.4092 57.269 56.0468 56.8151 55.6359 56.4223L61.158 45.8442C61.738 46.0285 62.3422 46.1387 62.9585 46.1387C66.2934 46.1387 69.0002 43.3776 69.0002 40.003C69.0003 36.6161 66.2937 33.867 62.9587 33.867ZM56.9654 40.7514C56.9774 40.8374 56.9895 40.9111 57.0016 40.9846C57.0378 41.1562 57.0619 41.3282 57.1103 41.5001C57.1345 41.5857 57.1586 41.6717 57.1828 41.7578C57.2312 41.9172 57.2795 42.0765 57.3399 42.2363C57.3761 42.3099 57.4003 42.3833 57.4366 42.457C57.5091 42.6535 57.6057 42.8253 57.7024 42.9968C57.7266 43.046 57.7386 43.0828 57.7628 43.1197C57.8837 43.3407 58.0286 43.5493 58.1737 43.7457C58.2099 43.7824 58.2462 43.8193 58.2704 43.8561C58.3913 44.0155 58.5242 44.1628 58.6691 44.31C58.7175 44.3592 58.7778 44.4083 58.8262 44.4697C58.8987 44.5307 58.9591 44.6045 59.0316 44.666L53.582 55.1211C53.5217 55.0966 53.4491 55.0719 53.3766 55.0474C53.292 55.0231 53.2075 54.986 53.1228 54.9614C52.9537 54.9125 52.7724 54.8757 52.6032 54.8389L52.3857 54.8021C52.132 54.7652 51.8903 54.7283 51.6365 54.7283H51.5882C51.3465 54.7283 51.1169 54.7283 50.8873 54.7529L50.6699 54.7898C50.4886 54.8143 50.3073 54.8389 50.1382 54.888C50.0537 54.9002 49.9691 54.9249 49.8966 54.9494C49.7153 54.9985 49.5341 55.0474 49.365 55.1211C49.2924 55.1457 49.232 55.1702 49.1595 55.1948C48.9179 55.2929 48.6883 55.4156 48.4587 55.5385C48.217 55.6856 47.9874 55.8576 47.7578 56.0293C47.6974 56.0784 47.6249 56.1398 47.5645 56.2012C47.4194 56.3238 47.2745 56.4589 47.1416 56.5937C47.0812 56.6674 47.0087 56.741 46.9483 56.8148C46.8274 56.9496 46.7067 57.0971 46.5979 57.2441C46.5496 57.3178 46.4892 57.3916 46.4409 57.4648C46.32 57.6613 46.2113 57.8577 46.1025 58.0664C46.0783 58.103 46.0542 58.1398 46.0421 58.1767C45.9213 58.422 45.8247 58.68 45.74 58.9377C45.7158 59.0114 45.7038 59.0971 45.6796 59.1708C45.6192 59.3547 45.5829 59.5513 45.5467 59.7476C45.5225 59.8459 45.5105 59.9438 45.4984 60.0421C45.4863 60.128 45.4742 60.214 45.4622 60.2997H34.5388C34.5268 60.2141 34.5146 60.128 34.5026 60.0421C34.4906 59.9438 34.4784 59.8459 34.4543 59.7476C34.4181 59.5514 34.3817 59.3671 34.3214 59.1831C34.3093 59.0973 34.2852 59.0235 34.261 58.9379C34.1764 58.6801 34.0797 58.4345 33.9588 58.1892C33.9347 58.14 33.9105 58.0911 33.8863 58.042C33.7896 57.8455 33.6809 57.6615 33.5601 57.4776C33.5118 57.3917 33.4514 57.3179 33.391 57.2442C33.2823 57.097 33.1735 56.9497 33.0648 56.8149C32.9923 56.7411 32.9198 56.6674 32.8473 56.5815C32.7265 56.4589 32.5815 56.3238 32.4486 56.2013C32.3761 56.1399 32.3036 56.0784 32.2312 56.0295C32.0137 55.8455 31.7841 55.6857 31.5424 55.5387C31.3128 55.4036 31.0832 55.293 30.8416 55.1949C30.7691 55.1704 30.6965 55.1458 30.6241 55.1213C30.455 55.0475 30.2858 54.9986 30.1045 54.9495C30.02 54.925 29.9354 54.9003 29.8507 54.8757C29.6936 54.839 29.5245 54.8144 29.3553 54.7899L29.1015 54.753C28.9082 54.7407 28.7148 54.7284 28.5215 54.7284H28.2557C28.0503 54.7406 27.8448 54.7652 27.6516 54.7899C27.5307 54.8144 27.4099 54.839 27.289 54.8635C27.1682 54.8881 27.0474 54.9126 26.9387 54.9495C26.8058 54.986 26.6849 55.0232 26.5641 55.072C26.5158 55.0843 26.4674 55.0967 26.4191 55.1213L20.9695 44.6661C21.0299 44.6046 21.1024 44.5309 21.1628 44.4698C21.2231 44.4207 21.2836 44.3594 21.344 44.2979C21.4769 44.1631 21.5978 44.0156 21.7186 43.8686C21.7548 43.8318 21.7911 43.7827 21.8273 43.7458C21.9724 43.5495 22.1173 43.341 22.2382 43.1198C22.2624 43.083 22.2865 43.0342 22.3107 42.9851C22.4074 42.8254 22.492 42.6413 22.5645 42.4694C22.6007 42.3835 22.6249 42.31 22.6612 42.2364C22.7216 42.0766 22.7699 41.9173 22.8183 41.7579C22.8425 41.6719 22.8666 41.5859 22.8908 41.5002C22.9392 41.3283 22.9633 41.1562 22.9995 40.9969C23.0116 40.9112 23.0237 40.8375 23.0357 40.7515C23.0599 40.5063 23.0841 40.2485 23.0841 40.0029C23.0841 39.7451 23.0599 39.4876 23.0357 39.2421C23.0237 39.1563 23.0116 39.0825 22.9995 39.0087C22.9633 38.8371 22.9392 38.6655 22.8908 38.4935C22.8666 38.4078 22.8425 38.3217 22.8183 38.2359C22.7699 38.0765 22.7216 37.929 22.6612 37.7696C22.625 37.6836 22.6008 37.61 22.5645 37.5364C22.492 37.3522 22.4074 37.1806 22.3107 37.0086C22.2865 36.9594 22.2624 36.9103 22.2382 36.8738C22.1173 36.6527 21.9724 36.4564 21.8273 36.2602C21.7911 36.2111 21.7548 36.1742 21.7186 36.1251C21.5977 35.9779 21.4769 35.8306 21.3319 35.6957C21.2835 35.634 21.2231 35.5852 21.1628 35.5239C21.0902 35.4626 21.0299 35.389 20.9695 35.3399L26.4191 24.8847C26.5036 24.9093 26.6003 24.9338 26.6849 24.9704C26.7694 24.9949 26.842 25.0195 26.9265 25.0441C27.144 25.1055 27.3736 25.1546 27.6032 25.1914C27.6274 25.2034 27.6636 25.2034 27.6878 25.216C27.9415 25.2525 28.1952 25.2651 28.449 25.2651C28.4732 25.2651 28.5094 25.2771 28.5336 25.2771C28.5939 25.2771 28.6544 25.2651 28.7148 25.2651C28.8719 25.2526 29.017 25.2526 29.174 25.2281L29.464 25.1916C29.6091 25.167 29.754 25.1423 29.8991 25.1056C29.9958 25.081 30.0803 25.0565 30.177 25.0319C30.3341 24.995 30.4791 24.9338 30.6363 24.8725C30.7208 24.8478 30.7934 24.8233 30.8779 24.7865C31.0954 24.6882 31.325 24.578 31.5424 24.4552C31.7841 24.3079 32.0137 24.1484 32.2433 23.9764C32.3037 23.9153 32.3762 23.8539 32.4366 23.8049C32.5817 23.6697 32.7266 23.5472 32.8595 23.4001C32.9199 23.3388 32.9924 23.265 33.0528 23.1914C33.1737 23.0442 33.2944 22.8969 33.4032 22.7493C33.4515 22.6759 33.5119 22.6022 33.5602 22.5286C33.6811 22.3324 33.7899 22.1357 33.8986 21.9396C33.9228 21.8907 33.9469 21.8537 33.959 21.8171C34.0798 21.5715 34.1764 21.3137 34.2611 21.0561C34.2853 20.9823 34.2973 20.8965 34.3215 20.8229C34.3819 20.6388 34.4182 20.4425 34.4544 20.2585C34.4786 20.1602 34.4906 20.062 34.5027 19.964C34.5148 19.8657 34.5269 19.792 34.5389 19.694H45.4623C45.4743 19.792 45.4865 19.8657 45.4985 19.964C45.5105 20.062 45.5227 20.1602 45.5468 20.2585C45.583 20.4425 45.6194 20.6388 45.6797 20.8229C45.7039 20.8965 45.7159 20.9823 45.7401 21.0561C45.8247 21.3137 45.9214 21.5714 46.0423 21.8171C46.0543 21.8536 46.0906 21.9027 46.1148 21.9396C46.2115 22.1484 46.3202 22.3324 46.441 22.5286C46.4893 22.6024 46.5497 22.6759 46.6101 22.7493C46.7068 22.8969 46.8276 23.0442 46.9484 23.1914C47.0088 23.265 47.0813 23.3388 47.1417 23.4121C47.2746 23.5472 47.4197 23.6697 47.5646 23.8049C47.6372 23.854 47.6975 23.9153 47.7701 23.9764C47.9875 24.1484 48.2171 24.3078 48.4588 24.4552C48.6884 24.59 48.9058 24.7005 49.1355 24.7989C49.208 24.8234 49.2684 24.8356 49.3288 24.8603C49.4979 24.934 49.6671 24.995 49.8484 25.0443C49.9209 25.0688 50.0054 25.081 50.078 25.1056C50.2471 25.1423 50.4042 25.167 50.5612 25.2035C50.6458 25.2161 50.7304 25.2282 50.8271 25.2282C50.9841 25.2528 51.1412 25.2652 51.2983 25.2652C51.3587 25.2652 51.4192 25.2772 51.4796 25.2772C51.5037 25.2772 51.5279 25.2772 51.5521 25.2652C51.7937 25.2652 52.0234 25.2528 52.265 25.2161C52.3375 25.2035 52.4221 25.1916 52.4946 25.1794C52.6759 25.1425 52.8571 25.1056 53.0384 25.0565C53.1471 25.0196 53.268 24.9827 53.3767 24.9459C53.4493 24.9214 53.5218 24.9094 53.5822 24.8849L59.0317 35.34C58.9714 35.3892 58.9109 35.4627 58.8505 35.524C58.778 35.5731 58.7176 35.6342 58.6572 35.6959C58.5363 35.8307 58.4156 35.9656 58.2947 36.113C58.2585 36.1621 58.2101 36.2113 58.1738 36.2604C58.0287 36.4566 57.8838 36.6529 57.7629 36.874C57.7387 36.9231 57.7146 36.972 57.6904 37.0212C57.5937 37.1928 57.5091 37.3525 57.4366 37.5367C57.4004 37.6102 57.3762 37.6961 57.3399 37.7699C57.2795 37.9293 57.2312 38.0766 57.1828 38.2361C57.1586 38.322 57.1345 38.408 57.1103 38.5059C57.0619 38.6657 57.0378 38.8373 57.0016 39.0089C56.9895 39.0827 56.9774 39.1564 56.9654 39.2424C56.9412 39.4878 56.917 39.7454 56.917 40.0031C56.917 40.2484 56.9412 40.5061 56.9654 40.7514Z" fill="url(#paint1_linear_2_4)"/>
<path d="M54.5003 42.8005V37.2051L51.117 36.628C50.8996 35.8551 50.5854 35.1064 50.2107 34.3949L52.2045 31.56L48.3015 27.6086L45.5102 29.6333C44.8094 29.2405 44.0845 28.9338 43.3231 28.7006L42.7551 25.2769H37.2452L36.6772 28.7006C35.916 28.9338 35.1909 29.2405 34.4901 29.6333L31.6988 27.6086L27.7958 31.56L29.7896 34.3949C29.415 35.1064 29.1009 35.8551 28.8833 36.628L25.5 37.2051V42.8005L28.8833 43.3652C29.1007 44.1382 29.4149 44.8866 29.7896 45.5985L27.7958 48.4332L31.6988 52.3969L34.4901 50.3722C35.1909 50.7524 35.9159 51.0592 36.6772 51.2926L37.2452 54.7283H42.7551L43.3231 51.2926C44.0843 51.0592 44.8094 50.7525 45.5102 50.3722L48.3015 52.3969L52.2045 48.4332L50.2107 45.5985C50.5853 44.8866 50.8994 44.1382 51.117 43.3652L54.5003 42.8005ZM40.0003 45.3776C37.0761 45.3776 34.7078 42.9603 34.7078 40.0027C34.7078 37.0331 37.0761 34.6156 40.0003 34.6156C42.9245 34.6156 45.2928 37.0331 45.2928 40.0027C45.2928 42.9603 42.9244 45.3776 40.0003 45.3776Z" fill="url(#paint2_linear_2_4)"/>
<defs>
<linearGradient id="paint0_linear_2_4" x1="40" y1="0" x2="40" y2="80" gradientUnits="userSpaceOnUse">
<stop stop-color="#F8EC20"/>
<stop offset="1" stop-color="#A79F1E"/>
</linearGradient>
<linearGradient id="paint1_linear_2_4" x1="-6.12794" y1="43.925" x2="83.4673" y2="32.9847" gradientUnits="userSpaceOnUse">
<stop stop-color="#232524"/>
<stop offset="0.770833" stop-color="#151B27" stop-opacity="0.84"/>
</linearGradient>
<linearGradient id="paint2_linear_2_4" x1="16.9358" y1="42.1433" x2="61.8392" y2="37.1166" gradientUnits="userSpaceOnUse">
<stop stop-color="#232524"/>
<stop offset="0.770833" stop-color="#151B27" stop-opacity="0.84"/>
</linearGradient>
</defs>
</svg>
