<svg width="80" height="80" viewBox="0 0 80 80" fill="none" xmlns="http://www.w3.org/2000/svg">
<circle cx="40" cy="40" r="40" fill="url(#paint0_linear_5_48)"/>
<g clip-path="url(#clip0_5_48)">
<path d="M58.9757 18.7298C58.4071 18.1797 57.7387 17.9084 56.965 17.9084C56.1924 17.9084 55.515 18.1797 54.9543 18.7298L51.89 21.6797C51.0687 21.1656 50.1987 20.7172 49.2902 20.3158C48.3817 19.9144 47.4528 19.5698 46.5148 19.2713V14.7344C46.5148 13.9688 46.2452 13.3245 45.6935 12.793C45.143 12.2614 44.4757 12 43.6828 12H37.7865C37.032 12 36.3761 12.2614 35.8052 12.793C35.2445 13.3245 34.9635 13.9688 34.9635 14.7344V18.8884C33.978 19.1116 33.0207 19.3916 32.102 19.7372C31.1743 20.0828 30.2952 20.4744 29.4637 20.913L26.0698 17.6831C25.5385 17.1428 24.8917 16.8628 24.1078 16.8628C23.3341 16.8628 22.668 17.1428 22.097 17.6831L17.9702 21.6797C17.4004 22.2298 17.1195 22.8741 17.1195 23.6189C17.1195 24.3659 17.4004 25.02 17.9702 25.5603L21.0254 28.52C20.493 29.3141 20.0296 30.153 19.6139 31.0302C19.197 31.9073 18.8402 32.8042 18.5309 33.7087H13.8332C13.0391 33.7087 12.3718 33.9702 11.8213 34.5028C11.2707 35.0344 11 35.6786 11 36.4442V42.1372C11 42.8645 11.2707 43.5 11.8213 44.0513C12.3718 44.5916 13.0391 44.8628 13.8332 44.8628H18.1345C18.3655 45.8144 18.6555 46.7386 19.0135 47.6245C19.3726 48.5214 19.7782 49.3887 20.2313 50.2287L16.8872 53.4487C16.3265 53.9628 16.0365 54.5873 16.0365 55.3442C16.0365 56.0902 16.3265 56.7344 16.8872 57.2856L21.0254 61.327C21.5952 61.84 22.2624 62.0927 23.0361 62.0927C23.8087 62.0927 24.485 61.84 25.0469 61.327L28.11 58.3214C28.9324 58.8344 29.8024 59.2817 30.7109 59.6842C31.6195 60.0845 32.5472 60.4312 33.4852 60.7287V65.2656C33.4852 66.0312 33.7559 66.6744 34.3065 67.2059C34.857 67.7386 35.5254 68 36.3172 68H42.2135C42.968 68 43.625 67.7386 44.1959 67.2059C44.7555 66.6744 45.0365 66.0312 45.0365 65.2656V61.1116C46.022 60.8884 46.9793 60.6084 47.8968 60.2628C48.8257 59.9172 49.7252 59.5256 50.5941 59.087L53.9291 62.3169C54.4615 62.8583 55.1174 63.1372 55.9126 63.1372C56.7135 63.1372 57.3705 62.8583 57.903 62.3169L62.0887 58.3214C62.62 57.7702 62.8817 57.127 62.8817 56.38C62.8817 55.6341 62.62 54.98 62.0887 54.4386L58.9757 51.48C59.5082 50.6859 59.9715 49.847 60.3872 48.9688C60.8018 48.0927 61.1609 47.1958 61.4702 46.2902H66.168C66.9609 46.2902 67.627 46.0277 68.1776 45.4972C68.7293 44.9645 69 44.3214 69 43.5558V37.8628C69 37.1344 68.7293 36.5011 68.1776 35.9488C67.627 35.4073 66.9609 35.1372 66.168 35.1372H61.8655C61.6345 34.2228 61.3445 33.3073 60.9865 32.4028C60.6285 31.4873 60.223 30.6298 59.7687 29.8259L63.1139 26.5502C63.6746 26.0372 63.9635 25.4116 63.9635 24.6558C63.9635 23.9087 63.6746 23.2656 63.1139 22.7144L58.9757 18.7298ZM53.4918 46.9464C50.918 51.597 45.8408 54.7602 40 54.7602C34.157 54.7602 29.0831 51.597 26.5093 46.9486C26.8107 45.6787 27.308 44.5708 28.7636 43.7942C30.7755 42.7125 34.2396 42.7934 35.8879 41.3617L38.1648 47.1345L39.309 43.9878L38.7482 43.395C38.3268 42.8 38.4718 42.1241 39.2535 42.0016C39.5174 41.9611 39.8142 41.9862 40.0997 41.9862C40.4044 41.9862 40.7431 41.9589 41.0309 42.0213C41.757 42.1755 41.8318 42.8547 41.4704 43.395L40.9096 43.9878L42.0549 47.1345L44.1144 41.3617C45.6006 42.6523 49.6006 42.9127 51.2375 43.7942C52.6977 44.5839 53.1927 45.6798 53.4918 46.9464ZM35.4676 37.4909C35.2614 37.4942 35.0927 37.4691 34.9091 37.3706C34.6656 37.2405 34.4934 37.0163 34.3767 36.7636C34.1309 36.232 33.9361 34.8353 34.5546 34.435L34.439 34.3628L34.4266 34.2086C34.4028 33.9275 34.3971 33.5873 34.3903 33.2297C34.3677 31.9172 34.3393 30.3247 33.2156 30.0064L32.7341 29.8686L33.0525 29.4989C33.9598 28.4445 34.908 27.5225 35.8641 26.8148C36.9459 26.0131 38.0459 25.4805 39.1209 25.3263C40.2277 25.1687 41.2993 25.4083 42.2894 26.1597C42.5805 26.3817 42.8649 26.6497 43.139 26.9614C44.1937 27.0577 45.058 27.5925 45.6743 28.3559C46.0413 28.8109 46.3211 29.3502 46.5001 29.9233C46.6768 30.4942 46.7538 31.1013 46.721 31.6984C46.6609 32.7703 46.2452 33.8148 45.4058 34.5783C45.553 34.5827 45.6924 34.6144 45.8147 34.6778C46.2837 34.913 46.2984 35.4237 46.1761 35.8536C46.0537 36.2123 45.8997 36.628 45.7536 36.978C45.5768 37.4494 45.3174 37.538 44.8167 37.4866C43.6918 42.2389 36.8893 42.4008 35.4676 37.4909ZM40 22.6498C49.928 22.6498 57.9698 30.4198 57.9698 40C57.9698 49.5856 49.9223 57.3502 40 57.3502C30.0732 57.3502 22.0302 49.5802 22.0302 40C22.0302 30.4144 30.0777 22.6498 40 22.6498Z" fill="url(#paint1_linear_5_48)"/>
</g>
<defs>
<linearGradient id="paint0_linear_5_48" x1="40" y1="0" x2="40" y2="80" gradientUnits="userSpaceOnUse">
<stop stop-color="#F8EC20"/>
<stop offset="1" stop-color="#A79F1E"/>
</linearGradient>
<linearGradient id="paint1_linear_5_48" x1="-6.12812" y1="44.0704" x2="83.5595" y2="33.5099" gradientUnits="userSpaceOnUse">
<stop stop-color="#232524"/>
<stop offset="0.770833" stop-color="#151B27" stop-opacity="0.84"/>
</linearGradient>
<clipPath id="clip0_5_48">
<rect width="58" height="56" fill="white" transform="translate(11 12)"/>
</clipPath>
</defs>
</svg>
