<svg width="80" height="80" viewBox="0 0 80 80" fill="none" xmlns="http://www.w3.org/2000/svg">
<circle cx="40" cy="40" r="40" fill="url(#paint0_linear_5_60)"/>
<path fill-rule="evenodd" clip-rule="evenodd" d="M41.0272 14.4546C45.1077 11.8135 45.4125 17.043 49.418 13.7734V19.1084C45.6002 22.3296 44.7747 17.1265 41.0272 19.7676V14.4546ZM39.1933 29.2642H39.9062C40.0375 29.2642 40.1407 29.3652 40.1407 29.4839V32.0503H42.6406C42.7719 32.0503 42.8751 32.1514 42.8751 32.27V32.938C42.8751 33.061 42.7672 33.1577 42.6406 33.1577H38.9541V29.4795C38.9541 29.3652 39.062 29.2642 39.1933 29.2642ZM40 26.2583C43.2128 26.2583 45.8159 28.6973 45.8159 31.7075C45.8159 34.7178 43.2128 37.1567 40 37.1567C36.7872 37.1567 34.1841 34.7178 34.1841 31.7075C34.1841 28.7017 36.7872 26.2583 40 26.2583ZM40.7973 44.5264V62.2231H46.5429V44.5264H40.7973ZM39.2027 62.2231V44.5264H33.4571V62.2231H39.2027ZM64 66.9868V35.79H51.3551V28.2358L40.4503 21.6528V14.3579H40.4127C40.6426 14.2349 40.7927 13.9976 40.7927 13.7295C40.7927 13.3252 40.4456 13 40.0141 13C39.5826 13 39.2355 13.3252 39.2355 13.7295C39.2355 13.9976 39.3903 14.2305 39.6154 14.3579H39.5779V21.6396L28.6496 28.2358V35.79H19.391H16V67C32.0031 67 47.9969 66.9868 64 66.9868ZM21.1546 44.5264H27.4817V46.8335H21.1546V44.5264ZM52.5136 44.5264H58.8407V46.8335H52.5136V44.5264ZM21.1546 49.6196H27.4817V51.9268H21.1546V49.6196ZM52.5136 49.6196H58.8407V51.9268H52.5136V49.6196ZM21.1546 54.7129H27.4817V57.02H21.1546V54.7129ZM52.5136 54.7129H58.8407V57.02H52.5136V54.7129ZM21.1546 59.8062H27.4817V62.1133H21.1546V59.8062ZM52.5136 59.8062H58.8407V62.1133H52.5136V59.8062Z" fill="url(#paint1_linear_5_60)"/>
<defs>
<linearGradient id="paint0_linear_5_60" x1="40" y1="0" x2="40" y2="80" gradientUnits="userSpaceOnUse">
<stop stop-color="#F8EC20"/>
<stop offset="1" stop-color="#A79F1E"/>
</linearGradient>
<linearGradient id="paint1_linear_5_60" x1="1.825" y1="43.925" x2="76.3176" y2="36.3972" gradientUnits="userSpaceOnUse">
<stop stop-color="#232524"/>
<stop offset="0.770833" stop-color="#151B27" stop-opacity="0.84"/>
</linearGradient>
</defs>
</svg>
