<svg width="80" height="80" viewBox="0 0 80 80" fill="none" xmlns="http://www.w3.org/2000/svg">
<circle cx="40" cy="40" r="40" fill="url(#paint0_linear_5_72)"/>
<path d="M52.2068 42.4074H44.3257C42.1688 42.4074 40.4148 44.2778 40.4148 46.5778V53.0229C40.4148 55.323 42.1688 57.1933 44.3257 57.1933H52.2068C54.3637 57.1933 56.1177 55.323 56.1177 53.0229V46.5778C56.1177 44.2778 54.3637 42.4074 52.2068 42.4074ZM53.2734 53.0229C53.2734 53.6548 52.7875 54.1603 52.2068 54.1603H44.3257C43.7331 54.1603 43.2591 53.6422 43.2591 53.0229V46.5778C43.2591 45.9459 43.745 45.4404 44.3257 45.4404H52.2068C52.7993 45.4404 53.2734 45.9586 53.2734 46.5778V53.0229Z" fill="url(#paint1_linear_5_72)"/>
<path d="M69 30.6925C69 30.4271 68.9407 30.1743 68.8104 29.9469L60.1827 13.7709C59.9338 13.3033 59.4597 13 58.9501 13H21.038C20.5284 13 20.0544 13.2907 19.8055 13.7709L11.1896 29.9469C11.0711 30.1743 11 30.4271 11 30.6925C11 34.3194 13.0503 37.4283 15.9775 38.8058V65.4835C15.9775 66.3176 16.6175 67 17.3997 67H25.2571C25.2689 67 25.2808 67 25.2926 67H36.3143C36.3261 67 36.338 67 36.3498 67H62.5885C63.3707 67 64.0106 66.3176 64.0106 65.4835V38.9953C64.0106 38.9321 64.0106 38.8816 63.9988 38.831C66.9379 37.4535 69 34.3321 69 30.6925ZM21.8676 16.0456H58.1206L64.8639 28.6958H15.1361L21.8676 16.0456ZM52.2779 31.7161C51.8275 34.4458 49.5877 36.5184 46.8974 36.5184C44.2072 36.5184 41.9673 34.4458 41.517 31.7161H52.2779ZM38.4949 31.7161C38.0445 34.4458 35.8047 36.5184 33.1144 36.5184C30.4242 36.5184 28.1843 34.4458 27.7221 31.7161H38.4949ZM13.9391 31.7161H24.7119C24.2615 34.4458 22.0098 36.5184 19.3196 36.5184C16.6293 36.531 14.3895 34.4458 13.9391 31.7161ZM34.8921 63.967H26.7148V47.6015C26.7148 46.4135 27.6154 45.4404 28.7413 45.4404H32.8774C33.9914 45.4404 34.904 46.4009 34.904 47.6015V63.967H34.8921ZM61.1663 63.967H37.7364V47.6015C37.7364 44.7454 35.5558 42.4074 32.8656 42.4074H28.7295C26.0511 42.4074 23.8586 44.7327 23.8586 47.6015V63.9796H18.8218V39.5514C18.9877 39.564 19.1537 39.564 19.3196 39.564C22.1876 39.564 24.7237 38.0096 26.217 35.6464C27.7103 38.0096 30.2464 39.564 33.1144 39.564C35.9824 39.564 38.5067 38.0096 40.0119 35.6464C41.5051 38.0096 44.0413 39.564 46.8974 39.564C49.7654 39.564 52.2897 38.0096 53.783 35.6464C55.2763 38.0096 57.8124 39.564 60.6804 39.564C60.8463 39.564 61.0004 39.5514 61.1663 39.5514V63.967ZM60.6804 36.531C57.9902 36.531 55.7503 34.4585 55.3 31.7288H66.0727C65.6105 34.4458 63.3707 36.531 60.6804 36.531Z" fill="url(#paint2_linear_5_72)"/>
<defs>
<linearGradient id="paint0_linear_5_72" x1="40" y1="0" x2="40" y2="80" gradientUnits="userSpaceOnUse">
<stop stop-color="#F8EC20"/>
<stop offset="1" stop-color="#A79F1E"/>
</linearGradient>
<linearGradient id="paint1_linear_5_72" x1="35.7775" y1="50.8751" x2="60.0425" y2="47.9454" gradientUnits="userSpaceOnUse">
<stop stop-color="#232524"/>
<stop offset="0.770833" stop-color="#151B27" stop-opacity="0.84"/>
</linearGradient>
<linearGradient id="paint2_linear_5_72" x1="-6.12812" y1="43.925" x2="83.4671" y2="32.9847" gradientUnits="userSpaceOnUse">
<stop stop-color="#232524"/>
<stop offset="0.770833" stop-color="#151B27" stop-opacity="0.84"/>
</linearGradient>
</defs>
</svg>
