<svg width="80" height="80" viewBox="0 0 80 80" fill="none" xmlns="http://www.w3.org/2000/svg">
<ellipse cx="39.9939" cy="40" rx="39.9939" ry="40" fill="url(#paint0_linear_5_96)"/>
<path fill-rule="evenodd" clip-rule="evenodd" d="M23.6981 45.7701L34.4868 56.5605L30.9899 60.058L28.8473 66.2193L27.983 65.3548L27.7711 58.9384L26.2494 57.4165L21.9329 59.3038L20.7449 58.1156L23.0825 54.2491L21.7043 52.8707L15.2755 52.6454L14.0408 51.4105L20.1978 49.2642L23.6981 45.7701ZM12.0418 27.7305L36.9992 23.529L20.5799 39.9508L9.84787 29.2171C10.4246 28.4468 11.2273 27.8709 12.0418 27.7305ZM57.9063 20.0074C59.2865 19.7751 60.1963 20.8811 59.9306 22.4685C56.3954 43.4531 51.9467 42.8427 37.7059 57.0857L23.0695 42.4471C37.3672 28.1472 36.8441 23.5573 57.9063 20.0074ZM56.4156 43.3595L52.3348 67.5932C52.1701 68.5922 51.5725 69.5504 50.807 70.1825L40.2018 59.5757L56.4156 43.3595Z" fill="url(#paint1_linear_5_96)"/>
<defs>
<linearGradient id="paint0_linear_5_96" x1="39.9939" y1="0" x2="39.9939" y2="80" gradientUnits="userSpaceOnUse">
<stop stop-color="#F8EC20"/>
<stop offset="1" stop-color="#A79F1E"/>
</linearGradient>
<linearGradient id="paint1_linear_5_96" x1="5.02054" y1="9.75586" x2="76.1072" y2="65.3628" gradientUnits="userSpaceOnUse">
<stop stop-color="#232524"/>
<stop offset="0.770833" stop-color="#151B27" stop-opacity="0.84"/>
</linearGradient>
</defs>
</svg>
