<svg width="80" height="81" viewBox="0 0 80 81" fill="none" xmlns="http://www.w3.org/2000/svg">
<ellipse cx="40" cy="40.2963" rx="40" ry="40.2963" fill="url(#paint0_linear_171_395)"/>
<path d="M27.7832 57.0104H21.5325C21.4029 57.0104 21.2812 57.0313 21.2812 57.1607V63.5729H28.1562V57.1607C28.1562 57.0313 27.9127 57.0104 27.7832 57.0104Z" fill="url(#paint1_linear_171_395)"/>
<path d="M28.1562 49.0382C28.1562 48.9089 28.0173 48.7812 27.8876 48.7812H21.5595C21.4299 48.7812 21.2812 48.9089 21.2812 49.0382V55.3664C21.2812 55.4957 21.4299 55.5521 21.5595 55.5521H27.8876C28.0172 55.5521 28.1562 55.4957 28.1562 55.3664V49.0382Z" fill="url(#paint2_linear_171_395)"/>
<path d="M41.222 57.0104H34.9716C34.842 57.0104 34.7188 57.0313 34.7188 57.1607V63.5729H41.4896V57.1607C41.4895 57.0313 41.3516 57.0104 41.222 57.0104Z" fill="url(#paint3_linear_171_395)"/>
<path d="M41.4895 49.0382C41.4895 48.9089 41.3766 48.7812 41.247 48.7812H34.9189C34.7893 48.7812 34.7188 48.9089 34.7188 49.0382V55.3664C34.7188 55.4957 34.7893 55.5521 34.9189 55.5521H41.247C41.3766 55.5521 41.4895 55.4957 41.4895 55.3664V49.0382Z" fill="url(#paint4_linear_171_395)"/>
<path d="M41.4895 41.0694C41.4895 40.9401 41.3766 40.7604 41.247 40.7604H34.9189C34.7893 40.7604 34.7188 40.9401 34.7188 41.0694V47.3976C34.7188 47.5269 34.7893 47.6354 34.9189 47.6354H41.247C41.3766 47.6354 41.4895 47.5269 41.4895 47.3976V41.0694Z" fill="url(#paint5_linear_171_395)"/>
<path d="M54.6596 57.0104H48.4089C48.2793 57.0104 48.2598 57.0313 48.2598 57.1607V63.5729H54.8223V57.1607C54.8223 57.0313 54.7889 57.0104 54.6596 57.0104Z" fill="url(#paint6_linear_171_395)"/>
<path d="M55.0306 49.0382C55.0306 48.9089 54.9698 48.7812 54.8402 48.7812H48.5121C48.3825 48.7812 48.2598 48.9089 48.2598 49.0382V55.3664C48.2598 55.4957 48.3825 55.5521 48.5121 55.5521H54.8402C54.9698 55.5521 55.0306 55.4957 55.0306 55.3664V49.0382Z" fill="url(#paint7_linear_171_395)"/>
<path d="M55.0306 41.0694C55.0306 40.9401 54.9698 40.7604 54.8402 40.7604H48.5121C48.3825 40.7604 48.2598 40.9401 48.2598 41.0694V47.3976C48.2598 47.5269 48.3825 47.6354 48.5121 47.6354H54.8402C54.9698 47.6354 55.0306 47.5269 55.0306 47.3976V41.0694Z" fill="url(#paint8_linear_171_395)"/>
<path d="M55.0306 33.1007C55.0306 32.9714 54.9698 32.8438 54.8402 32.8438H48.5121C48.3825 32.8438 48.2598 32.9714 48.2598 33.1007V39.4289C48.2598 39.5582 48.3825 39.6146 48.5121 39.6146H54.8402C54.9698 39.6146 55.0306 39.5582 55.0306 39.4289V33.1007Z" fill="url(#paint9_linear_171_395)"/>
<path d="M48.2598 29.9776V31.3853C48.2598 31.5147 48.2793 31.698 48.4089 31.698H54.6596C54.7889 31.698 54.8224 31.5147 54.8224 31.3853V25.1347C54.8224 25.0053 54.789 24.823 54.6596 24.823H53.6687C53.2399 27.6355 50.8639 29.7613 48.2598 29.9776Z" fill="url(#paint10_linear_171_395)"/>
<path d="M21.2812 45.9892V47.3936C21.2812 47.5226 21.4021 47.6353 21.5334 47.6353H27.7843C27.913 47.6353 28.1562 47.5226 28.1562 47.3936V41.1453C28.1562 41.0165 27.9131 40.7604 27.7843 40.7604H26.7928C26.3642 43.5729 24.0938 45.7726 21.2812 45.9892Z" fill="url(#paint11_linear_171_395)"/>
<path d="M20.8286 44.6033C23.3864 44.6033 25.4598 42.53 25.4598 39.9719C25.4598 37.4141 23.3864 35.3406 20.8286 35.3406C18.2706 35.3406 16.1973 37.4141 16.1973 39.9719C16.1973 42.5298 18.2706 44.6033 20.8286 44.6033ZM18.5028 39.7255C18.7743 39.4956 19.1811 39.5297 19.4112 39.8014L20.0167 40.5171L22.2826 38.2513C22.5342 37.9998 22.9422 37.9998 23.194 38.2515C23.4457 38.5032 23.4457 38.9113 23.194 39.163L20.4328 41.9242C20.3117 42.0453 20.1476 42.1129 19.9771 42.1129C19.9681 42.1129 19.9591 42.1127 19.9502 42.1125C19.7701 42.1047 19.6014 42.0223 19.4849 41.8845L18.427 40.6339C18.1972 40.3621 18.2309 39.9554 18.5028 39.7255Z" fill="url(#paint12_linear_171_395)"/>
<path d="M34.7188 37.9919V39.3936C34.7188 39.5232 34.842 39.6146 34.9716 39.6146H41.222C41.3516 39.6146 41.4895 39.5232 41.4895 39.3936V33.143C41.4895 33.0136 41.3516 32.8438 41.222 32.8438H40.2343C39.8075 35.6562 37.5313 37.776 34.7188 37.9919Z" fill="url(#paint13_linear_171_395)"/>
<path d="M34.2679 36.6055C36.8257 36.6055 38.8992 34.532 38.8992 31.9742C38.8992 29.4164 36.8257 27.343 34.2679 27.343C31.7101 27.343 29.6367 29.4164 29.6367 31.9742C29.6367 34.532 31.7101 36.6055 34.2679 36.6055ZM31.942 31.7278C32.2136 31.4981 32.6204 31.5317 32.8505 31.8037L33.4561 32.5197L35.7217 30.2539C35.9736 30.0022 36.3813 30.0022 36.6332 30.2539C36.8848 30.5055 36.8848 30.9136 36.6332 31.1653L33.8721 33.9264C33.7511 34.0476 33.5869 34.1153 33.4164 34.1153C33.4074 34.1153 33.3985 34.1149 33.3897 34.1147C33.2095 34.1072 33.0408 34.0246 32.9242 33.8868L31.8663 32.6359C31.6364 32.3644 31.6703 31.9577 31.942 31.7278Z" fill="url(#paint14_linear_171_395)"/>
<path d="M64.7224 16.4998L62.6933 14.5614C62.4801 14.3581 62.147 14.3584 61.9355 14.5616L59.9064 16.4998C59.7435 16.6556 59.6921 16.8305 59.7762 17.0397C59.8601 17.2489 60.0599 17.323 60.2853 17.323H61.5927V22.3177C61.5927 22.6736 61.966 22.9623 62.3218 22.9623C62.6777 22.9623 63.051 22.6737 63.051 22.3177V17.3229H64.3433C64.5687 17.3229 64.7685 17.2488 64.8526 17.0394C64.9364 16.8303 64.8853 16.6554 64.7224 16.4998Z" fill="url(#paint15_linear_171_395)"/>
<path d="M62.3229 24.5C61.9671 24.5 61.5938 24.7886 61.5938 25.1446V30.5025C61.5938 30.8583 61.9671 31.1471 62.3229 31.1471C62.6787 31.1471 63.0521 30.8584 63.0521 30.5025V25.1446C63.0521 24.7887 62.6787 24.5 62.3229 24.5Z" fill="url(#paint16_linear_171_395)"/>
<path d="M62.3225 32.9637C61.9666 32.9637 61.5933 33.2523 61.5933 33.6083V62.2121C61.5933 63.0031 61.0271 63.5729 60.2361 63.5729H15.084C14.728 63.5729 14.4395 63.8942 14.4395 64.25C14.4395 64.6058 14.728 64.9271 15.084 64.9271H60.236C61.7377 64.9271 63.0515 63.7137 63.0515 62.2121V33.6083C63.0516 33.2523 62.6783 32.9637 62.3225 32.9637Z" fill="url(#paint17_linear_171_395)"/>
<path d="M47.7054 28.5914C50.2632 28.5914 52.3367 26.5179 52.3367 23.9601C52.3367 21.4023 50.2632 19.3287 47.7054 19.3287C45.1475 19.3287 43.0742 21.4023 43.0742 23.9601C43.0742 26.5179 45.1475 28.5914 47.7054 28.5914ZM45.4332 22.7396H46.518C46.712 22.7396 46.8842 22.6722 46.944 22.4876L47.2793 21.4848C47.4134 21.072 47.9975 21.0862 48.1314 21.499L48.4667 22.4803C48.5267 22.665 48.6989 22.7396 48.893 22.7396H49.9775C50.4115 22.7396 50.5921 23.3527 50.241 23.6076L49.3631 24.274C49.2062 24.388 49.1407 24.6047 49.2007 24.7892L49.5358 25.8281C49.6698 26.2409 49.1974 26.5877 48.8463 26.3326L47.9688 25.6968C47.8117 25.5826 47.5991 25.5836 47.4418 25.6976L46.5643 26.3357C46.2132 26.5908 45.7408 26.2479 45.8751 25.8351L46.2104 24.8034C46.2702 24.6187 46.2046 24.4168 46.0475 24.3026L45.1696 23.6075C44.8188 23.3525 44.9992 22.7396 45.4332 22.7396Z" fill="url(#paint18_linear_171_395)"/>
<defs>
<linearGradient id="paint0_linear_171_395" x1="40" y1="0" x2="40" y2="80.5926" gradientUnits="userSpaceOnUse">
<stop stop-color="#F8EC20"/>
<stop offset="1" stop-color="#A79F1E"/>
</linearGradient>
<linearGradient id="paint1_linear_171_395" x1="19.251" y1="60.7686" x2="29.8787" y2="59.5029" gradientUnits="userSpaceOnUse">
<stop stop-color="#232524"/>
<stop offset="0.770833" stop-color="#151B27" stop-opacity="0.84"/>
</linearGradient>
<linearGradient id="paint2_linear_171_395" x1="19.251" y1="52.6588" x2="29.8877" y2="51.431" gradientUnits="userSpaceOnUse">
<stop stop-color="#232524"/>
<stop offset="0.770833" stop-color="#151B27" stop-opacity="0.84"/>
</linearGradient>
<linearGradient id="paint3_linear_171_395" x1="32.7192" y1="60.7686" x2="43.1903" y2="59.5404" gradientUnits="userSpaceOnUse">
<stop stop-color="#232524"/>
<stop offset="0.770833" stop-color="#151B27" stop-opacity="0.84"/>
</linearGradient>
<linearGradient id="paint4_linear_171_395" x1="32.7193" y1="52.6588" x2="43.1988" y2="51.4674" gradientUnits="userSpaceOnUse">
<stop stop-color="#232524"/>
<stop offset="0.770833" stop-color="#151B27" stop-opacity="0.84"/>
</linearGradient>
<linearGradient id="paint5_linear_171_395" x1="32.7193" y1="44.6976" x2="43.2028" y2="43.5238" gradientUnits="userSpaceOnUse">
<stop stop-color="#232524"/>
<stop offset="0.770833" stop-color="#151B27" stop-opacity="0.84"/>
</linearGradient>
<linearGradient id="paint6_linear_171_395" x1="46.3218" y1="60.7686" x2="56.479" y2="59.6139" gradientUnits="userSpaceOnUse">
<stop stop-color="#232524"/>
<stop offset="0.770833" stop-color="#151B27" stop-opacity="0.84"/>
</linearGradient>
<linearGradient id="paint7_linear_171_395" x1="46.2603" y1="52.6588" x2="56.74" y2="51.4674" gradientUnits="userSpaceOnUse">
<stop stop-color="#232524"/>
<stop offset="0.770833" stop-color="#151B27" stop-opacity="0.84"/>
</linearGradient>
<linearGradient id="paint8_linear_171_395" x1="46.2603" y1="44.6976" x2="56.744" y2="43.5238" gradientUnits="userSpaceOnUse">
<stop stop-color="#232524"/>
<stop offset="0.770833" stop-color="#151B27" stop-opacity="0.84"/>
</linearGradient>
<linearGradient id="paint9_linear_171_395" x1="46.2603" y1="36.7213" x2="56.74" y2="35.5299" gradientUnits="userSpaceOnUse">
<stop stop-color="#232524"/>
<stop offset="0.770833" stop-color="#151B27" stop-opacity="0.84"/>
</linearGradient>
<linearGradient id="paint10_linear_171_395" x1="46.3217" y1="28.7602" x2="56.4907" y2="27.6567" gradientUnits="userSpaceOnUse">
<stop stop-color="#232524"/>
<stop offset="0.770833" stop-color="#151B27" stop-opacity="0.84"/>
</linearGradient>
<linearGradient id="paint11_linear_171_395" x1="19.251" y1="44.6975" x2="29.8919" y2="43.4878" gradientUnits="userSpaceOnUse">
<stop stop-color="#232524"/>
<stop offset="0.770833" stop-color="#151B27" stop-opacity="0.84"/>
</linearGradient>
<linearGradient id="paint12_linear_171_395" x1="13.4619" y1="40.6452" x2="27.7982" y2="39.0154" gradientUnits="userSpaceOnUse">
<stop stop-color="#232524"/>
<stop offset="0.770833" stop-color="#151B27" stop-opacity="0.84"/>
</linearGradient>
<linearGradient id="paint13_linear_171_395" x1="32.7193" y1="36.7213" x2="43.1988" y2="35.5299" gradientUnits="userSpaceOnUse">
<stop stop-color="#232524"/>
<stop offset="0.770833" stop-color="#151B27" stop-opacity="0.84"/>
</linearGradient>
<linearGradient id="paint14_linear_171_395" x1="26.9014" y1="32.6475" x2="41.2376" y2="31.0177" gradientUnits="userSpaceOnUse">
<stop stop-color="#232524"/>
<stop offset="0.770833" stop-color="#151B27" stop-opacity="0.84"/>
</linearGradient>
<linearGradient id="paint15_linear_171_395" x1="58.2137" y1="19.3074" x2="66.2594" y2="18.756" gradientUnits="userSpaceOnUse">
<stop stop-color="#232524"/>
<stop offset="0.770833" stop-color="#151B27" stop-opacity="0.84"/>
</linearGradient>
<linearGradient id="paint16_linear_171_395" x1="61.1631" y1="28.3067" x2="63.448" y2="28.2497" gradientUnits="userSpaceOnUse">
<stop stop-color="#232524"/>
<stop offset="0.770833" stop-color="#151B27" stop-opacity="0.84"/>
</linearGradient>
<linearGradient id="paint17_linear_171_395" x1="0.0836985" y1="51.2687" x2="74.0844" y2="38.4738" gradientUnits="userSpaceOnUse">
<stop stop-color="#232524"/>
<stop offset="0.770833" stop-color="#151B27" stop-opacity="0.84"/>
</linearGradient>
<linearGradient id="paint18_linear_171_395" x1="40.3389" y1="24.6334" x2="54.6751" y2="23.0036" gradientUnits="userSpaceOnUse">
<stop stop-color="#232524"/>
<stop offset="0.770833" stop-color="#151B27" stop-opacity="0.84"/>
</linearGradient>
</defs>
</svg>
