<svg width="81" height="81" viewBox="0 0 81 81" fill="none" xmlns="http://www.w3.org/2000/svg">
<ellipse cx="40.8224" cy="40.6549" rx="40" ry="40.2073" fill="url(#paint0_linear_7_180)"/>
<path fill-rule="evenodd" clip-rule="evenodd" d="M31.3224 19.658H42.3224C42.8747 19.658 43.3224 20.1058 43.3224 20.658V21.658H30.3224V20.658C30.3224 20.1058 30.7701 19.658 31.3224 19.658ZM45.3224 20.658V21.658H57.3224C59.5316 21.658 61.3224 23.4489 61.3224 25.658V44.658L65.5196 47.4562L67.3224 48.658L66.8708 48.9591V56.6042C67.0706 56.8845 67.222 57.2705 67.2645 57.7944C67.3855 59.2867 66.5083 60.5336 66.0545 60.9705C65.752 60.7016 65.016 59.8513 64.4917 58.601C64.1664 57.8255 64.4581 57.1262 64.8708 56.6188V50.2924L60.8795 52.9533C61.4726 54.1616 62.2229 55.9197 62.7839 57.8833C63.6466 60.9026 63.1641 63.4964 62.7509 64.5294L62.4994 65.158H61.8224C60.8525 65.158 58.4264 65.257 56.5185 65.6386C55.7228 65.7978 54.9033 66.2455 54.1738 66.7945C53.4505 67.3388 52.8855 67.9299 52.6033 68.2827L51.8224 69.2588L51.0415 68.2827C50.7593 67.9299 50.1943 67.3388 49.4711 66.7945C48.7416 66.2455 47.922 65.7978 47.1263 65.6386C45.2184 65.257 42.7924 65.158 41.8224 65.158H41.1454L40.894 64.5294C40.4807 63.4964 39.9982 60.9026 40.8609 57.8833C40.9806 57.4644 41.1089 57.0549 41.2424 56.658H18.3224C16.1133 56.658 14.3224 54.8672 14.3224 52.658V25.658C14.3224 23.4489 16.1133 21.658 18.3224 21.658H28.3224V20.658C28.3224 19.0012 29.6656 17.658 31.3224 17.658H42.3224C43.9793 17.658 45.3224 19.0012 45.3224 20.658ZM52.3224 58.658L59.1997 54.0732C59.7245 55.1711 60.3708 56.7175 60.8609 58.4328C61.4379 60.4524 61.2873 62.2018 61.073 63.1707C59.8221 63.2085 57.8169 63.3393 56.1263 63.6775C54.922 63.9183 53.8249 64.5539 52.9711 65.1965C52.5386 65.522 52.1504 65.8631 51.8224 66.1829C51.4944 65.8631 51.1062 65.522 50.6738 65.1965C49.8199 64.5539 48.7228 63.9183 47.5185 63.6775C45.828 63.3393 43.8228 63.2085 42.5718 63.1707C42.3576 62.2018 42.2069 60.4524 42.784 58.4328C43.3543 56.4366 44.1362 54.6691 44.6919 53.5711L52.3224 58.658ZM39.1252 49.8599L43.017 52.4544C42.7202 53.026 42.3603 53.7797 41.995 54.658H18.3224C17.2178 54.658 16.3224 53.7626 16.3224 52.658V42.658H46.3224L39.1252 47.4562L37.3224 48.658L39.1252 49.8599ZM49.3224 40.658L52.3224 38.658L55.3224 40.658H59.3224V25.658C59.3224 24.5535 58.427 23.658 57.3224 23.658H45.3224H43.3224H30.3224H28.3224H18.3224C17.2178 23.658 16.3224 24.5535 16.3224 25.658V40.658H49.3224ZM58.3224 42.658L59.3224 43.3247V42.658H58.3224ZM40.3224 35.158C40.3224 36.5387 39.2031 37.658 37.8224 37.658C36.4417 37.658 35.3224 36.5387 35.3224 35.158C35.3224 33.7773 36.4417 32.658 37.8224 32.658C39.2031 32.658 40.3224 33.7773 40.3224 35.158ZM40.928 48.658L52.3224 41.0617L63.7169 48.658L52.3224 56.2543L40.928 48.658Z" fill="#2B2D25"/>
<defs>
<linearGradient id="paint0_linear_7_180" x1="40.8224" y1="0.44754" x2="40.8224" y2="80.8622" gradientUnits="userSpaceOnUse">
<stop stop-color="#F8EC20"/>
<stop offset="1" stop-color="#A79F1E"/>
</linearGradient>
</defs>
</svg>
