<svg width="150" height="150" viewBox="0 0 150 150" fill="none" xmlns="http://www.w3.org/2000/svg">
<path d="M82.2069 109.131L129.084 52.8784C130.666 50.9661 131.425 48.5049 131.196 46.0338C130.967 43.5627 129.768 41.283 127.862 39.694C125.956 38.105 123.497 37.3362 121.025 37.5559C118.553 37.7756 116.269 38.9659 114.673 40.8662L75.0011 88.4756L35.3293 40.8662C33.7353 38.9586 31.4493 37.7617 28.9735 37.5384C26.4976 37.3151 24.0343 38.0837 22.1248 39.6754C20.2153 41.2671 19.0156 43.5516 18.7894 46.0272C18.5631 48.5028 19.3288 50.967 20.9182 52.8784L67.796 109.131C68.6772 110.186 69.7792 111.034 71.0243 111.616C72.2693 112.198 73.627 112.5 75.0015 112.5C76.3759 112.5 77.7336 112.198 78.9786 111.616C80.2237 111.034 81.3257 110.186 82.2069 109.131Z" fill="url(#paint0_linear_143_103)"/>
<defs>
<linearGradient id="paint0_linear_143_103" x1="131.236" y1="75.0003" x2="18.7504" y2="75.0003" gradientUnits="userSpaceOnUse">
<stop stop-color="#F8EC20"/>
<stop offset="1" stop-color="#A79F1E"/>
</linearGradient>
</defs>
</svg>
