<svg width="80" height="81" viewBox="0 0 80 81" fill="none" xmlns="http://www.w3.org/2000/svg">
<ellipse cx="40" cy="40.2963" rx="40" ry="40.2963" fill="url(#paint0_linear_171_378)"/>
<path d="M64.1994 37.2333L61.4076 36.6194C60.8813 36.5041 60.4772 36.0903 60.3656 35.5629C59.9237 33.4748 59.1706 31.5025 58.1538 29.6971C57.9052 29.2559 57.9209 28.714 58.1941 28.2874L59.9013 25.6222C60.2488 25.0798 60.1718 24.3688 59.7163 23.9133L56.8835 21.0803C56.428 20.6247 55.7171 20.5479 55.1747 20.8952L52.7918 22.4209C52.3387 22.711 51.7589 22.7071 51.3068 22.4147C49.5549 21.2805 47.6219 20.403 45.5604 19.8344C45.0711 19.6995 44.6969 19.3048 44.5883 18.809L43.9144 15.7239C43.7765 15.0946 43.219 14.6353 42.5749 14.6353H38.5682C37.924 14.6353 37.3668 15.0946 37.2291 15.7239L36.6184 18.5141C36.5038 19.0378 36.0937 19.4472 35.5702 19.5611C33.4883 20.0144 31.5233 20.7806 29.7255 21.806C29.283 22.0581 28.7381 22.0457 28.309 21.771L25.6182 20.0479C25.0758 19.7008 24.3645 19.7779 23.9092 20.2332L21.076 23.0665C20.6205 23.5218 20.5436 24.2332 20.8909 24.7756L22.467 27.2369C22.7557 27.6875 22.7535 28.2638 22.4654 28.715C21.3637 30.4407 20.5096 32.3393 19.953 34.3614C19.8181 34.8513 19.4236 35.2261 18.9271 35.3352L15.7223 36.0357C15.0931 36.1738 14.6367 36.7311 14.6367 37.3752V41.3817C14.6367 42.0259 15.0931 42.5831 15.7223 42.7212L18.6523 43.3624C19.1746 43.477 19.5826 43.8854 19.698 44.4073C20.1462 46.4337 20.8916 48.3488 21.8833 50.1054C22.1329 50.5474 22.1195 51.09 21.8457 51.5175L20.0439 54.3321C19.6964 54.8743 19.7736 55.5854 20.2291 56.0409L23.0623 58.8741C23.5179 59.3294 24.2288 59.4065 24.7712 59.059L27.3274 57.4222C27.7791 57.133 28.3563 57.1362 28.8082 57.4257C30.5028 58.5111 32.3649 59.3574 34.3475 59.9175C34.8338 60.0548 35.2047 60.4478 35.3128 60.9409L36.0315 64.2011C36.1694 64.8302 36.7267 65.2603 37.3708 65.2603H41.3775C42.0217 65.2603 42.5787 64.8302 42.7168 64.2011L43.3615 61.2693C43.4766 60.7442 43.8889 60.3416 44.4143 60.2285C46.447 59.7913 48.3694 59.0595 50.1339 58.0763C50.5745 57.8306 51.1139 57.8469 51.5389 58.1191L54.3275 59.9054C54.8699 60.2529 55.581 60.1759 56.0363 59.7206L58.8697 56.8873C59.3248 56.432 59.4019 55.7209 59.0548 55.1785L57.4682 52.7014C57.1777 52.2473 57.1823 51.6662 57.4759 51.214C58.5938 49.4931 59.4636 47.5961 60.0357 45.5741C60.1734 45.0885 60.5663 44.7184 61.0588 44.6108L64.1991 43.9186C64.8284 43.7807 65.2613 43.2234 65.2613 42.5793V38.5725C65.2616 37.9285 64.8287 37.3713 64.1994 37.2333ZM39.8353 55.79C31.2647 55.79 24.3166 48.842 24.3166 40.2714C24.3166 31.7008 31.2646 24.7528 39.8353 24.7528C48.4059 24.7528 55.3537 31.7008 55.3537 40.2714C55.3537 48.842 48.4059 55.79 39.8353 55.79Z" fill="url(#paint1_linear_171_378)"/>
<path d="M33.8253 38.0895C35.1776 38.0895 36.2736 36.9931 36.2736 35.6412C36.2736 34.2889 35.1777 33.1926 33.8253 33.1926C32.4732 33.1926 31.377 34.2888 31.377 35.6412C31.377 36.9931 32.4731 38.0895 33.8253 38.0895Z" fill="url(#paint2_linear_171_378)"/>
<path d="M46.2706 38.0895C47.6229 38.0895 48.7189 36.9931 48.7189 35.6412C48.7189 34.2889 47.623 33.1926 46.2706 33.1926C44.9185 33.1926 43.8223 34.2888 43.8223 35.6412C43.8223 36.9931 44.9185 38.0895 46.2706 38.0895Z" fill="url(#paint3_linear_171_378)"/>
<path d="M40.0384 39.6673C41.3907 39.6673 42.4869 38.5711 42.4869 37.2188C42.4869 35.8665 41.3907 34.7703 40.0384 34.7703C38.6861 34.7703 37.5898 35.8665 37.5898 37.2188C37.5898 38.5711 38.6861 39.6673 40.0384 39.6673Z" fill="url(#paint4_linear_171_378)"/>
<path d="M39.9492 40.6379C37.3316 40.6379 35.2617 42.7599 35.2617 45.3773V46.3504C35.2617 46.5398 35.4298 46.7188 35.6197 46.7188H44.412C44.6014 46.7188 44.6367 46.5398 44.6367 46.3504V45.3773C44.6367 42.7599 42.5668 40.6379 39.9492 40.6379Z" fill="url(#paint5_linear_171_378)"/>
<path d="M36.9393 40.2741C36.1048 39.532 34.9295 39.0701 33.7256 39.0701C31.1076 39.0701 28.9082 41.1834 28.9082 43.7989V44.7714C28.9082 44.9614 29.2174 45.156 29.4074 45.156H34.1117C34.2157 42.9686 35.318 41.3152 36.9393 40.2741Z" fill="url(#paint6_linear_171_378)"/>
<path d="M46.2504 39.0601C45.0411 39.0601 43.9412 39.5364 43.1055 40.2811C44.7203 41.3215 45.8164 42.9687 45.9204 45.1562H50.6431C50.8329 45.1562 50.9907 44.9616 50.9907 44.7716V43.7991C50.9907 42.4913 50.4592 41.3053 49.6017 40.45C48.7438 39.5896 47.5604 39.0601 46.2504 39.0601Z" fill="url(#paint7_linear_171_378)"/>
<defs>
<linearGradient id="paint0_linear_171_378" x1="40" y1="0" x2="40" y2="80.5926" gradientUnits="userSpaceOnUse">
<stop stop-color="#F8EC20"/>
<stop offset="1" stop-color="#A79F1E"/>
</linearGradient>
<linearGradient id="paint1_linear_171_378" x1="-0.313351" y1="43.6274" x2="78.042" y2="34.7196" gradientUnits="userSpaceOnUse">
<stop stop-color="#232524"/>
<stop offset="0.770833" stop-color="#151B27" stop-opacity="0.84"/>
</linearGradient>
<linearGradient id="paint2_linear_171_378" x1="29.9309" y1="35.997" x2="37.5098" y2="35.1354" gradientUnits="userSpaceOnUse">
<stop stop-color="#232524"/>
<stop offset="0.770833" stop-color="#151B27" stop-opacity="0.84"/>
</linearGradient>
<linearGradient id="paint3_linear_171_378" x1="42.3762" y1="35.997" x2="49.9552" y2="35.1354" gradientUnits="userSpaceOnUse">
<stop stop-color="#232524"/>
<stop offset="0.770833" stop-color="#151B27" stop-opacity="0.84"/>
</linearGradient>
<linearGradient id="paint4_linear_171_378" x1="36.1437" y1="37.5748" x2="43.7232" y2="36.7131" gradientUnits="userSpaceOnUse">
<stop stop-color="#232524"/>
<stop offset="0.770833" stop-color="#151B27" stop-opacity="0.84"/>
</linearGradient>
<linearGradient id="paint5_linear_171_378" x1="32.4932" y1="44.1203" x2="46.753" y2="41.621" gradientUnits="userSpaceOnUse">
<stop stop-color="#232524"/>
<stop offset="0.770833" stop-color="#151B27" stop-opacity="0.84"/>
</linearGradient>
<linearGradient id="paint6_linear_171_378" x1="26.5365" y1="42.5554" x2="38.8504" y2="40.708" gradientUnits="userSpaceOnUse">
<stop stop-color="#232524"/>
<stop offset="0.770833" stop-color="#151B27" stop-opacity="0.84"/>
</linearGradient>
<linearGradient id="paint7_linear_171_378" x1="40.7769" y1="42.5512" x2="52.8775" y2="40.7718" gradientUnits="userSpaceOnUse">
<stop stop-color="#232524"/>
<stop offset="0.770833" stop-color="#151B27" stop-opacity="0.84"/>
</linearGradient>
</defs>
</svg>
