<svg width="24" height="24" viewBox="0 0 24 24" fill="none" xmlns="http://www.w3.org/2000/svg">
<path d="M20 3H4C1.8 3 0 4.8 0 7V17C0 19.2 1.8 21 4 21H20C22.2 21 24 19.2 24 17V7C24 4.8 22.2 3 20 3ZM21.6 8.8L13.7 14.1C13.2 14.4 12.6 14.6 12 14.6C11.4 14.6 10.8 14.4 10.3 14.1L2.4 8.8C2 8.5 1.9 7.9 2.2 7.4C2.5 7 3.1 6.9 3.6 7.2L11.5 12.5C11.8 12.7 12.3 12.7 12.6 12.5L20.5 7.2C21 6.9 21.6 7 21.9 7.5C22.1 7.9 22 8.5 21.6 8.8Z" fill="url(#paint0_linear_161_1459)"/>
<defs>
<linearGradient id="paint0_linear_161_1459" x1="12" y1="3" x2="12" y2="21" gradientUnits="userSpaceOnUse">
<stop stop-color="#F8EC20"/>
<stop offset="1" stop-color="#A79F1E"/>
</linearGradient>
</defs>
</svg>
