<svg width="50" height="50" viewBox="0 0 50 50" fill="none" xmlns="http://www.w3.org/2000/svg">
<path d="M22.1496 47.7684C21.9478 47.7684 21.7429 47.7156 21.5651 47.616L19.7062 46.5463C19.429 46.394 19.5646 46.3412 19.655 46.3119C20.0256 46.1859 20.1009 46.1595 20.4956 45.9397C20.5377 45.9163 20.592 45.9251 20.6342 45.9514L22.0623 46.7749C22.1135 46.8042 22.1858 46.8042 22.234 46.7749L27.7988 43.651C27.85 43.6217 27.8831 43.5631 27.8831 43.5045V37.2566C27.8831 37.195 27.85 37.1394 27.7958 37.1071L22.234 33.9861C22.1828 33.9568 22.1135 33.9568 22.0623 33.9861L16.5035 37.1101C16.4493 37.1394 16.4161 37.198 16.4161 37.2595V43.5045C16.4161 43.5631 16.4493 43.6217 16.5035 43.6481L18.028 44.5038C18.8566 44.9053 19.3627 44.4334 19.3627 43.9558V37.7899C19.3627 37.702 19.435 37.6346 19.5254 37.6346H20.2304C20.3178 37.6346 20.3931 37.702 20.3931 37.7899V43.9587C20.3931 45.0313 19.7905 45.6467 18.7451 45.6467C18.4227 45.6467 18.1696 45.6467 17.4646 45.3067L16.0064 44.4891C15.6448 44.2869 15.4219 43.9089 15.4219 43.5015V37.2566C15.4219 36.8522 15.6448 36.4712 16.0064 36.269L21.5651 33.1451C21.9176 32.9516 22.3846 32.9516 22.7341 33.1451L28.2989 36.2719C28.6605 36.4741 28.8834 36.8522 28.8834 37.2595V43.5045C28.8834 43.9089 28.6605 44.2869 28.2989 44.492L22.7341 47.616C22.5564 47.7156 22.3545 47.7684 22.1496 47.7684ZM26.6418 41.6113C26.6418 40.4421 25.8284 40.1314 24.1201 39.9116C22.3907 39.6889 22.2159 39.5746 22.2159 39.1819C22.2159 38.8567 22.3635 38.4229 23.644 38.4229C24.7859 38.4229 25.2077 38.6632 25.3824 39.4134C25.3975 39.4838 25.4638 39.5365 25.5391 39.5365H26.2622C26.3074 39.5365 26.3496 39.5189 26.3797 39.4867C26.4098 39.4545 26.4249 39.4105 26.4219 39.3666C26.3104 38.0742 25.4276 37.4734 23.644 37.4734C22.0562 37.4734 21.1102 38.124 21.1102 39.2171C21.1102 40.401 22.0532 40.7293 23.5747 40.8758C25.3975 41.0487 25.5391 41.3095 25.5391 41.6582C25.5391 42.2619 25.039 42.5198 23.867 42.5198C22.3937 42.5198 22.0713 42.1593 21.9628 41.4472C21.9508 41.371 21.8845 41.3154 21.8032 41.3154H21.0831C20.9927 41.3154 20.9234 41.3857 20.9234 41.4707C20.9234 42.3821 21.4326 43.4693 23.87 43.4693C25.6295 43.4664 26.6418 42.7894 26.6418 41.6113Z" fill="url(#paint0_linear_470_11)"/>
<path d="M18.833 23.7021H7.20752V19.9922H18.833V23.7021ZM20.4897 32H7.20752C6.69775 32 6.14079 31.9103 5.53662 31.731C4.93245 31.5516 4.37077 31.259 3.85156 30.853C3.3418 30.4377 2.91227 29.9043 2.56299 29.2529C2.22314 28.5921 2.05322 27.785 2.05322 26.8315V13.5493C2.05322 13.2944 2.10042 13.0537 2.19482 12.8271C2.28923 12.6006 2.41667 12.4023 2.57715 12.2324C2.74707 12.0625 2.94531 11.9303 3.17188 11.8359C3.39844 11.7415 3.64388 11.6943 3.9082 11.6943H20.4897V15.376H5.73486V26.8315C5.73486 27.313 5.8623 27.6812 6.11719 27.936C6.37207 28.1909 6.74495 28.3184 7.23584 28.3184H20.4897V32ZM42.5853 16.6929L35.9725 23.9146L43.4207 32H38.3514L33.452 26.6616L28.5525 32H23.469L30.9031 23.8862L24.3187 16.6929H29.3597L33.4236 21.125L37.5159 16.6929H42.5853Z" fill="url(#paint1_linear_470_11)"/>
<defs>
<linearGradient id="paint0_linear_470_11" x1="22.1526" y1="33" x2="22.1526" y2="47.7684" gradientUnits="userSpaceOnUse">
<stop stop-color="#F8EC20"/>
<stop offset="1" stop-color="#A79F1E"/>
</linearGradient>
<linearGradient id="paint1_linear_470_11" x1="25" y1="0" x2="25" y2="50" gradientUnits="userSpaceOnUse">
<stop stop-color="#F8EC20"/>
<stop offset="1" stop-color="#A79F1E"/>
</linearGradient>
</defs>
</svg>
