<svg width="80" height="81" viewBox="0 0 80 81" fill="none" xmlns="http://www.w3.org/2000/svg">
<ellipse cx="40" cy="40.2963" rx="40" ry="40.2963" fill="url(#paint0_linear_171_313)"/>
<g clip-path="url(#clip0_171_313)">
<path d="M64 45.4724V35.3354H59.349C58.789 33.1217 57.889 31.0494 56.681 29.1947L59.799 26.0231L54.143 20.2708L51.024 23.4433C49.21 22.2211 47.184 21.309 45.02 20.7395V16H34.979V20.7395C32.767 21.3222 30.695 22.2587 28.85 23.5206L25.857 20.4762L20.201 26.2285L23.243 29.3218C22.08 31.1358 21.207 33.1512 20.66 35.3039H16V45.5039H20.66C21.22 47.7054 22.118 49.7676 23.32 51.6142L20.202 54.7847L25.858 60.536L28.977 57.3655C30.796 58.5908 32.83 59.5049 35 60.0744V64.8088H45V60.0754C47.123 59.5182 49.11 58.6284 50.898 57.4438L54.143 60.7414L59.799 54.9901L56.605 51.7423C57.853 49.856 58.777 47.7369 59.349 45.4734H64V45.4724ZM40 56.674C31.164 56.674 24 49.3893 24 40.4044C24 31.4185 31.164 24.1348 40 24.1348C48.837 24.1348 56 31.4185 56 40.4044C56 49.3893 48.837 56.674 40 56.674Z" fill="url(#paint1_linear_171_313)"/>
<path d="M40 31.2528C35.029 31.2528 31 35.3497 31 40.4045C31 45.4592 35.029 49.5561 40 49.5561C44.971 49.5561 49 45.4592 49 40.4045C49 35.3497 44.971 31.2528 40 31.2528ZM40 45.4887C37.238 45.4887 35 43.213 35 40.4045C35 37.5969 37.238 35.3202 40 35.3202C42.762 35.3202 45 37.5969 45 40.4045C45 43.213 42.762 45.4887 40 45.4887Z" fill="url(#paint2_linear_171_313)"/>
</g>
<defs>
<linearGradient id="paint0_linear_171_313" x1="40" y1="0" x2="40" y2="80.5926" gradientUnits="userSpaceOnUse">
<stop stop-color="#F8EC20"/>
<stop offset="1" stop-color="#A79F1E"/>
</linearGradient>
<linearGradient id="paint1_linear_171_313" x1="1.825" y1="43.9521" x2="76.1493" y2="35.6425" gradientUnits="userSpaceOnUse">
<stop stop-color="#232524"/>
<stop offset="0.770833" stop-color="#151B27" stop-opacity="0.84"/>
</linearGradient>
<linearGradient id="paint2_linear_171_313" x1="25.6844" y1="41.7348" x2="53.556" y2="38.6187" gradientUnits="userSpaceOnUse">
<stop stop-color="#232524"/>
<stop offset="0.770833" stop-color="#151B27" stop-opacity="0.84"/>
</linearGradient>
<clipPath id="clip0_171_313">
<rect width="48" height="48.8088" fill="white" transform="translate(16 16)"/>
</clipPath>
</defs>
</svg>
