<svg width="24" height="24" viewBox="0 0 24 24" fill="none" xmlns="http://www.w3.org/2000/svg">
<g clip-path="url(#clip0_659_116)">
<path fill-rule="evenodd" clip-rule="evenodd" d="M18.5388 7.33365C17.2112 6.56612 15.781 5.99241 14.2802 5.62281C12.8637 5.27528 11.4012 5.11108 9.92491 5.12147H9.90349H9.85292H9.82842L9.77936 5.12293L9.70731 5.12449H9.67816L9.63375 5.1259C8.33987 5.68782 7.24532 6.60165 6.47882 7.73873C5.7307 8.84926 5.29534 10.1757 5.29534 11.6011C5.29534 11.8392 5.30605 12.0683 5.32914 12.2901C5.35062 12.515 5.38583 12.7412 5.43186 12.9659C5.43954 13.0029 5.4364 13.0443 5.4165 13.0813L4 15.944C4.21154 16.0875 4.41854 16.2043 4.62089 16.3004C4.85997 16.4127 5.09764 16.4971 5.33066 16.5577C5.41038 16.5784 5.46858 16.6494 5.46858 16.7337C5.46858 18.6738 5.58358 19.657 6.08488 20.1065C6.57547 20.5472 7.51209 20.5176 9.1371 20.42L9.1616 20.4186C9.26583 20.4186 9.35021 20.5 9.35021 20.6005V24L17.5854 23.8359L17.6283 16.9229C17.6268 16.8726 17.6452 16.821 17.6865 16.784C18.4178 16.123 19.0096 15.3215 19.4127 14.424C19.8006 13.5604 20.0167 12.6052 20.0167 11.6012C20.0167 10.7775 19.8711 9.98781 19.6043 9.25445C19.3528 8.55797 18.9895 7.9118 18.5388 7.33365ZM14.8121 2.64022C13.4294 2.29863 11.9653 2.22027 10.417 2.4214L10.0844 3.62062L10.0829 3.62501V3.62939L9.76859 4.76063H9.81149L9.84064 4.75922H9.88667H9.9142H9.96175H9.98782C11.4533 4.75176 12.8821 4.89821 14.2664 5.22503C15.7289 5.57105 17.1407 6.11528 18.4929 6.88563C18.5128 6.87968 18.5343 6.8753 18.5557 6.87676C18.6415 6.52923 18.706 6.19067 18.7688 5.85493C18.8454 5.45726 18.9205 5.05943 19.0278 4.64976C17.6328 3.65605 16.2255 2.99949 14.8121 2.64022ZM10.0858 2.21135L10.0875 2.20842L10.089 2.20545V2.20242L10.0905 2.20096V2.19955V2.19804L10.092 2.19663V2.19366H10.0935V2.19063V2.18917L10.095 2.18776V2.18625L10.0965 2.18484V2.18333L10.0982 2.18035L10.0997 2.17889V2.17743L10.1012 2.17451L10.1027 2.17295V2.17154L10.1042 2.17008V2.16861L10.1057 2.16721L10.1074 2.16569V2.16418L10.1089 2.16277V2.16105L10.1104 2.15964L10.1119 2.15818V2.15672L10.1134 2.15531L10.1149 2.15374V2.15218L10.1164 2.15077H10.1181L10.1196 2.1478L10.1211 2.14482L10.1241 2.1418L10.1256 2.14034L10.1272 2.13741H10.1288L10.1303 2.13439L10.1318 2.13293L10.1333 2.13147L10.1348 2.13006H10.1363L10.138 2.12854V2.12714L10.1395 2.12567H10.141L10.1425 2.12411L10.144 2.1227L10.1455 2.12124V2.11978H10.1471L10.1487 2.11837L10.1502 2.11691L10.1517 2.11534H10.1532L10.1547 2.11394L10.1579 2.11096L10.1609 2.10955L10.1639 2.10804L10.167 2.10663L10.1686 2.10355H10.1701L10.1716 2.10214H10.1731L10.1746 2.10068H10.1762L10.1777 2.09922H10.1793L10.1808 2.09781H10.1823L10.1838 2.09635H10.1854L10.1869 2.09479H10.1885L10.19 2.09338L10.193 2.09192H10.1946L10.1976 2.09046L10.2007 2.089H10.2037L10.2053 2.08754H10.2068H10.2083L10.2099 2.08602H10.2114H10.2129L10.2145 2.08456H10.2175H10.2191L10.2206 2.0831H10.2221H10.2237L10.2252 2.08169H10.2267H10.2298H10.2313L10.2328 2.08023H10.2344H10.2359H10.2374H10.239L10.242 2.07877H10.2436H10.2466H10.2512L10.3049 2.0699C11.8241 1.84806 13.3341 1.89981 14.8333 2.27098L14.9332 2.29566L15.0742 2.33265C16.5888 2.73037 18.0114 3.43577 19.3466 4.42791C19.3603 4.43532 19.3726 4.44571 19.3818 4.4575L19.3834 4.45891L19.3864 4.46198L19.3972 4.47524V4.47664L19.3986 4.47816L19.4002 4.47967C19.4094 4.49292 19.4155 4.50769 19.4201 4.52251H19.4216C19.4323 4.55501 19.434 4.59054 19.4231 4.62445C19.3634 4.84192 19.325 5.04153 19.2867 5.24115L19.2469 5.45105L20.9194 4.42337L15.5861 0.424901L8.89629 1.31531L9.84675 3.07498L10.0858 2.21135ZM11.6863 10.0544C11.2187 9.69808 10.7665 9.41113 10.3587 9.20864C9.67659 8.86705 9.1477 8.75754 8.93464 8.96316C8.72158 9.16867 8.83496 9.67883 9.18913 10.3368C9.39916 10.7287 9.69806 11.1649 10.0659 11.6174C10.3036 11.3468 10.5642 11.0748 10.8432 10.8055C11.1238 10.535 11.4058 10.2836 11.6863 10.0544ZM12.2811 13.7527C12.7487 14.109 13.2009 14.3959 13.6072 14.6C14.2893 14.9416 14.8197 15.0495 15.0313 14.844C15.2443 14.6385 15.1325 14.1282 14.7784 13.4702C14.5668 13.0784 14.2694 12.6422 13.9 12.1911C13.6623 12.4603 13.4032 12.7338 13.1227 13.003C12.8437 13.2735 12.5617 13.5234 12.2811 13.7527ZM11.11 12.7457C11.3996 13.0266 11.694 13.2854 11.9837 13.5205C12.2734 13.2854 12.5662 13.0266 12.8575 12.7457C13.1472 12.4662 13.4155 12.1837 13.6592 11.9043C13.4155 11.6248 13.1472 11.3408 12.8575 11.0613C12.5662 10.7819 12.2734 10.5217 11.9837 10.288C11.694 10.5217 11.3997 10.7819 11.11 11.0613C10.8202 11.3408 10.5504 11.6248 10.3081 11.9043C10.5504 12.1823 10.8186 12.4662 11.11 12.7457ZM12.2811 10.0544C12.5617 10.2836 12.8437 10.535 13.1227 10.8041C13.4033 11.0732 13.6624 11.3468 13.9 11.6174C14.2694 11.1649 14.5668 10.7287 14.7784 10.3368C15.1278 9.6877 15.2429 9.18051 15.039 8.97046L15.0313 8.96311C14.8197 8.75749 14.2892 8.867 13.6071 9.20858C13.2009 9.41112 12.7487 9.69808 12.2811 10.0544ZM9.8222 11.9043C9.41442 11.4118 9.08642 10.9327 8.85491 10.5025C8.42258 9.69949 8.32608 9.03704 8.66787 8.70578C9.01129 8.37604 9.69806 8.46776 10.532 8.88625C10.978 9.10956 11.4732 9.42599 11.9837 9.81777C12.4942 9.42594 12.9894 9.10956 13.4354 8.88625C14.2694 8.46776 14.9561 8.37604 15.2981 8.70578L15.3103 8.71919C15.6384 9.05331 15.5388 9.70987 15.1126 10.5039C14.8811 10.9327 14.5515 11.4118 14.1453 11.9043C14.5515 12.3967 14.8811 12.8743 15.1126 13.3046C15.5449 14.1075 15.64 14.77 15.2981 15.0997C14.9562 15.4324 14.2695 15.3393 13.4355 14.9223C12.9894 14.6976 12.4943 14.3811 11.9838 13.9892C11.4733 14.3811 10.9781 14.6976 10.532 14.9223C9.69812 15.3393 9.01129 15.4324 8.66793 15.1012C8.32614 14.7715 8.42269 14.1075 8.85497 13.3046C9.0849 12.8743 9.41442 12.3967 9.8222 11.9043ZM10.8432 13.003C10.5643 12.7339 10.3036 12.4603 10.0659 12.1897C9.69801 12.6422 9.40068 13.0784 9.18913 13.4717C8.83501 14.1282 8.72158 14.6384 8.93464 14.844C9.1477 15.0495 9.67659 14.9416 10.3587 14.6C10.7665 14.3959 11.2172 14.109 11.6863 13.7527C11.4058 13.5234 11.1238 13.2735 10.8432 13.003ZM15.9618 11.2892C15.9787 11.2729 15.9894 11.2492 15.9894 11.2241C15.9894 11.2004 15.9787 11.1768 15.9618 11.1604C15.9449 11.1442 15.9205 11.1339 15.8943 11.1339C15.8699 11.1339 15.8453 11.1442 15.8284 11.1604C15.8116 11.1768 15.8008 11.1989 15.8008 11.2241C15.8008 11.2493 15.8116 11.2729 15.8284 11.2877C15.8453 11.3039 15.8699 11.3143 15.8943 11.3143C15.922 11.3142 15.9449 11.3054 15.9618 11.2892ZM16.365 11.2241C16.365 11.3483 16.3128 11.4621 16.227 11.5449C16.1411 11.6277 16.0247 11.6779 15.8943 11.6779C15.7656 11.6779 15.6476 11.6277 15.5617 11.5449C15.4774 11.4636 15.4253 11.3498 15.4253 11.2241C15.4253 11.0998 15.4775 10.986 15.5617 10.9046C15.6492 10.8219 15.7656 10.7702 15.8943 10.7702C16.0247 10.7702 16.1428 10.8219 16.227 10.9032C16.3128 10.986 16.365 11.0998 16.365 11.2241ZM7.95654 12.4529C7.91516 12.4913 7.89066 12.5446 7.89066 12.6052C7.89066 12.6614 7.91213 12.7131 7.94735 12.7501L7.95654 12.7575C7.99641 12.7974 8.05314 12.821 8.11443 12.821C8.17577 12.821 8.23245 12.7974 8.27226 12.7575C8.31213 12.7191 8.3382 12.6643 8.3382 12.6052C8.3382 12.546 8.31213 12.4913 8.27226 12.4529C8.2324 12.413 8.17571 12.3892 8.11443 12.3892C8.05158 12.3892 7.99641 12.413 7.95654 12.4529ZM7.51349 12.6052C7.51349 12.4455 7.581 12.302 7.68983 12.1971C7.80022 12.0906 7.94886 12.0256 8.11448 12.0256C8.28005 12.0256 8.43026 12.0906 8.53914 12.1956C8.64791 12.3006 8.71536 12.4455 8.71536 12.6052C8.71536 12.765 8.64786 12.9113 8.53914 13.0148C8.43026 13.1199 8.28 13.1849 8.11448 13.1849C7.94886 13.1849 7.79871 13.1199 7.68983 13.0148L7.6776 13.0015C7.57645 12.8979 7.51349 12.7575 7.51349 12.6052ZM12.4865 11.4192C12.3578 11.295 12.18 11.2181 11.9837 11.2181C11.7859 11.2181 11.6082 11.295 11.4809 11.4178C11.3521 11.542 11.2724 11.7135 11.2724 11.9043C11.2724 12.0935 11.3521 12.2651 11.4809 12.3892C11.6097 12.512 11.7875 12.589 11.9837 12.589C12.1799 12.589 12.3578 12.5135 12.4865 12.3892C12.6153 12.2651 12.6935 12.0935 12.6935 11.9043C12.6935 11.7135 12.6153 11.542 12.4865 11.4192ZM11.9837 10.8544C12.2826 10.8544 12.554 10.9727 12.7517 11.162C12.9494 11.3526 13.0706 11.6144 13.0706 11.9043C13.0706 12.1926 12.9495 12.4543 12.7517 12.645C12.554 12.8358 12.2826 12.9527 11.9837 12.9527C11.6833 12.9527 11.4104 12.8359 11.2141 12.645C11.0179 12.4558 10.8952 12.194 10.8952 11.9043C10.8952 11.6145 11.0178 11.3527 11.2141 11.1634C11.4119 10.9712 11.6848 10.8544 11.9837 10.8544ZM12.5893 7.83927C12.6705 7.77865 12.79 7.792 12.8529 7.87188C12.9157 7.95025 12.9004 8.0656 12.8191 8.12623L12.1094 8.65408C12.0757 8.68361 12.0312 8.7014 11.9837 8.7014C11.9346 8.7014 11.8902 8.68361 11.8564 8.65408L11.1481 8.12623C11.0654 8.0656 11.0501 7.95025 11.1145 7.87188C11.1773 7.792 11.2954 7.77865 11.3781 7.83927L11.7951 8.14981V5.95839C11.7951 5.85785 11.8795 5.77651 11.9837 5.77651C12.0879 5.77651 12.1722 5.8579 12.1722 5.95839V8.14981L12.5893 7.83927ZM12.8191 15.6558C12.9004 15.7163 12.9157 15.8317 12.8529 15.91C12.79 15.9884 12.6705 16.0032 12.5893 15.9426L12.1722 15.6321V17.8235C12.1722 17.9241 12.0879 18.0054 11.9837 18.0054C11.8795 18.0054 11.7952 17.924 11.7952 17.8235V15.6321L11.3782 15.9426C11.2954 16.0032 11.1774 15.9884 11.1145 15.91C11.0502 15.8317 11.0654 15.7163 11.1482 15.6558L11.8565 15.1279C11.8903 15.0983 11.9347 15.0805 11.9837 15.0805C12.0312 15.0805 12.0757 15.0983 12.1094 15.1279L12.8191 15.6558ZM10.6791 23.3952C10.5764 23.3967 10.4905 23.3169 10.489 23.2178C10.486 23.1188 10.5687 23.0344 10.6715 23.033L16.0231 22.9309C16.1258 22.9295 16.2116 23.0078 16.2131 23.1084C16.2163 23.2074 16.1335 23.2902 16.0307 23.2933L10.6791 23.3952ZM10.6791 22.2183C10.5764 22.2197 10.4905 22.1414 10.489 22.0408C10.486 21.9418 10.5687 21.859 10.6715 21.8559L16.0231 21.7539C16.1258 21.7525 16.2116 21.8323 16.2131 21.9314C16.2163 22.0319 16.1335 22.1148 16.0307 22.1162L10.6791 22.2183ZM16.1519 0.323004C16.0707 0.260969 16.0569 0.147073 16.1212 0.0687073C16.1857 -0.00965838 16.3036 -0.0229628 16.3849 0.0391245L20.9288 3.4978C21.01 3.55989 21.0239 3.67379 20.9594 3.75215C20.8965 3.83052 20.7785 3.84382 20.6972 3.78168L16.1519 0.323004Z" fill="url(#paint0_linear_659_116)"/>
</g>
<defs>
<linearGradient id="paint0_linear_659_116" x1="12.5" y1="2.28882e-05" x2="12.5" y2="24" gradientUnits="userSpaceOnUse">
<stop stop-color="#F8EC20"/>
<stop offset="1" stop-color="#A79F1E"/>
</linearGradient>
<clipPath id="clip0_659_116">
<rect width="24" height="24" fill="white"/>
</clipPath>
</defs>
</svg>
