<svg width="80" height="81" viewBox="0 0 80 81" fill="none" xmlns="http://www.w3.org/2000/svg">
<ellipse cx="40" cy="40.2963" rx="40" ry="40.2963" fill="url(#paint0_linear_171_369)"/>
<path d="M25.4727 17.6562H26.8598L26.8666 22.9824C26.8671 23.338 27.1555 23.6979 27.5112 23.6979C27.5114 23.6979 27.5116 23.6979 27.5121 23.6979C27.8681 23.6979 28.1562 23.3365 28.1558 22.9807L28.1489 17.6562H29.5308C29.7564 17.6562 29.9562 17.6047 30.0401 17.3956C30.1241 17.1864 30.0728 16.9926 29.9097 16.8369L27.8806 14.9194C27.6682 14.7168 27.3356 14.7268 27.123 14.93L25.0938 16.8737C24.9309 17.0293 24.8798 17.184 24.9636 17.3932C25.0475 17.6023 25.2473 17.6562 25.4727 17.6562Z" fill="url(#paint1_linear_171_369)"/>
<path d="M51.6471 24.9609C51.2909 24.9609 51.0742 25.2493 51.0742 25.6055V27.5556C51.2826 27.497 51.8034 27.4455 52.2201 27.4008V25.6056C52.2201 25.2493 52.0034 24.9609 51.6471 24.9609Z" fill="url(#paint2_linear_171_369)"/>
<path d="M49.7114 17.6562H51.0987L51.1054 22.9824C51.1058 23.338 51.3943 23.6979 51.75 23.6979C51.7502 23.6979 51.7506 23.6979 51.7508 23.6979C52.1069 23.6979 52.395 23.3365 52.3946 22.9807L52.3878 17.6562H53.7697C53.9951 17.6562 54.1675 17.6049 54.2513 17.3958C54.3354 17.1866 54.4066 17.0088 54.0941 16.8532V16.866L52.0923 14.934C51.8797 14.7312 51.5605 14.7342 51.348 14.9373L49.3259 16.8772C49.1628 17.0328 49.1149 17.1854 49.1988 17.395C49.2826 17.6041 49.486 17.6562 49.7114 17.6562Z" fill="url(#paint3_linear_171_369)"/>
<path d="M42.8628 20.4874L41.9269 17.6072C41.8783 17.4573 41.9316 17.2932 42.0592 17.2007L44.5092 15.3569C44.7942 15.1498 44.648 14.6355 44.2956 14.6355H41.267C41.1095 14.6355 40.9698 14.5976 40.9212 14.4479L39.9854 11.5995C39.8765 11.2644 39.4025 11.2803 39.2936 11.6153L38.3578 14.44C38.3091 14.5898 38.1693 14.6355 38.0119 14.6355H34.9834C34.6312 14.6355 34.4847 15.1498 34.7697 15.3569L37.2199 17.1691C37.3475 17.2614 37.4007 17.4414 37.3519 17.5914L36.4161 20.4796C36.3073 20.8147 36.6908 21.0973 36.9758 20.8901L39.4259 19.112C39.5533 19.0194 39.7258 19.0204 39.8534 19.1131L42.3035 20.8935C42.5883 21.1006 42.9716 20.8225 42.8628 20.4874Z" fill="url(#paint4_linear_171_369)"/>
<path d="M60.6461 56.5482C60.7395 56.5582 60.7775 56.5633 60.8708 56.5633C62.2207 56.5633 63.2603 55.463 63.2603 54.113V30.4638C63.052 30.4386 62.5311 30.4158 62.3228 30.3981V28.8704C62.3228 28.1299 61.7826 27.5111 61.0489 27.4362C59.2889 27.2558 55.9555 27.0307 52.3345 27.4008C51.9078 27.4456 51.481 27.4971 51.0497 27.5556C47.0279 28.1251 42.929 29.5008 40.3464 32.5243C40.3457 32.5251 40.3438 32.5259 40.3438 32.5267V60.8211C40.5521 60.7272 41.0843 60.5487 41.4057 60.293C43.3059 58.7841 47.679 56.2527 55.7315 56.2527C57.3011 56.2528 58.9504 56.3537 60.6461 56.5482ZM44.3443 35.4295C48.2947 33.2426 52.3879 32.4633 57.227 32.9769C57.5809 33.0145 57.8373 33.3317 57.7999 33.6859C57.7625 34.0397 57.4457 34.2951 57.0908 34.2588C52.5282 33.7738 48.6761 34.5046 44.9686 36.5572C44.8696 36.6119 44.7625 36.6379 44.657 36.6379C44.4301 36.6379 44.2102 36.5181 44.0926 36.3055C43.9201 35.9941 44.0328 35.6018 44.3443 35.4295ZM44.3443 40.0322C48.2947 37.8453 52.3879 37.0655 57.227 37.5796C57.5809 37.6172 57.8373 37.9346 57.7999 38.2886C57.7625 38.6424 57.4457 38.8978 57.0908 38.8616C52.5282 38.3766 48.6761 39.1075 44.9686 41.1599C44.8696 41.2146 44.7625 41.2406 44.657 41.2406C44.4301 41.2406 44.2102 41.1208 44.0926 40.9082C43.9201 40.5968 44.0328 40.2045 44.3443 40.0322ZM44.3443 44.6348C48.2947 42.4481 52.3879 41.6682 57.227 42.1822C57.5809 42.2198 57.8373 42.5372 57.7999 42.8912C57.7625 43.245 57.4457 43.5004 57.0908 43.4642C52.5282 42.9792 48.6761 43.7101 44.9686 45.7625C44.8696 45.8174 44.7625 45.8432 44.657 45.8432C44.4301 45.8432 44.2102 45.7234 44.0926 45.5108C43.9201 45.1994 44.0328 44.8071 44.3443 44.6348ZM44.9686 50.3652C44.8696 50.4201 44.7625 50.4461 44.657 50.4461C44.4301 50.4461 44.2102 50.3261 44.0926 50.1135C43.9201 49.8021 44.0328 49.41 44.3443 49.2377C48.2947 47.0508 52.3879 46.2711 57.227 46.7849C57.5809 46.8225 57.8373 47.1399 57.7999 47.494C57.7625 47.848 57.4457 48.1029 57.0908 48.0669C52.5283 47.5818 48.6761 48.3128 44.9686 50.3652Z" fill="url(#paint5_linear_171_369)"/>
<path d="M28.1562 27.5365V25.6055C28.1562 25.2493 27.7833 24.9609 27.4271 24.9609C27.0708 24.9609 26.6979 25.2493 26.6979 25.6055V27.2395C26.6979 27.2395 26.8565 27.2395 26.8559 27.2395C23.2654 27.0311 19.9498 27.1784 18.2038 27.3589C17.4701 27.4337 16.9062 28.1297 16.9062 28.8702V30.3979C16.4896 30.4156 16.1771 30.4384 15.9688 30.4636V54.1127C15.9688 55.4628 17.0373 56.563 18.3874 56.563C18.4834 56.563 18.5621 56.5579 18.6555 56.5479C20.3512 56.3534 21.9995 56.2525 23.5716 56.2525C31.6215 56.2525 35.951 58.7839 37.8512 60.2928C38.1721 60.5477 38.6771 60.7259 38.8854 60.8205V32.4868C36.2812 29.4429 32.1146 28.0992 28.1562 27.5365ZM35.0513 50.1133C34.9334 50.3259 34.7135 50.4459 34.4867 50.4459C34.381 50.4459 34.2741 50.4199 34.1752 50.365C30.4677 48.3126 26.6158 47.5824 22.053 48.0667C21.6982 48.1025 21.3817 47.8477 21.344 47.4937C21.3062 47.1398 21.5629 46.8224 21.9169 46.7847C26.7564 46.2716 30.849 47.0504 34.7996 49.2375C35.1109 49.4098 35.2236 49.8019 35.0513 50.1133ZM35.0513 45.5106C34.9334 45.7232 34.7135 45.843 34.4867 45.843C34.381 45.843 34.2741 45.8172 34.1752 45.7623C30.4677 43.7099 26.6158 42.9799 22.053 43.464C21.6982 43.4996 21.3817 43.245 21.344 42.891C21.3062 42.5371 21.5629 42.2197 21.9169 42.182C26.7564 41.6686 30.849 42.4475 34.7996 44.6346C35.1109 44.8069 35.2236 45.1992 35.0513 45.5106ZM35.0513 40.908C34.9334 41.1206 34.7135 41.2404 34.4867 41.2404C34.381 41.2404 34.2741 41.2144 34.1752 41.1597C30.4677 39.1073 26.6158 38.3769 22.053 38.8614C21.6982 38.897 21.3817 38.6424 21.344 38.2884C21.3062 37.9345 21.5629 37.6171 21.9169 37.5794C26.7564 37.0665 30.849 37.8451 34.7996 40.032C35.1109 40.2043 35.2236 40.5966 35.0513 40.908ZM35.0513 36.3053C34.9334 36.5179 34.7135 36.6377 34.4867 36.6377C34.381 36.6377 34.2741 36.6117 34.1752 36.557C30.4677 34.5046 26.6158 33.7744 22.053 34.2586C21.6982 34.2945 21.3817 34.0397 21.344 33.6857C21.3064 33.3316 21.5629 33.0144 21.9169 32.9767C26.7564 32.4635 30.849 33.2424 34.7996 35.4293C35.1109 35.6016 35.2236 35.9939 35.0513 36.3053Z" fill="url(#paint6_linear_171_369)"/>
<path d="M63.3517 58.5735C52.5424 57.4317 46.0349 59.8438 42.6387 61.9271H63.1792C64.1541 61.9271 64.9279 61.2023 64.9279 60.2276V57.1714C64.928 58.0244 64.2001 58.6621 63.3517 58.5735Z" fill="url(#paint7_linear_171_369)"/>
<path d="M15.9045 58.5735C15.0561 58.6622 14.3027 58.0244 14.3027 57.1714V60.2276C14.3027 61.2023 15.1227 61.9271 16.0978 61.9271H36.6384C33.2447 59.8438 26.7139 57.4317 15.9045 58.5735Z" fill="url(#paint8_linear_171_369)"/>
<defs>
<linearGradient id="paint0_linear_171_369" x1="40" y1="0" x2="40" y2="80.5926" gradientUnits="userSpaceOnUse">
<stop stop-color="#F8EC20"/>
<stop offset="1" stop-color="#A79F1E"/>
</linearGradient>
<linearGradient id="paint1_linear_171_369" x1="23.4012" y1="19.8839" x2="31.4501" y2="19.3553" gradientUnits="userSpaceOnUse">
<stop stop-color="#232524"/>
<stop offset="0.770833" stop-color="#151B27" stop-opacity="0.84"/>
</linearGradient>
<linearGradient id="paint2_linear_171_369" x1="50.7358" y1="26.4469" x2="52.5277" y2="26.3569" gradientUnits="userSpaceOnUse">
<stop stop-color="#232524"/>
<stop offset="0.770833" stop-color="#151B27" stop-opacity="0.84"/>
</linearGradient>
<linearGradient id="paint3_linear_171_369" x1="47.6329" y1="19.8886" x2="55.6955" y2="19.3575" gradientUnits="userSpaceOnUse">
<stop stop-color="#232524"/>
<stop offset="0.770833" stop-color="#151B27" stop-opacity="0.84"/>
</linearGradient>
<linearGradient id="paint4_linear_171_369" x1="31.654" y1="16.8587" x2="47.1766" y2="15.0147" gradientUnits="userSpaceOnUse">
<stop stop-color="#232524"/>
<stop offset="0.770833" stop-color="#151B27" stop-opacity="0.84"/>
</linearGradient>
<linearGradient id="paint5_linear_171_369" x1="33.5762" y1="46.4549" x2="69.2898" y2="43.6874" gradientUnits="userSpaceOnUse">
<stop stop-color="#232524"/>
<stop offset="0.770833" stop-color="#151B27" stop-opacity="0.84"/>
</linearGradient>
<linearGradient id="paint6_linear_171_369" x1="9.20117" y1="45.4972" x2="44.9408" y2="42.9006" gradientUnits="userSpaceOnUse">
<stop stop-color="#232524"/>
<stop offset="0.770833" stop-color="#151B27" stop-opacity="0.84"/>
</linearGradient>
<linearGradient id="paint7_linear_171_369" x1="36.0564" y1="59.8949" x2="63.2738" y2="45.3927" gradientUnits="userSpaceOnUse">
<stop stop-color="#232524"/>
<stop offset="0.770833" stop-color="#151B27" stop-opacity="0.84"/>
</linearGradient>
<linearGradient id="paint8_linear_171_369" x1="7.70675" y1="59.8949" x2="34.9557" y2="45.3457" gradientUnits="userSpaceOnUse">
<stop stop-color="#232524"/>
<stop offset="0.770833" stop-color="#151B27" stop-opacity="0.84"/>
</linearGradient>
</defs>
</svg>
