<svg width="80" height="81" viewBox="0 0 80 81" fill="none" xmlns="http://www.w3.org/2000/svg">
<ellipse cx="40" cy="40.2963" rx="40" ry="40.2963" fill="url(#paint0_linear_171_373)"/>
<path d="M32.7832 47.543L34.8998 54.5099L37.9239 51.9802L33.5597 46.9375L32.7832 47.543Z" fill="url(#paint1_linear_171_373)"/>
<path d="M49.0977 50.0844C48.1106 49.5603 46.9103 48.9229 45.5035 48.1344L43.2363 55.5913C43.1843 55.7623 43.052 55.8957 42.8834 55.947C42.8602 55.954 42.8369 55.9589 42.8133 55.9627C42.8054 55.964 42.7977 55.9644 42.7898 55.9652C42.774 55.9671 42.7585 55.9683 42.7427 55.9688C42.7391 55.9688 42.7356 55.9695 42.7319 55.9695C42.7272 55.9695 42.7227 55.9685 42.718 55.9682C42.6973 55.9676 42.6767 55.9658 42.6562 55.9628C42.6493 55.9618 42.6425 55.9612 42.6358 55.96C42.61 55.9552 42.5846 55.9484 42.5597 55.9397C42.5537 55.9375 42.5481 55.9349 42.5424 55.9326C42.5224 55.9248 42.503 55.9159 42.4842 55.9056C42.4772 55.902 42.4706 55.8983 42.4637 55.8942C42.4404 55.8802 42.4175 55.8649 42.3961 55.8471L38.6809 52.7373L34.9632 55.8472C34.9418 55.8651 34.9188 55.8806 34.8952 55.8946C34.8889 55.8983 34.8825 55.9018 34.8761 55.9054C34.8564 55.9161 34.8361 55.9256 34.8151 55.9336C34.8103 55.9355 34.8057 55.9377 34.8007 55.9395C34.7753 55.9485 34.7491 55.9554 34.7228 55.9603C34.7171 55.9613 34.7115 55.9619 34.7059 55.9627C34.6842 55.966 34.6623 55.968 34.6402 55.9686C34.636 55.9687 34.6319 55.9696 34.6278 55.9696C34.6245 55.9696 34.6212 55.9689 34.618 55.9689C34.6015 55.9686 34.5851 55.9671 34.5686 55.9652C34.5613 55.9643 34.554 55.964 34.5467 55.9628C34.523 55.9591 34.4994 55.954 34.4762 55.9469C34.4552 55.9405 34.4347 55.9327 34.4148 55.9239C34.2759 55.8616 34.1689 55.7407 34.1236 55.5912L31.8582 48.1343C30.4103 48.9454 29.1832 49.5941 28.1746 50.1274C25.5541 51.513 24.2387 52.2085 23.6478 53.2755C23.0496 54.3558 23.0715 56.0063 23.1151 59.2944C23.127 60.1934 23.1404 61.1991 23.1432 62.349C28.23 63.4891 33.4172 64.0672 38.5675 64.067C43.7222 64.0669 48.9856 63.4881 54.2183 62.3463C54.2209 61.2344 54.2333 60.2563 54.2442 59.3817C54.2861 56.0569 54.3074 54.3879 53.6985 53.2915C53.0967 52.2076 51.7603 51.498 49.0977 50.0844ZM50.7618 60.2453H45.9354C45.6438 60.2453 45.4075 60.0049 45.4075 59.7084C45.4075 59.4119 45.6438 59.1716 45.9354 59.1716H50.7618C51.0534 59.1716 51.2898 59.4119 51.2898 59.7084C51.2898 60.0049 51.0534 60.2453 50.7618 60.2453ZM50.7618 56.942H45.9354C45.6438 56.942 45.4075 56.7017 45.4075 56.4052C45.4075 56.1087 45.6438 55.8683 45.9354 55.8683H50.7618C51.0534 55.8683 51.2898 56.1087 51.2898 56.4052C51.2898 56.7017 51.0534 56.942 50.7618 56.942Z" fill="url(#paint2_linear_171_373)"/>
<path d="M46.2543 33.6959C46.2556 33.6656 46.2564 33.6359 46.2571 33.606C46.2594 33.5252 46.261 33.445 46.261 33.367C46.261 29.3089 42.926 26.0073 38.8268 26.0073C34.7275 26.0073 31.3926 29.3087 31.3926 33.367C31.3926 33.4452 31.3943 33.5255 31.3965 33.6062C31.3974 33.636 31.3982 33.6656 31.3993 33.6958C31.401 33.7386 31.4034 33.7822 31.4055 33.8255C31.6054 37.6331 34.2081 44.2788 38.8269 44.2788C43.4458 44.2788 46.0487 37.6327 46.2483 33.825C46.2503 33.7819 46.2528 33.7385 46.2543 33.6959Z" fill="url(#paint3_linear_171_373)"/>
<path d="M26.8963 35.4373H30.5245C30.44 34.9381 30.3837 34.4517 30.3561 33.9915C30.3554 33.9808 30.3549 33.9702 30.3542 33.9595C30.351 33.9049 30.3481 33.8505 30.3458 33.7967C30.3443 33.7613 30.3431 33.7264 30.342 33.6914C30.3408 33.6557 30.3394 33.62 30.3386 33.5849C30.3369 33.5113 30.3359 33.4386 30.3359 33.3671C30.3359 28.717 34.1446 24.9339 38.8259 24.9339C43.5074 24.9339 47.316 28.717 47.316 33.3671C47.316 33.4386 47.3149 33.5114 47.3132 33.585C47.3125 33.62 47.311 33.6557 47.3099 33.6912C47.3088 33.7262 47.3076 33.7612 47.3062 33.7966C47.3038 33.8505 47.3009 33.905 47.2978 33.9597C47.2972 33.9702 47.2966 33.9807 47.2959 33.9912C47.2683 34.4513 47.212 34.9379 47.1276 35.4372H51.4753C53.6233 35.4372 55.3708 33.5866 55.3708 31.3121C55.3708 30.188 54.9514 29.1375 54.1901 28.3537C54.0657 28.2258 54.0128 28.0428 54.049 27.8667C54.1187 27.5277 54.154 27.1759 54.154 26.8213C54.154 24.1115 52.0702 21.9069 49.5086 21.9069C48.9002 21.9069 48.3096 22.0292 47.7538 22.2702C47.5778 22.3466 47.3748 22.3201 47.2231 22.2005C47.0717 22.0811 46.996 21.8877 47.0249 21.695C47.0645 21.4324 47.0847 21.1655 47.0847 20.902C47.0847 18.1929 45.0006 15.9885 42.4391 15.9885C40.8324 15.9885 39.362 16.8486 38.5056 18.289C38.432 18.4126 38.3126 18.501 38.1742 18.5339C38.0358 18.5667 37.8903 18.5417 37.7704 18.4643C37.1628 18.0711 36.4624 17.8633 35.7448 17.8633C33.8296 17.8633 32.2132 19.3125 31.9013 21.3091C31.8606 21.57 31.6393 21.7618 31.38 21.7618C31.3782 21.7618 31.3764 21.7618 31.3747 21.7618L31.2922 21.761C29.1491 21.761 27.4012 23.6111 27.4012 25.8853C27.4012 26.1127 27.419 26.3422 27.454 26.5672C27.4786 26.7247 27.433 26.8851 27.3297 27.005C27.2263 27.1249 27.0784 27.1931 26.9191 27.1878L26.8898 27.1871C24.7444 27.191 23 29.04 23 31.3124C23 33.5867 24.7479 35.4373 26.8963 35.4373Z" fill="url(#paint4_linear_171_373)"/>
<path d="M42.4608 54.51L44.5795 47.5416L43.813 46.939L39.4395 51.981L42.4608 54.51Z" fill="url(#paint5_linear_171_373)"/>
<defs>
<linearGradient id="paint0_linear_171_373" x1="40" y1="0" x2="40" y2="80.5926" gradientUnits="userSpaceOnUse">
<stop stop-color="#F8EC20"/>
<stop offset="1" stop-color="#A79F1E"/>
</linearGradient>
<linearGradient id="paint1_linear_171_373" x1="31.2651" y1="51.2741" x2="39.2769" y2="50.6557" gradientUnits="userSpaceOnUse">
<stop stop-color="#232524"/>
<stop offset="0.770833" stop-color="#151B27" stop-opacity="0.84"/>
</linearGradient>
<linearGradient id="paint2_linear_171_373" x1="13.8918" y1="57.2587" x2="60.4516" y2="46.9044" gradientUnits="userSpaceOnUse">
<stop stop-color="#232524"/>
<stop offset="0.770833" stop-color="#151B27" stop-opacity="0.84"/>
</linearGradient>
<linearGradient id="paint3_linear_171_373" x1="27.0017" y1="36.4711" x2="50.1144" y2="34.3329" gradientUnits="userSpaceOnUse">
<stop stop-color="#232524"/>
<stop offset="0.770833" stop-color="#151B27" stop-opacity="0.84"/>
</linearGradient>
<linearGradient id="paint4_linear_171_373" x1="13.4405" y1="27.1265" x2="62.4365" y2="17.8554" gradientUnits="userSpaceOnUse">
<stop stop-color="#232524"/>
<stop offset="0.770833" stop-color="#151B27" stop-opacity="0.84"/>
</linearGradient>
<linearGradient id="paint5_linear_171_373" x1="37.9215" y1="51.2748" x2="45.9323" y2="50.6565" gradientUnits="userSpaceOnUse">
<stop stop-color="#232524"/>
<stop offset="0.770833" stop-color="#151B27" stop-opacity="0.84"/>
</linearGradient>
</defs>
</svg>
