<svg width="50" height="50" viewBox="0 0 50 50" fill="none" xmlns="http://www.w3.org/2000/svg">
<path d="M35.7912 19.8292C33.16 8.24583 26.9537 4.43958 26.2871 2.98333C25.5537 1.95625 24.76 0 24.76 0C24.7558 0.0395833 24.7516 0.0645833 24.7496 0.102083V0.129167H24.7475C24.7433 0.160417 24.7412 0.18125 24.7391 0.210417V0.241667H24.735C24.735 0.2625 24.7308 0.279167 24.7308 0.295833V0.35H24.7246C24.7225 0.366667 24.7225 0.3875 24.7183 0.402083V0.445833H24.7141C24.7141 0.460417 24.7141 0.477083 24.71 0.489583V0.53125H24.7058C24.7058 0.552083 24.7037 0.577083 24.7016 0.597917V0.602083C24.6954 0.6375 24.6891 0.672917 24.6829 0.70625V0.722917H24.6787C24.6766 0.73125 24.6725 0.739583 24.6725 0.747917V0.783333H24.6662V0.829167H24.6558V0.866667H24.6454V0.910417H24.6371V0.95H24.6287V0.985417H24.6162V1.01458H24.6079V1.05208H24.5995V1.08125H24.5891V1.10833H24.5829V1.13958H24.5745C24.5725 1.14167 24.5725 1.14583 24.5725 1.14792V1.16875H24.5662C24.5641 1.17292 24.5641 1.17708 24.5641 1.18125V1.19375H24.56C24.5579 1.2 24.5558 1.21042 24.5558 1.21458C24.5496 1.22917 24.5412 1.24375 24.535 1.25833V1.2625C24.5308 1.26667 24.5266 1.27292 24.5246 1.27708V1.29375H24.5162V1.31042H24.5058V1.32708H24.4996V1.34792H24.4871V1.37708H24.4787V1.38542H24.4704V1.40208H24.462V1.425H24.4537V1.44167H24.4412V1.46458H24.4329V1.48125H24.4225V1.49792H24.4162V1.51875H24.4058V1.53542H24.3975V1.54792H24.3891V1.56458H24.3766V1.58333H24.3683V1.59583H24.3579V1.6125H24.3495V1.63542H24.3391V1.64375H24.3329V1.66042H24.3204V1.66875H24.3121V1.68958H24.3037V1.69792H24.2954V1.71458H24.285V1.72708H24.2787L24.2746 1.73542V1.74375H24.2704C24.2683 1.74792 24.2662 1.74792 24.2662 1.75208V1.75417H24.2641C24.2621 1.76042 24.26 1.76458 24.2558 1.76875V1.775H24.2537C24.2433 1.7875 24.2371 1.8 24.2287 1.8125V1.81458C24.2246 1.81875 24.2141 1.82708 24.21 1.83542V1.83958H24.2079C24.2058 1.84167 24.2016 1.84375 24.2016 1.84583V1.85208H24.1975L24.1912 1.85833V1.86042H24.1891C24.1891 1.8625 24.185 1.86458 24.1829 1.86875V1.87708H24.1766L24.1725 1.88125V1.88542H24.1683C24.1683 1.88958 24.1641 1.88958 24.1641 1.89167V1.89792H24.1558C24.1558 1.9 24.1537 1.90208 24.1516 1.90417V1.91667H24.1454V1.925H24.1371V1.9375H24.1287V1.95417H24.1183V1.9375H24.1079V1.94583H24.0996V1.95833H24.0891V1.975H24.0787V1.98333H24.0704V1.99583H24.0621V2.00417H24.0537V2.02083H24.0412V2.02917H24.0329V2.04167H24.0225V2.05H24.0141V2.06042H24.0037V2.08125H23.9996V2.08958H23.9871V2.1H23.9787V2.10417H23.9704V2.1125H23.96V2.13333H23.9516V2.14167H23.9412V2.15H23.9329V2.1625H23.9225V2.17083H23.912V2.17917H23.9037V2.1875H23.8954V2.20833H23.887V2.21875H23.8746V2.22708H23.8662V2.23542H23.8558V2.24792H23.8475V2.25625H23.8371V2.27083H23.8287V2.27917H23.8162V2.29167H23.8121V2.3H23.8037V2.30833H23.7933V2.31667H23.785V2.32917H23.7745V2.3375H23.7683C23.7662 2.33958 23.7662 2.34167 23.7662 2.34167V2.34583H23.7621L23.7537 2.35417C23.7537 2.35417 23.7495 2.35833 23.7454 2.36042V2.37292H23.7371V2.38333H23.7287V2.39167H23.7204V2.4H23.7141L23.7079 2.40625V2.4125H23.7037L23.6996 2.41667V2.42292H23.6954C23.685 2.43542 23.6808 2.44375 23.6662 2.45625C23.662 2.46042 23.6495 2.47083 23.6412 2.47708C23.6162 2.49375 23.585 2.52083 23.56 2.54375C23.5433 2.55417 23.5266 2.56875 23.5141 2.57917V2.58125H23.5121C23.4787 2.60833 23.4475 2.63333 23.41 2.6625V2.66458C23.36 2.70625 23.3121 2.74583 23.2558 2.79375V2.79167H23.2516C23.1329 2.88958 23.0079 3 22.8641 3.12292V3.125H22.8621C22.51 3.43333 22.0912 3.82917 21.6225 4.30833L21.5912 4.33958L21.5829 4.34792C18.7495 7.27917 14.285 13.3875 13.8141 23.2583C13.7725 24.075 13.7808 24.8687 13.8266 25.6417V25.6604C14.0537 29.55 15.2746 32.8708 16.8016 35.5687V35.5708C17.41 36.6458 18.0662 37.6229 18.7308 38.4979V38.5C21.0266 41.5312 23.3704 43.3271 23.9683 43.7625C24.8871 45.8937 24.8016 49.5521 24.8016 49.5521L26.1433 50C26.1433 50 25.8704 46.4562 26.2537 44.7458C26.3725 44.2104 26.6537 43.7542 26.9808 43.3667C27.2016 43.2104 27.8558 42.7396 28.6412 42.0229C28.6787 41.9833 28.6995 41.9479 28.7329 41.9104C31.9016 38.9562 37.8204 31.6812 35.7912 19.8292Z" fill="url(#paint0_linear_171_19)"/>
<defs>
<linearGradient id="paint0_linear_171_19" x1="24.9963" y1="0" x2="24.9963" y2="50" gradientUnits="userSpaceOnUse">
<stop stop-color="#F8EC20"/>
<stop offset="1" stop-color="#A79F1E"/>
</linearGradient>
</defs>
</svg>
