<svg width="60" height="48" viewBox="0 0 60 48" fill="none" xmlns="http://www.w3.org/2000/svg">
<path d="M29.6531 42.3751C29.4562 42.3751 29.2594 42.3188 29.0813 42.2251L27.2812 41.1563C27.0094 41.0063 27.1406 40.9501 27.2344 40.922C27.5906 40.8001 27.6656 40.772 28.05 40.547C28.0875 40.5282 28.1438 40.5376 28.1813 40.5563L29.5687 41.3813C29.6156 41.4095 29.6906 41.4095 29.7375 41.3813L35.1562 38.2501C35.2031 38.222 35.2406 38.1657 35.2406 38.1001V31.847C35.2406 31.7813 35.2125 31.7251 35.1562 31.697L29.7375 28.5751C29.6906 28.547 29.625 28.547 29.5687 28.5751L24.15 31.697C24.0938 31.7251 24.0656 31.7907 24.0656 31.847V38.1001C24.0656 38.1563 24.1031 38.2126 24.15 38.2407L25.6312 39.0938C26.4375 39.497 26.9344 39.0188 26.9344 38.5501V32.372C26.9344 32.2876 27 32.2126 27.0938 32.2126H27.7781C27.8625 32.2126 27.9375 32.2782 27.9375 32.372V38.5501C27.9375 39.6282 27.3562 40.2376 26.3344 40.2376C26.025 40.2376 25.7719 40.2376 25.0875 39.9001L23.6625 39.0845C23.3156 38.8782 23.0906 38.5032 23.0906 38.1001V31.847C23.0906 31.4438 23.3062 31.0595 23.6625 30.8626L29.0813 27.7313C29.4281 27.5345 29.8781 27.5345 30.2156 27.7313L35.6344 30.8626C35.9813 31.0688 36.2063 31.4438 36.2063 31.847V38.1001C36.2063 38.5032 35.9906 38.8876 35.6344 39.0845L30.2156 42.2157C30.0562 42.3188 29.8594 42.3751 29.6531 42.3751ZM34.0312 36.2063C34.0312 35.0345 33.2437 34.7251 31.575 34.5001C29.8875 34.2751 29.7188 34.1626 29.7188 33.7688C29.7188 33.4407 29.8594 33.0095 31.1062 33.0095C32.2219 33.0095 32.6344 33.2532 32.8031 34.0032C32.8219 34.0782 32.8781 34.1251 32.9531 34.1251H33.6562C33.7031 34.1251 33.7406 34.1063 33.7688 34.0782C33.7969 34.0407 33.8156 34.0032 33.8063 33.9563C33.6938 32.6626 32.8406 32.0626 31.1062 32.0626C29.5594 32.0626 28.6406 32.7188 28.6406 33.8063C28.6406 34.997 29.5594 35.3157 31.0406 35.4657C32.8125 35.6438 32.9531 35.897 32.9531 36.2438C32.9531 36.8532 32.4656 37.1063 31.3219 37.1063C29.8875 37.1063 29.5687 36.7501 29.4656 36.0376C29.4562 35.9626 29.3906 35.9063 29.3063 35.9063H28.6031C28.5188 35.9063 28.4437 35.972 28.4437 36.0657C28.4437 36.9751 28.9406 38.0626 31.3125 38.0626C33.0469 38.0626 34.0312 37.3876 34.0312 36.2063ZM39.1406 31.5095C39.1406 32.0813 38.6719 32.5501 38.1 32.5501C37.5281 32.5501 37.0594 32.0813 37.0594 31.5095C37.0594 30.9188 37.5469 30.4688 38.1 30.4688C38.6625 30.4595 39.1406 30.9188 39.1406 31.5095ZM38.9719 31.5095C38.9719 31.022 38.5781 30.6376 38.0906 30.6376C37.6125 30.6376 37.2188 31.022 37.2188 31.5095C37.2188 31.997 37.6125 32.3907 38.0906 32.3907C38.5781 32.3813 38.9719 31.9876 38.9719 31.5095ZM38.55 32.0907H38.3063C38.2969 32.0345 38.2594 31.7345 38.2594 31.7251C38.2406 31.6595 38.2219 31.622 38.1375 31.622H37.9313V32.0907H37.7063V30.9188H38.1094C38.25 30.9188 38.5219 30.9188 38.5219 31.2282C38.5219 31.4438 38.3812 31.4907 38.2969 31.5188C38.4562 31.5282 38.4656 31.6313 38.4938 31.7813C38.5031 31.8751 38.5219 32.0345 38.55 32.0907ZM38.2875 31.2657C38.2875 31.1063 38.175 31.1063 38.1188 31.1063H37.9313V31.4345H38.1094C38.2594 31.4345 38.2875 31.3313 38.2875 31.2657ZM12.8719 17.9064C12.8719 17.6532 12.7406 17.4282 12.525 17.3064L6.77813 13.997C6.68438 13.9407 6.57188 13.9126 6.45938 13.9032H6.40313C6.29063 13.9032 6.1875 13.9407 6.08438 13.997L0.346875 17.3064C0.13125 17.4282 0 17.6626 0 17.9064L0.009375 26.8126C0.009375 26.9345 0.075 27.047 0.178125 27.1126C0.28125 27.1782 0.4125 27.1782 0.525 27.1126L3.9375 25.1532C4.15312 25.022 4.28438 24.797 4.28438 24.5532V20.3907C4.28438 20.147 4.41563 19.9126 4.63125 19.7907L6.08438 18.9563C6.19688 18.8907 6.30937 18.8626 6.43125 18.8626C6.55312 18.8626 6.675 18.8907 6.77813 18.9563L8.23125 19.7907C8.44688 19.9126 8.57812 20.147 8.57812 20.3907V24.5532C8.57812 24.797 8.70937 25.0313 8.925 25.1532L12.3375 27.1126C12.4406 27.1782 12.5813 27.1782 12.6844 27.1126C12.7875 27.0563 12.8531 26.9345 12.8531 26.8126L12.8719 17.9064ZM44.2969 8.18448V24.722C44.2969 24.9657 44.1656 25.2001 43.95 25.322L38.2031 28.6407C37.9875 28.7626 37.725 28.7626 37.5094 28.6407L31.7625 25.322C31.5469 25.2001 31.4156 24.9657 31.4156 24.722V18.0845C31.4156 17.8407 31.5469 17.6063 31.7625 17.4845L37.5094 14.1657C37.725 14.0439 37.9875 14.0439 38.2031 14.1657L39.6375 14.9907C39.7969 15.0845 40.0031 14.9626 40.0031 14.7845V5.97198C40.0031 5.70948 40.2844 5.54073 40.5188 5.67198L43.9406 7.58448C44.1562 7.69698 44.2969 7.93135 44.2969 8.18448ZM39.9844 20.2688C39.9844 20.2032 39.9469 20.147 39.9 20.1188L37.9313 18.9751C37.875 18.947 37.8094 18.947 37.7531 18.9751L35.7844 20.1188C35.7281 20.147 35.7 20.2032 35.7 20.2688V22.547C35.7 22.6126 35.7375 22.6688 35.7844 22.697L37.7531 23.8313C37.8094 23.8595 37.875 23.8595 37.9219 23.8313L39.8906 22.697C39.9469 22.6688 39.975 22.6126 39.975 22.547V20.2688H39.9844ZM59.6531 20.2032C59.8687 20.0813 60 19.847 60 19.6032V18.0001C60 17.7564 59.8687 17.522 59.6531 17.4001L53.9438 14.0814C53.7281 13.9595 53.4656 13.9595 53.25 14.0814L47.5031 17.4001C47.2875 17.522 47.1562 17.7564 47.1562 18.0001V24.6376C47.1562 24.8907 47.2875 25.1157 47.5031 25.2376L53.2125 28.4907C53.4187 28.6126 53.6813 28.6126 53.8969 28.4907L57.3469 26.5688C57.5813 26.4376 57.5813 26.1001 57.3469 25.9688L51.5625 22.6501C51.45 22.5845 51.3844 22.472 51.3844 22.3501V20.2688C51.3844 20.147 51.45 20.0345 51.5625 19.9688L53.3625 18.9282C53.4656 18.8626 53.6063 18.8626 53.7094 18.9282L55.5094 19.9688C55.6125 20.0345 55.6875 20.147 55.6875 20.2688V21.9001C55.6875 22.1626 55.9781 22.3313 56.2125 22.2001L59.6531 20.2032ZM52.4062 20.5313C52.3688 20.5595 52.3406 20.597 52.3406 20.6438V21.9188C52.3406 21.9657 52.3688 22.0126 52.4062 22.0313L53.5125 22.6688C53.55 22.697 53.6063 22.697 53.6438 22.6688L54.75 22.0313C54.7875 22.0032 54.8156 21.9657 54.8156 21.9188V20.6438C54.8156 20.597 54.7875 20.5501 54.75 20.5313L53.6438 19.8938C53.6063 19.8657 53.55 19.8657 53.5125 19.8938L52.4062 20.5313ZM28.575 24.6095V18.0095C28.575 17.7657 28.425 17.5314 28.2094 17.4095L22.4813 14.1095C22.2844 13.997 22.0125 13.9782 21.7875 14.1095L16.0594 17.4095C15.8438 17.5314 15.6937 17.7564 15.6937 18.0095V24.6095C15.6937 24.872 15.8719 25.097 16.0687 25.2095L21.8063 28.5095C22.0312 28.6407 22.2938 28.6313 22.5 28.5095L28.2188 25.2095C28.3875 25.1157 28.5094 24.9564 28.5563 24.7689C28.5656 24.722 28.575 24.6657 28.575 24.6095ZM21.6094 12.9001L21.5344 12.947H21.6375L21.6094 12.9001ZM28.7531 25.1063L28.7156 25.0407V25.1251L28.7531 25.1063Z" fill="url(#paint0_linear_171_14)"/>
<defs>
<linearGradient id="paint0_linear_171_14" x1="30" y1="5.62646" x2="30" y2="42.3751" gradientUnits="userSpaceOnUse">
<stop stop-color="#F8EC20"/>
<stop offset="1" stop-color="#A79F1E"/>
</linearGradient>
</defs>
</svg>
