<svg width="50" height="50" viewBox="0 0 50 50" fill="none" xmlns="http://www.w3.org/2000/svg">
<path d="M25 20.5438C24.4148 20.5438 23.8353 20.6591 23.2947 20.883C22.754 21.107 22.2628 21.4352 21.849 21.849C21.4352 22.2628 21.1069 22.7541 20.883 23.2947C20.659 23.8354 20.5437 24.4149 20.5437 25.0001C20.5437 25.5853 20.659 26.1647 20.883 26.7054C21.1069 27.2461 21.4352 27.7373 21.849 28.1511C22.2628 28.5649 22.754 28.8932 23.2947 29.1171C23.8353 29.3411 24.4148 29.4563 25 29.4563C25.5852 29.4563 26.1647 29.3411 26.7053 29.1171C27.246 28.8932 27.7372 28.5649 28.151 28.1511C28.5648 27.7373 28.8931 27.2461 29.117 26.7054C29.341 26.1647 29.4562 25.5853 29.4562 25.0001C29.4562 24.4149 29.341 23.8354 29.117 23.2947C28.8931 22.7541 28.5648 22.2628 28.151 21.849C27.7372 21.4352 27.246 21.107 26.7053 20.883C26.1647 20.6591 25.5852 20.5438 25 20.5438ZM12.5167 33.8647L11.5333 33.6147C4.20417 31.7626 0 28.6188 0 24.9917C0 21.3647 4.20417 18.2209 11.5333 16.3688L12.5167 16.1209L12.7937 17.0959C13.5362 19.6536 14.4859 22.1466 15.6333 24.5501L15.8437 24.9938L15.6333 25.4376C14.484 27.8402 13.5342 30.3333 12.7937 32.8917L12.5167 33.8647ZM11.0771 18.6459C5.50625 20.2105 2.0875 22.6042 2.0875 24.9917C2.0875 27.3772 5.50625 29.7709 11.0771 31.3376C11.7584 29.1708 12.581 27.0509 13.5396 24.9917C12.5799 22.933 11.7573 20.8131 11.0771 18.6459ZM37.4833 33.8647L37.2062 32.8876C36.4645 30.33 35.5141 27.8376 34.3646 25.4355L34.1542 24.9917L34.3646 24.548C35.5137 22.145 36.4641 19.6519 37.2062 17.0938L37.4833 16.1188L38.4688 16.3667C45.7958 18.2188 50 21.3626 50 24.9917C50 28.6209 45.7958 31.7626 38.4688 33.6147L37.4833 33.8647ZM36.4604 24.9917C37.4604 27.1563 38.2875 29.2834 38.9229 31.3376C44.4958 29.7709 47.9125 27.3772 47.9125 24.9917C47.9125 22.6042 44.4937 20.2126 38.9229 18.6459C38.2425 20.813 37.4199 22.9329 36.4604 24.9917ZM11.0625 18.6355L10.7854 17.6626C8.725 10.4001 9.35 5.19591 12.5 3.37924C15.5896 1.59591 20.55 3.70216 25.7479 9.03757L26.4562 9.76466L25.7479 10.4917C23.9009 12.4118 22.2134 14.479 20.7021 16.673L20.4208 17.0751L19.9312 17.1167C17.2727 17.3263 14.6356 17.7513 12.0458 18.3876L11.0625 18.6355ZM15.0125 4.82299C14.4542 4.82299 13.9604 4.94382 13.5437 5.18341C11.4729 6.37716 11.1062 10.5272 12.5333 16.1272C14.7534 15.6333 17.0033 15.2846 19.2687 15.0834C20.5759 13.2248 22.004 11.4543 23.5437 9.78341C20.2937 6.61882 17.2167 4.82299 15.0125 4.82299ZM34.9896 47.2438C34.9875 47.2438 34.9875 47.2438 34.9896 47.2438C32.0208 47.2438 28.2083 45.0084 24.2521 40.9459L23.5437 40.2188L24.2521 39.4917C26.0986 37.5711 27.7854 35.5032 29.2958 33.3084L29.5771 32.9063L30.0646 32.8647C32.7245 32.6562 35.363 32.2319 37.9542 31.5959L38.9375 31.348L39.2167 32.323C41.2729 39.5813 40.65 44.7876 37.5 46.6022C36.7349 47.0348 35.8685 47.2562 34.9896 47.2438ZM26.4562 40.2001C29.7062 43.3647 32.7833 45.1605 34.9875 45.1605H34.9896C35.5458 45.1605 36.0417 45.0397 36.4562 44.8001C38.5271 43.6063 38.8958 39.4542 37.4667 33.8542C35.246 34.3488 32.9954 34.6975 30.7292 34.898C29.4236 36.7579 27.9962 38.5291 26.4562 40.2001ZM38.9375 18.6355L37.9542 18.3876C35.3634 17.7495 32.7247 17.3245 30.0646 17.1167L29.5771 17.0751L29.2958 16.673C27.7862 14.4783 26.0993 12.411 24.2521 10.4917L23.5437 9.76466L24.2521 9.03757C29.4479 3.70424 34.4062 1.59799 37.5 3.37924C40.65 5.19591 41.275 10.4001 39.2167 17.6605L38.9375 18.6355ZM30.7292 15.0834C33.1083 15.3001 35.3687 15.6522 37.4667 16.1272C38.8958 10.5272 38.5271 6.37716 36.4562 5.18341C34.3979 3.99382 30.5292 5.81674 26.4562 9.78341C27.9953 11.4544 29.4227 13.2249 30.7292 15.0834ZM15.0125 47.2438C14.1329 47.2566 13.2658 47.0351 12.5 46.6022C9.35 44.7876 8.725 39.5834 10.7854 32.323L11.0604 31.348L12.0437 31.5959C14.45 32.2022 17.1042 32.6292 19.9292 32.8647L20.4187 32.9063L20.6979 33.3084C22.2095 35.5029 23.897 37.5708 25.7437 39.4917L26.4521 40.2188L25.7437 40.9459C21.7896 45.0084 17.9771 47.2438 15.0125 47.2438ZM12.5333 33.8542C11.1042 39.4542 11.4729 43.6063 13.5437 44.8001C15.6 45.973 19.4667 44.1647 23.5437 40.2001C22.0046 38.5279 20.5765 36.7567 19.2687 34.898C17.0032 34.6976 14.7532 34.349 12.5333 33.8542ZM25 35.1626C23.2854 35.1626 21.5229 35.0876 19.7583 34.9417L19.2687 34.9001L18.9875 34.498C17.9894 33.0638 17.0511 31.5889 16.175 30.0772C15.3015 28.5642 14.4911 27.0156 13.7458 25.4355L13.5375 24.9917L13.7458 24.548C14.491 22.9678 15.3014 21.4193 16.175 19.9063C17.0375 18.4147 17.9854 16.9272 18.9875 15.4855L19.2687 15.0834L19.7583 15.0417C23.2472 14.7459 26.7549 14.7459 30.2437 15.0417L30.7312 15.0834L31.0104 15.4855C33.0087 18.3544 34.7627 21.3858 36.2542 24.548L36.4646 24.9917L36.2542 25.4355C34.7663 28.5995 33.0121 31.6313 31.0104 34.498L30.7312 34.9001L30.2437 34.9417C28.4792 35.0876 26.7146 35.1626 25 35.1626ZM20.4229 32.9042C23.5063 33.1355 26.4937 33.1355 29.5792 32.9042C31.3017 30.386 32.8311 27.741 34.1542 24.9917C32.8334 22.2409 31.3032 19.5956 29.5771 17.0792C26.5301 16.848 23.4699 16.848 20.4229 17.0792C18.696 19.5951 17.1658 22.2405 15.8458 24.9917C17.1703 27.7406 18.7004 30.3856 20.4229 32.9042Z" fill="url(#paint0_linear_159_1018)"/>
<defs>
<linearGradient id="paint0_linear_159_1018" x1="25" y1="2.75781" x2="25" y2="47.2443" gradientUnits="userSpaceOnUse">
<stop stop-color="#F8EC20"/>
<stop offset="1" stop-color="#A79F1E"/>
</linearGradient>
</defs>
</svg>
