<svg width="81" height="81" viewBox="0 0 81 81" fill="none" xmlns="http://www.w3.org/2000/svg">
<ellipse cx="40.5" cy="40.5" rx="40.5" ry="40.5" fill="url(#paint0_linear_446_2)"/>
<path d="M44.1853 34.1338H32.2271C31.8996 34.1338 31.6338 33.8341 31.6338 33.5127C31.6338 33.1913 31.8996 32.8916 32.2271 32.8916H43.4715C43.1998 32.4775 42.9627 31.7529 42.7616 31.3389H32.2271C31.8996 31.3389 31.6338 31.0415 31.6338 30.7178C31.6338 30.3964 31.8996 30.0967 32.2271 30.0967H42.3964C42.1349 29.165 41.9935 28.0674 41.9935 26.9876C41.9935 25.0149 42.4385 23.1611 43.2643 21.5049H21.0999C20.1223 21.5049 19.4316 22.3149 19.4316 23.2747V56.7002H43.8874C44.4928 56.7002 45.0733 56.8837 45.5278 57.2723C45.5829 57.3177 45.6683 57.3797 45.7882 57.5125L45.8348 57.5356C46.2066 57.9733 46.4316 58.5235 46.4316 59.0985V61.6749C46.4316 63.1838 47.3809 65.3383 48.6465 65.3383V65.3088C46.6426 65.2797 45.0605 63.6665 45.0605 61.6749V59.0985C45.0605 58.8416 44.9219 58.6048 44.768 58.4235C44.768 58.4235 44.6651 58.3389 44.6318 58.314C44.4419 58.1452 44.1647 58.0459 43.8874 58.0459H16.7037C16.1057 58.0459 15.6348 58.5116 15.6348 59.0985V61.602C15.6348 63.6519 17.3142 65.292 19.4031 65.292H48.6179C49.5671 65.292 50.331 65.0122 50.9599 64.5275C51.8262 63.8638 52.4434 62.8389 52.4434 61.6743V39.4431C48.9629 38.7913 46.0627 36.9287 44.1853 34.1338ZM25.4998 29.5092C26.1503 29.5092 26.7492 29.7213 27.2338 30.0756L25.1007 32.1687L24.7162 31.7222C24.4834 31.4521 24.0712 31.4183 23.7966 31.6467C23.5212 31.8752 23.4869 32.2793 23.7196 32.5495L24.5625 33.5276C24.6801 33.6644 24.851 33.7463 25.0336 33.7539C25.0427 33.7543 25.0518 33.7545 25.0608 33.7545C25.2335 33.7545 25.3995 33.6874 25.522 33.567L28.0831 31.0536C28.2908 31.4468 28.4101 31.8923 28.4101 32.3657C28.4101 33.9431 27.107 35.2222 25.4998 35.2222C23.8924 35.2222 22.5897 33.9432 22.5897 32.3657C22.5897 30.7881 23.8924 29.5092 25.4998 29.5092ZM25.4998 38.5986C26.1503 38.5986 26.749 38.8107 27.2338 39.1647L25.1007 41.2581L24.7162 40.8116C24.4834 40.5415 24.0712 40.5077 23.7966 40.7361C23.5212 40.9644 23.4869 41.3687 23.7196 41.6389L24.5625 42.617C24.6801 42.7536 24.851 42.8357 25.0336 42.8433C25.0427 42.8437 25.0518 42.8439 25.0608 42.8439C25.2335 42.8439 25.3995 42.7766 25.522 42.6562L28.0831 40.143C28.2908 40.5362 28.4101 40.9817 28.4101 41.4549C28.4101 43.0325 27.107 44.3113 25.4998 44.3113C23.8924 44.3113 22.5897 43.0325 22.5897 41.4549C22.5897 39.8774 23.8924 38.5986 25.4998 38.5986ZM25.4998 53.4005C23.8924 53.4005 22.5897 52.1217 22.5897 50.5443C22.5897 48.9667 23.8924 47.6879 25.4998 47.6879C26.1503 47.6879 26.749 47.9 27.2338 48.254L25.1007 50.3474L24.7162 49.9009C24.4834 49.6308 24.0712 49.597 23.7966 49.8254C23.5212 50.0537 23.4869 50.4578 23.7196 50.728L24.5625 51.7061C24.6801 51.8429 24.851 51.9248 25.0336 51.9326C25.0427 51.9328 25.0518 51.933 25.0608 51.933C25.2335 51.933 25.3995 51.8659 25.522 51.7455L28.0831 49.2323C28.2908 49.6253 28.4101 50.0709 28.4101 50.5444C28.4101 52.1218 27.1069 53.4005 25.4998 53.4005ZM46.9526 52.249H32.2284C31.9007 52.249 31.6351 52.0013 31.6351 51.6797C31.6351 51.3581 31.9007 51.1103 32.2284 51.1103H46.9526C47.28 51.1103 47.5458 51.3581 47.5458 51.6797C47.5458 52.0013 47.2801 52.249 46.9526 52.249ZM46.9526 49.4541H32.2284C31.9007 49.4541 31.6351 49.2064 31.6351 48.8848C31.6351 48.5631 31.9007 48.3154 32.2284 48.3154H46.9526C47.28 48.3154 47.5458 48.5631 47.5458 48.8848C47.5458 49.2064 47.2801 49.4541 46.9526 49.4541ZM46.9526 43.1396H32.2284C31.9007 43.1396 31.6351 42.8919 31.6351 42.5703C31.6351 42.2487 31.9007 42.001 32.2284 42.001H46.9526C47.28 42.001 47.5458 42.2487 47.5458 42.5703C47.5458 42.8919 47.2801 43.1396 46.9526 43.1396ZM47.5458 39.7754C47.5458 40.097 47.28 40.3447 46.9526 40.3447H32.2284C31.9007 40.3447 31.6351 40.097 31.6351 39.7754C31.6351 39.4538 31.9007 39.2061 32.2284 39.2061H46.9526C47.2801 39.2061 47.5458 39.4538 47.5458 39.7754Z" fill="url(#paint1_linear_446_2)"/>
<path d="M54.8454 15.6934C48.4593 15.6934 43.2812 20.7756 43.2812 27.0455C43.2812 33.3131 48.4593 38.3951 54.8454 38.3951C61.2334 38.3951 66.4091 33.3131 66.4091 27.0455C66.409 20.7756 61.2334 15.6934 54.8454 15.6934ZM55.5024 28.5734C55.5024 28.5827 55.5001 28.5944 55.4978 28.6035C55.4881 28.8411 55.342 29.0556 55.1217 29.1557C55.034 29.1951 54.9383 29.2139 54.8458 29.2139C54.7032 29.2139 54.5608 29.1675 54.4444 29.0765C54.4374 29.0718 54.4301 29.0648 54.423 29.0603L51.013 26.2141L51.0081 26.2117L50.7352 25.9834C50.4598 25.7552 50.4265 25.35 50.6616 25.0821C50.8942 24.812 51.2237 24.7794 51.4966 25.0077L54.0259 27.1878V20.51C54.0259 20.156 54.4032 19.8695 54.7642 19.8695C55.1247 19.8695 55.5024 20.156 55.5024 20.51V28.5734Z" fill="url(#paint2_linear_446_2)"/>
<defs>
<linearGradient id="paint0_linear_446_2" x1="40.5" y1="0" x2="40.5" y2="81" gradientUnits="userSpaceOnUse">
<stop stop-color="#F8EC20"/>
<stop offset="1" stop-color="#A79F1E"/>
</linearGradient>
<linearGradient id="paint1_linear_446_2" x1="4.76473" y1="46.6076" x2="61.9512" y2="41.1482" gradientUnits="userSpaceOnUse">
<stop stop-color="#232524"/>
<stop offset="0.770833" stop-color="#151B27" stop-opacity="0.84"/>
</linearGradient>
<linearGradient id="paint2_linear_446_2" x1="36.4513" y1="28.6943" x2="72.2306" y2="24.5503" gradientUnits="userSpaceOnUse">
<stop stop-color="#232524"/>
<stop offset="0.770833" stop-color="#151B27" stop-opacity="0.84"/>
</linearGradient>
</defs>
</svg>
