<svg width="80" height="80" viewBox="0 0 80 80" fill="none" xmlns="http://www.w3.org/2000/svg">
<circle cx="40" cy="40" r="40" fill="url(#paint0_linear_576_7)"/>
<path d="M31.7344 35.125C32.8384 35.125 33.7344 34.229 33.7344 33.125V25.325C33.7344 21.838 36.5714 19 40.0584 19C43.5454 19 46.3834 21.838 46.3834 25.325V33.125C46.3834 34.229 47.2784 35.125 48.3834 35.125C49.4874 35.125 50.3834 34.229 50.3834 33.125V25.325C50.3844 19.632 45.7524 15 40.0584 15C34.3664 15 29.7344 19.632 29.7344 25.325V33.125C29.7344 34.229 30.6304 35.125 31.7344 35.125Z" fill="url(#paint1_linear_576_7)"/>
<path d="M63.0009 30.6311H52.3849V33.1251C52.3849 35.3311 50.5909 37.1251 48.3849 37.1251C46.1789 37.1251 44.3849 35.3311 44.3849 33.1251V30.6311H35.7359V33.1251C35.7359 35.3311 33.9419 37.1251 31.7359 37.1251C29.5299 37.1251 27.7359 35.3311 27.7359 33.1251V30.6311H17.0009C16.4489 30.6311 16.1079 31.0661 16.2389 31.6021L23.2369 60.0991C23.6589 61.7011 25.3449 63.0001 27.0009 63.0001H53.0009C54.6589 63.0001 56.3429 61.7011 56.7669 60.0991L63.7629 31.6021C63.8939 31.0651 63.5539 30.6311 63.0009 30.6311Z" fill="url(#paint2_linear_576_7)"/>
<defs>
<linearGradient id="paint0_linear_576_7" x1="40" y1="0" x2="40" y2="80" gradientUnits="userSpaceOnUse">
<stop stop-color="#F8EC20"/>
<stop offset="1" stop-color="#A79F1E"/>
</linearGradient>
<linearGradient id="paint1_linear_576_7" x1="23.6365" y1="26.5253" x2="55.5749" y2="22.7998" gradientUnits="userSpaceOnUse">
<stop stop-color="#232524"/>
<stop offset="0.770833" stop-color="#151B27" stop-opacity="0.84"/>
</linearGradient>
<linearGradient id="paint2_linear_576_7" x1="2.15995" y1="49.1683" x2="74.7284" y2="37.0414" gradientUnits="userSpaceOnUse">
<stop stop-color="#232524"/>
<stop offset="0.770833" stop-color="#151B27" stop-opacity="0.84"/>
</linearGradient>
</defs>
</svg>
