<svg width="50" height="50" viewBox="0 0 50 50" fill="none" xmlns="http://www.w3.org/2000/svg">
<path d="M44.1737 33.2972C42.5148 31.6352 37.7995 28.5219 34.709 28.5219C33.9932 28.5219 33.3683 28.677 32.857 28.9983C31.3458 29.9401 30.1415 30.6713 29.562 30.6713C29.2438 30.6713 28.903 30.3943 28.1531 29.7628L28.0281 29.652C25.9488 27.8903 25.5057 27.4361 24.699 26.6162L24.4945 26.4057C24.3468 26.2616 24.2218 26.1287 24.0968 26.0068C23.3923 25.2977 22.881 24.7881 21.0745 22.7938L20.9949 22.7051C20.1314 21.7523 19.5633 21.1318 19.5292 20.6776C19.4951 20.2344 19.8928 19.5142 20.904 18.1736C22.1311 16.556 22.1766 14.5616 21.0517 12.246C20.1541 10.4179 18.6884 8.66733 17.3931 7.12727L17.2795 6.99432C16.166 5.66477 14.8707 5 13.4277 5C11.8257 5 10.4963 5.84205 9.79186 6.28523C9.73505 6.31847 9.67824 6.36278 9.62143 6.39602C8.04209 7.37102 6.89451 8.71165 6.46275 10.0744C5.81511 12.1241 5.38335 14.7832 8.48521 20.3119C11.1667 25.0983 13.5982 28.3114 17.4613 32.1781C21.0972 35.8122 22.7106 36.9866 26.3238 39.5349C30.346 42.3713 34.2091 44 36.9133 44C39.4243 44 41.4013 44 44.2191 40.6872C47.1733 37.2082 45.9462 35.081 44.1737 33.2972Z" fill="url(#paint0_linear_143_79)"/>
<defs>
<linearGradient id="paint0_linear_143_79" x1="26" y1="5" x2="26" y2="44" gradientUnits="userSpaceOnUse">
<stop stop-color="#F8EC20"/>
<stop offset="1" stop-color="#A79F1E"/>
</linearGradient>
</defs>
</svg>
