<svg width="24" height="24" viewBox="0 0 24 24" fill="none" xmlns="http://www.w3.org/2000/svg">
<path d="M21 12.0225V6.08625C20.999 5.26803 20.6735 4.48361 20.095 3.90504C19.5164 3.32647 18.732 3.00099 17.9138 3H3.83625C3.01803 3.00099 2.23361 3.32647 1.65504 3.90504C1.07647 4.48361 0.750992 5.26803 0.75 6.08625V14.1637C0.750992 14.982 1.07647 15.7664 1.65504 16.345C2.23361 16.9235 3.01803 17.249 3.83625 17.25H13.635C13.8179 18.0278 14.1893 18.7488 14.7163 19.3494C15.2433 19.95 15.9099 20.4118 16.6574 20.6942C17.4048 20.9767 18.2103 21.0711 19.0028 20.9691C19.7953 20.8671 20.5506 20.5718 21.2022 20.1094C21.8538 19.6469 22.3817 19.0313 22.7395 18.3168C23.0973 17.6024 23.274 16.8109 23.254 16.0121C23.234 15.2133 23.018 14.4317 22.625 13.736C22.2319 13.0403 21.6739 12.4519 21 12.0225ZM12.8213 10.365C12.2751 10.8191 11.5872 11.0677 10.8769 11.0677C10.1666 11.0677 9.47867 10.8191 8.9325 10.365L2.48625 16.0725C2.28071 15.9257 2.09972 15.7472 1.95 15.5438L8.35875 9.88125L2.07 4.55625C2.23965 4.36407 2.4383 4.19958 2.65875 4.06875L9.375 9.75C9.79253 10.1085 10.3247 10.3056 10.875 10.3056C11.4253 10.3056 11.9575 10.1085 12.375 9.75L19.0913 4.06875C19.3117 4.19958 19.5104 4.36407 19.68 4.55625L13.4025 9.87375L15.8438 11.9587C15.6228 12.0924 15.4134 12.2442 15.2175 12.4125L12.8213 10.365ZM18.375 20.25C17.5592 20.25 16.7616 20.0081 16.0833 19.5548C15.4049 19.1016 14.8762 18.4573 14.564 17.7036C14.2518 16.9498 14.1701 16.1204 14.3293 15.3203C14.4884 14.5201 14.8813 13.7851 15.4582 13.2082C16.0351 12.6313 16.7701 12.2384 17.5703 12.0793C18.3704 11.9201 19.1998 12.0018 19.9536 12.314C20.7073 12.6262 21.3516 13.1549 21.8048 13.8333C22.2581 14.5116 22.5 15.3092 22.5 16.125C22.5 17.219 22.0654 18.2682 21.2918 19.0418C20.5182 19.8154 19.469 20.25 18.375 20.25Z" fill="url(#paint0_linear_161_1463)"/>
<path d="M20.8921 13.6086C20.844 13.5604 20.7836 13.5262 20.7176 13.5097C20.6515 13.4932 20.5822 13.495 20.5171 13.5149L15.2671 15.1311C15.1917 15.154 15.1254 15.1999 15.0776 15.2625C15.0298 15.3251 15.003 15.4012 15.0008 15.4799C14.9955 15.5598 15.016 15.6394 15.0591 15.7069C15.1023 15.7744 15.166 15.8262 15.2408 15.8549L17.7121 16.8036L18.6608 19.2749C18.688 19.3454 18.7359 19.406 18.7981 19.4488C18.8603 19.4916 18.934 19.5147 19.0096 19.5149C19.0883 19.5128 19.1644 19.4859 19.227 19.4381C19.2895 19.3903 19.3355 19.324 19.3583 19.2486L20.9746 13.9986C20.9989 13.9325 21.004 13.8608 20.9894 13.7918C20.9748 13.7228 20.9411 13.6593 20.8921 13.6086Z" fill="url(#paint1_linear_161_1463)"/>
<defs>
<linearGradient id="paint0_linear_161_1463" x1="12.0028" y1="3" x2="12.0028" y2="21.0089" gradientUnits="userSpaceOnUse">
<stop stop-color="#F8EC20"/>
<stop offset="1" stop-color="#A79F1E"/>
</linearGradient>
<linearGradient id="paint1_linear_161_1463" x1="17.9988" y1="13.4985" x2="17.9988" y2="19.5149" gradientUnits="userSpaceOnUse">
<stop stop-color="#F8EC20"/>
<stop offset="1" stop-color="#A79F1E"/>
</linearGradient>
</defs>
</svg>
