<svg width="80" height="80" viewBox="0 0 80 80" fill="none" xmlns="http://www.w3.org/2000/svg">
<circle cx="40" cy="40" r="40" fill="url(#paint0_linear_796_359)"/>
<path fill-rule="evenodd" clip-rule="evenodd" d="M37.9269 15C40.9505 15 43.4028 17.5138 43.4028 20.6133C43.4028 23.7128 40.9505 26.2266 37.9269 26.2266C34.9034 26.2266 32.4511 23.7128 32.4511 20.6133C32.4511 17.5138 34.9034 15 37.9269 15ZM42.2645 62.2535C43.1303 60.6272 43.9213 59.1495 44.8398 57.6944C45.7583 56.2393 46.7999 54.8157 48.1623 53.2975L48.5666 52.865L33.7827 46.1615L37.4831 52.1667C37.7863 52.6577 37.9137 53.2074 37.8874 53.748L37.5182 61.5462C37.4479 63.0509 36.2042 64.2087 34.7408 64.1411C33.2729 64.069 32.1435 62.7941 32.2094 61.2939L32.539 54.3471L27.3488 45.9227L23.833 61.5958C23.5034 63.0644 22.0795 63.9789 20.6468 63.6456C19.2142 63.3077 18.322 61.8481 18.6472 60.3794L22.9409 41.2464L13 36.7053L13.7779 32.4255L16.1774 33.5113L18.99 28.4115C19.3987 27.6727 20.0975 27.2042 20.8534 27.069V27.0645L28.7331 25.677C29.3001 25.5779 29.8538 25.668 30.3372 25.9067L40.0056 30.128C40.8319 30.4884 41.3856 31.2272 41.5614 32.0606H41.5658L44.4663 45.72C44.5102 45.9362 44.5322 46.1524 44.5278 46.3642L51.6253 49.5808L56.5386 44.3099L56.587 44.2828L56.6661 44.2603C61.4388 43.0665 65.5039 57.1718 66.3037 60.5326L66.3784 60.8569C66.9717 63.3392 67.231 64.4294 66.7476 64.9295C66.3697 65.3214 65.5742 65.2944 64.1591 65.2539C63.5043 65.2359 62.7132 65.2088 61.7684 65.2223C58.7931 65.2539 55.8618 65.2539 52.9833 65.2043C50.1047 65.1593 47.2833 65.0692 44.5322 64.934C43.851 64.898 43.2929 64.898 42.8446 64.8935C42.0052 64.889 41.5394 64.8845 41.3548 64.6727C41.1131 64.3934 41.39 63.8843 42.0052 62.7401L42.2645 62.2535ZM27.6476 31.4029L24.8306 37.4352L21.0599 35.7232L22.9892 32.2228L27.6476 31.4029ZM34.6397 41.8817L36.9117 35.7908L38.5861 43.6702L34.6397 41.8817Z" fill="url(#paint1_linear_796_359)"/>
<defs>
<linearGradient id="paint0_linear_796_359" x1="40" y1="0" x2="40" y2="80" gradientUnits="userSpaceOnUse">
<stop stop-color="#F8EC20"/>
<stop offset="1" stop-color="#A79F1E"/>
</linearGradient>
<linearGradient id="paint1_linear_796_359" x1="-2.94687" y1="43.7922" x2="80.4693" y2="33.6065" gradientUnits="userSpaceOnUse">
<stop stop-color="#232524"/>
<stop offset="0.770833" stop-color="#151B27" stop-opacity="0.84"/>
</linearGradient>
</defs>
</svg>
