<svg width="55" height="55" viewBox="0 0 55 55" fill="none" xmlns="http://www.w3.org/2000/svg">
<path d="M41.1296 17.1693C35.9885 17.1693 32.1084 20.5644 30.5564 25.8995C28.1313 22.1164 26.1913 17.8483 25.1243 14.1623H19.6922V28.4215C19.6922 31.2346 17.3641 33.5626 14.5511 33.5626C11.738 33.5626 9.40997 31.2346 9.40997 28.4215V14.2593H4.17188V28.5185C4.17188 34.4356 8.92496 39.1887 14.7451 39.1887C20.5652 39.1887 25.3183 34.4356 25.3183 28.5185V26.0935C26.3853 28.2275 27.7433 30.5556 29.1983 32.5926L25.8033 48.4039H31.3324L33.6604 36.8607C35.7945 38.2187 38.2195 38.9947 41.1296 38.9947C47.0467 38.9947 51.8967 34.1446 51.8967 27.9365C51.8967 22.0194 47.0467 17.1693 41.1296 17.1693ZM41.1296 33.5626C38.9955 33.5626 36.7645 32.5926 35.0184 31.1376L35.6005 29.0035V28.9065C35.9885 26.5785 37.2495 22.6984 41.2266 22.6984C44.2336 22.6984 46.6586 25.1235 46.6586 28.1305C46.5616 31.1376 43.9426 33.5626 41.1296 33.5626Z" fill="url(#paint0_linear_143_74)"/>
<defs>
<linearGradient id="paint0_linear_143_74" x1="28.0343" y1="14.1623" x2="28.0343" y2="48.4039" gradientUnits="userSpaceOnUse">
<stop stop-color="#F8EC20"/>
<stop offset="1" stop-color="#A79F1E"/>
</linearGradient>
</defs>
</svg>
