<svg width="50" height="50" viewBox="0 0 50 50" fill="none" xmlns="http://www.w3.org/2000/svg">
<path d="M24.9987 29.1667C30.7517 29.1667 35.4154 23.5702 35.4154 16.6667C35.4154 9.7631 30.7517 4.16666 24.9987 4.16666C19.2457 4.16666 14.582 9.7631 14.582 16.6667C14.582 23.5702 19.2457 29.1667 24.9987 29.1667Z" fill="url(#paint0_linear_143_81)"/>
<path d="M45.4158 39.7917C43.5408 36.0417 39.9991 32.9167 35.4158 31.0417C34.1658 30.625 32.7075 30.625 31.6658 31.25C29.5825 32.5 27.4991 33.125 24.9991 33.125C22.4991 33.125 20.4158 32.5 18.3325 31.25C17.2908 30.8333 15.8325 30.625 14.5825 31.25C9.99915 33.125 6.45748 36.25 4.58248 40C3.12415 42.7083 5.41582 45.8333 8.54082 45.8333H41.4575C44.5825 45.8333 46.8741 42.7083 45.4158 39.7917Z" fill="url(#paint1_linear_143_81)"/>
<defs>
<linearGradient id="paint0_linear_143_81" x1="24.9987" y1="4.16666" x2="24.9987" y2="29.1667" gradientUnits="userSpaceOnUse">
<stop stop-color="#F8EC20"/>
<stop offset="1" stop-color="#A79F1E"/>
</linearGradient>
<linearGradient id="paint1_linear_143_81" x1="24.9991" y1="30.7513" x2="24.9991" y2="45.8333" gradientUnits="userSpaceOnUse">
<stop stop-color="#F8EC20"/>
<stop offset="1" stop-color="#A79F1E"/>
</linearGradient>
</defs>
</svg>
