<svg width="32" height="32" viewBox="0 0 32 32" fill="none" xmlns="http://www.w3.org/2000/svg">
<path d="M15.3336 2.26681C18.6669 2.40014 21.0669 3.33347 23.4669 5.20014C26.4003 7.33347 28.1336 10.4001 28.8003 14.1335C28.9336 15.2001 29.0669 16.0001 29.0669 17.2001C29.0669 18.1335 29.2003 18.4001 29.3336 18.6668C29.4669 18.9335 29.7336 19.0668 29.8669 19.0668C30.0003 19.0668 30.1336 19.0668 30.1336 18.9335C30.4003 18.8001 30.5336 18.4001 30.4003 18.0001C30.4003 17.8668 30.2669 17.7335 30.2669 17.0668C30.2669 15.7335 30.1336 14.9335 29.8669 13.8668C29.0669 9.73347 27.2003 6.40014 24.0003 4.13347C21.3336 2.13347 18.6669 1.20014 15.0669 0.933474C14.0003 0.933474 13.8669 0.800141 13.8669 0.800141C13.6003 0.533475 13.2003 0.666808 12.9336 0.933474C13.0669 1.20014 13.0669 1.60014 13.3336 1.86681C13.8669 2.13347 14.2669 2.26681 15.3336 2.26681Z" fill="url(#paint0_linear_161_1490)"/>
<path d="M23.8682 11.3333C24.5349 12.5333 24.9349 14 24.9349 15.4667C24.9349 16.4 25.0682 17.2 25.8682 17.7333C26.0016 17.7333 26.0016 17.8667 26.1349 17.8667C26.4016 17.8667 26.6682 17.7333 26.6682 17.4667C26.8016 17.2 26.6682 16.8 26.4016 16.5333C26.2682 16.5333 26.1349 16.4 26.1349 15.4667C26.1349 13.7333 25.7349 12 24.9349 10.6667C24.1349 9.06667 22.8016 7.73333 21.3349 6.93333C20.0016 6.13333 18.1349 5.6 16.4016 5.46667C15.8682 5.46667 15.7349 5.33333 15.7349 5.2C15.4682 4.93333 15.0682 4.93333 14.8016 5.2C14.5349 5.46667 14.5349 5.86667 14.8016 6.13333C15.0682 6.53333 15.7349 6.66667 16.2682 6.66667C17.8682 6.8 19.4682 7.33333 20.6682 8C22.0016 8.8 23.0682 9.86667 23.8682 11.3333Z" fill="url(#paint1_linear_161_1490)"/>
<path d="M21.8669 14.3999C21.7335 13.4666 21.6002 12.7999 21.3335 12.2666C20.6669 10.9333 19.6002 10.1333 17.7335 9.99995C17.0669 9.86661 17.0669 9.86661 16.9335 9.73328C16.6669 9.46661 16.2669 9.33328 16.0002 9.59995C15.7335 9.86661 15.7335 10.2666 15.8669 10.5333C16.2669 10.9333 16.6669 11.0666 17.4669 11.1999C18.8002 11.3333 19.6002 11.8666 20.0002 12.7999C20.2669 13.3333 20.4002 13.8666 20.4002 14.5333C20.5335 15.1999 20.6669 15.7333 21.0669 15.9999C21.2002 16.1333 21.3335 16.1333 21.4669 16.1333C21.7335 16.1333 21.8669 15.9999 22.0002 15.8666C22.2669 15.5999 22.1335 15.1999 21.8669 14.9333C22.0002 14.9333 21.8669 14.9333 21.8669 14.3999Z" fill="url(#paint2_linear_161_1490)"/>
<path d="M30.4009 23.7335C30.0009 23.3335 27.8676 21.6002 26.9343 20.9335C26.1343 20.4002 25.0676 19.7335 24.4009 19.4669C23.6009 19.0669 22.6676 18.9335 21.8676 19.2002C21.2009 19.4669 20.9343 19.7335 20.1343 20.6669C19.7343 21.0669 19.4676 21.4669 19.4676 21.6002C19.4676 21.6002 19.3343 21.7335 19.2009 21.7335C18.8009 21.8669 18.1343 21.7335 16.9343 21.2002C15.8676 20.6669 15.0676 20.0002 14.0009 19.0669C13.0676 18.2669 12.2676 17.2002 11.7343 16.4002C11.0676 15.3335 10.6676 14.0002 10.6676 13.4669C10.6676 13.2002 10.6676 12.8002 10.8009 12.6669L10.9343 12.5335C11.0676 12.4002 11.3343 12.2669 11.6009 12.0002C12.8009 11.0669 13.2009 10.6669 13.3343 10.0002C13.4676 9.33353 13.3343 8.53353 12.8009 7.46686C12.0009 5.86686 9.4676 2.4002 8.40093 1.73353C8.2676 1.6002 7.8676 1.46686 7.73426 1.33353C7.20093 1.2002 6.53426 1.2002 6.13426 1.2002C5.60093 1.33353 4.93426 1.73353 3.60093 2.66686C2.93426 3.2002 1.8676 4.26686 1.4676 4.80019C0.800931 6.13353 0.934264 7.20019 1.60093 8.93353C2.53426 11.3335 3.73426 13.7335 5.20093 16.1335C5.4676 16.5335 5.60093 16.8002 5.8676 17.2002C6.13426 17.6002 6.40093 17.8669 6.6676 18.2669C9.0676 21.6002 12.0009 24.4002 15.3343 26.6669L15.4676 26.8002C15.6009 26.9335 15.8676 27.0669 16.0009 27.2002L16.4009 27.4669C16.6676 27.6002 16.8009 27.7335 17.0676 27.8669L20.8009 30.0002C21.0676 30.1335 21.3343 30.2669 21.6009 30.4002L22.0009 30.5335C22.4009 30.6669 22.8009 30.9335 23.2009 31.0669C24.0009 31.3335 24.4009 31.4669 24.9343 31.4669C25.0676 31.4669 25.0676 31.4669 25.2009 31.4669C26.1343 31.4669 26.9343 31.0669 27.8676 30.4002C28.9343 29.6002 30.4009 27.8669 30.8009 26.8002C31.2009 25.6002 31.0676 24.5335 30.4009 23.7335Z" fill="url(#paint3_linear_161_1490)"/>
<defs>
<linearGradient id="paint0_linear_161_1490" x1="21.6931" y1="0.654785" x2="21.6931" y2="19.0668" gradientUnits="userSpaceOnUse">
<stop stop-color="#F8EC20"/>
<stop offset="1" stop-color="#A79F1E"/>
</linearGradient>
<linearGradient id="paint1_linear_161_1490" x1="20.661" y1="5" x2="20.661" y2="17.8667" gradientUnits="userSpaceOnUse">
<stop stop-color="#F8EC20"/>
<stop offset="1" stop-color="#A79F1E"/>
</linearGradient>
<linearGradient id="paint2_linear_161_1490" x1="18.9624" y1="9.45459" x2="18.9624" y2="16.1333" gradientUnits="userSpaceOnUse">
<stop stop-color="#F8EC20"/>
<stop offset="1" stop-color="#A79F1E"/>
</linearGradient>
<linearGradient id="paint3_linear_161_1490" x1="16.0276" y1="1.2002" x2="16.0276" y2="31.4669" gradientUnits="userSpaceOnUse">
<stop stop-color="#F8EC20"/>
<stop offset="1" stop-color="#A79F1E"/>
</linearGradient>
</defs>
</svg>
