<svg width="50" height="50" viewBox="0 0 50 50" fill="none" xmlns="http://www.w3.org/2000/svg">
<path d="M20.6562 22.7883C20.6562 22.7883 22.1168 20.8823 23.3363 19.9166C24.4566 19.0319 24.9443 18.8142 25.0167 18.7841C25.0917 18.8142 25.5768 19.0319 26.6971 19.9166C27.9166 20.8823 29.3772 22.7883 29.3772 22.7883C29.3772 22.7883 32.7756 21.3848 32.7756 17.3691C32.7756 13.3533 29.7739 11.2806 29.7739 11.2806C33.3116 16.54 29.932 19.8031 29.932 19.8031C29.932 19.8031 29.262 19.7105 28.0559 18.4622C27.1531 17.5903 26.1348 16.813 25.0221 16.1463V16.1347V16.1463C23.9064 16.8089 22.8846 17.5823 21.9775 18.4506C20.7741 19.6989 20.1014 19.7915 20.1014 19.7915C20.1014 19.7915 16.7191 16.5284 20.2568 11.269C20.2568 11.269 17.2578 13.3302 17.2578 17.3575C17.2578 21.3848 20.6562 22.7883 20.6562 22.7883Z" fill="url(#paint0_linear_171_77)"/>
<path d="M21.6221 24.6294C21.3862 26.2505 22.4476 26.9105 22.4476 26.9105C22.4595 26.5288 22.5179 26.1492 22.6218 25.7781C22.7611 25.426 23.541 24.6201 24.3478 24.6201H25.6878C26.4918 24.6201 27.2744 25.4168 27.4165 25.7781C27.5185 26.1495 27.576 26.529 27.588 26.9105C27.588 26.9105 28.66 26.2505 28.4161 24.6294C28.1937 23.1032 25.3582 21.0259 25.0339 20.792V20.7688H25.0178H25.0017V20.792C24.6774 21.0259 21.8419 23.1032 21.6221 24.6294Z" fill="url(#paint1_linear_171_77)"/>
<path d="M30.0478 27.3276C29.5279 28.2767 28.6419 29.0398 27.5419 29.486C27.5419 29.486 25.1459 26.6143 25.0279 26.5263V26.5124V26.5263C24.91 26.6143 22.5167 29.486 22.5167 29.486C21.4076 29.0438 20.5125 28.2802 19.9867 27.3276C19.2255 25.8084 19.9867 23.8538 19.9867 23.8538C19.322 24.3771 17.9337 27.3276 19.4506 29.6296C19.8927 30.3042 20.5044 30.8846 21.2405 31.3278C21.9766 31.7711 22.8184 32.0661 23.704 32.1909C23.704 32.1909 23.1921 31.5332 23.6209 30.4517C23.8592 29.8259 24.3564 29.2982 25.0172 28.9695C25.678 29.2982 26.1752 29.8259 26.4135 30.4517C26.845 31.5332 26.3305 32.1909 26.3305 32.1909C27.2187 32.0667 28.0632 31.7716 28.8017 31.3275C29.5403 30.8833 30.1538 30.3015 30.5972 29.6249C32.1007 27.3091 30.7124 24.3725 30.0612 23.8491C30.0478 23.8538 30.8223 25.8084 30.0478 27.3276Z" fill="url(#paint2_linear_171_77)"/>
<path d="M12.9905 18.1033C13.3523 18.5827 17.9299 23.7934 17.9299 23.7934C17.9299 23.7934 18.8224 22.3136 18.0023 21.4289C17.1822 20.5442 14.9657 18.0639 14.5476 17.478C14.202 16.9594 14.0019 16.378 13.9634 15.7805C13.9124 15.2918 13.2478 8.73553 13.2478 8.73553C13.817 6.93344 14.7223 5.22353 15.9279 3.673C16.9055 2.38422 17.9873 1.15682 19.1654 0C19.1654 0 16.0002 1.9245 14.1885 4.32839C13.1137 5.73836 12.267 7.26866 11.6719 8.8768C11.6719 8.8768 12.0927 14.6503 12.1811 15.7851C12.209 16.6061 12.4883 17.406 12.9905 18.1033Z" fill="url(#paint3_linear_171_77)"/>
<path d="M13.2593 35.3381C13.2593 35.3381 13.2593 34.3237 13.9749 32.6099C14.6905 30.8962 17.191 27.0333 17.191 27.0333L17.3813 24.289L16.8855 23.6961C16.8855 23.6961 13.262 22.4918 11.7933 21.8133C10.3246 21.1347 9.93867 20.9494 9.93867 20.9494C9.38386 20.0346 8.91252 19.0838 8.52894 18.1055C7.77315 16.2829 7.47298 15.4538 7.47298 15.4538C7.30738 13.6728 7.26532 11.8849 7.34701 10.0995C7.47298 7.01244 7.66058 6.02124 7.66058 6.02124C7.66058 6.02124 6.75739 7.14676 6.35537 9.76371C5.95336 12.3807 5.86759 15.6322 5.86759 15.6322L8.1296 21.7947C8.1296 21.7947 10.0057 22.9064 12.4365 24.0597C13.2115 24.4432 14.0318 24.7537 14.8835 24.986L8.64418 25.8174L2.71847 30.2176C1.74994 31.9091 1.02967 33.6984 0.574387 35.5442C-0.192123 38.6359 0.0383663 42.0124 0.0383663 42.0124C0.0383663 42.0124 0.971043 38.6359 2.07793 35.6067C3.18481 32.5775 4.13625 31.1695 4.13625 31.1695L9.49645 27.5798L13.7417 27.2301L10.4667 34.4094C10.4667 34.4094 10.4372 35.3357 10.9062 37.42C11.3752 39.5043 13.3799 45.0416 13.3799 45.0416L18.4936 49.9999L18.9867 49.9235L15.1274 44.414L13.2593 35.3381Z" fill="url(#paint4_linear_171_77)"/>
<path d="M36.7536 8.73553C36.7536 8.73553 36.0889 15.2849 36.0353 15.7805C35.9968 16.378 35.7967 16.9594 35.4511 17.478C35.0357 18.0662 32.8165 20.5419 31.9964 21.4289C31.1763 22.3159 32.0688 23.7934 32.0688 23.7934C32.0688 23.7934 36.6491 18.5827 37.0109 18.1033C37.5115 17.4065 37.7889 16.6073 37.8149 15.7874C37.9061 14.6526 38.3268 8.87911 38.3268 8.87911C37.7304 7.27142 36.8838 5.74127 35.8102 4.33071C34.0011 1.9245 30.8359 0 30.8359 0C32.0181 1.15621 33.1037 2.38364 34.0842 3.673C35.2853 5.22452 36.1868 6.93428 36.7536 8.73553Z" fill="url(#paint5_linear_171_77)"/>
<path d="M49.4328 35.5372C48.9782 33.6913 48.2579 31.9019 47.2887 30.2107L41.3603 25.8105L35.1103 24.9814C35.961 24.749 36.7805 24.4384 37.5546 24.0551C39.9961 22.8971 41.8642 21.7901 41.8642 21.7901L44.1235 15.6275C44.1235 15.6275 44.0377 12.3853 43.6357 9.7614C43.2337 7.1375 42.3466 6.02124 42.3466 6.02124C42.3466 6.02124 42.5342 7.01012 42.6602 10.0972C42.7402 11.8826 42.6982 13.6705 42.5342 15.4515C42.5342 15.4515 42.2287 16.2806 41.4809 18.1032C41.0973 19.0814 40.626 20.0323 40.0712 20.9471C40.0712 20.9471 39.6853 21.1301 38.2166 21.811C36.7479 22.4918 33.1244 23.6938 33.1244 23.6938L32.6285 24.2866L32.8162 27.031C32.8162 27.031 35.3247 30.8939 36.0323 32.6076C36.7398 34.3214 36.7479 35.3357 36.7479 35.3357L34.8718 44.4117L31.0098 49.9235L31.5029 49.9999L36.6192 45.0462C36.6192 45.0462 38.6213 39.5159 39.093 37.4247C39.5647 35.3334 39.5325 34.414 39.5325 34.414L36.2574 27.2348L40.5 27.5845L45.8602 31.1741C45.8602 31.1741 46.8143 32.5821 47.9212 35.6113C49.0281 38.6405 49.9608 42.0171 49.9608 42.0171C49.9608 42.0171 50.202 38.6289 49.4328 35.5372Z" fill="url(#paint6_linear_171_77)"/>
<path d="M24.2071 23.8538H25.7911C25.8442 23.8537 25.8964 23.8414 25.9422 23.8181C25.9879 23.7948 26.0256 23.7613 26.0514 23.7211C26.0771 23.6809 26.0899 23.6355 26.0884 23.5896C26.0869 23.5437 26.0712 23.4989 26.043 23.4601L25.3355 22.4874C25.2955 22.4333 25.2399 22.3891 25.1742 22.3593C25.1084 22.3295 25.0348 22.315 24.9606 22.3174C24.8864 22.3197 24.8142 22.3388 24.7511 22.3727C24.6881 22.4065 24.6364 22.4541 24.6011 22.5105L23.9766 23.5203C23.957 23.5549 23.9476 23.5933 23.9494 23.6318C23.9513 23.6704 23.9642 23.7079 23.9871 23.7411C24.01 23.7742 24.0422 23.8019 24.0806 23.8215C24.119 23.8412 24.1625 23.8523 24.2071 23.8538Z" fill="#231F20"/>
<defs>
<linearGradient id="paint0_linear_171_77" x1="25.0167" y1="11.269" x2="25.0167" y2="22.7883" gradientUnits="userSpaceOnUse">
<stop stop-color="#F8EC20"/>
<stop offset="1" stop-color="#A79F1E"/>
</linearGradient>
<linearGradient id="paint1_linear_171_77" x1="25.0201" y1="20.7688" x2="25.0201" y2="26.9105" gradientUnits="userSpaceOnUse">
<stop stop-color="#F8EC20"/>
<stop offset="1" stop-color="#A79F1E"/>
</linearGradient>
<linearGradient id="paint2_linear_171_77" x1="25.0195" y1="23.8491" x2="25.0195" y2="32.1909" gradientUnits="userSpaceOnUse">
<stop stop-color="#F8EC20"/>
<stop offset="1" stop-color="#A79F1E"/>
</linearGradient>
<linearGradient id="paint3_linear_171_77" x1="15.4187" y1="0" x2="15.4187" y2="23.7934" gradientUnits="userSpaceOnUse">
<stop stop-color="#F8EC20"/>
<stop offset="1" stop-color="#A79F1E"/>
</linearGradient>
<linearGradient id="paint4_linear_171_77" x1="9.49628" y1="6.02124" x2="9.49628" y2="49.9999" gradientUnits="userSpaceOnUse">
<stop stop-color="#F8EC20"/>
<stop offset="1" stop-color="#A79F1E"/>
</linearGradient>
<linearGradient id="paint5_linear_171_77" x1="34.5814" y1="0" x2="34.5814" y2="23.7934" gradientUnits="userSpaceOnUse">
<stop stop-color="#F8EC20"/>
<stop offset="1" stop-color="#A79F1E"/>
</linearGradient>
<linearGradient id="paint6_linear_171_77" x1="40.5032" y1="6.02124" x2="40.5032" y2="49.9999" gradientUnits="userSpaceOnUse">
<stop stop-color="#F8EC20"/>
<stop offset="1" stop-color="#A79F1E"/>
</linearGradient>
</defs>
</svg>
