<svg width="50" height="50" viewBox="0 0 50 50" fill="none" xmlns="http://www.w3.org/2000/svg">
<path d="M38.3329 5H28.3329C27.4796 5 26.6263 5.325 25.9763 5.97667L5.97625 25.9767C4.67458 27.2783 4.67458 29.3883 5.97625 30.69L19.3096 44.0233C20.6113 45.325 22.7213 45.325 24.0229 44.0233C24.6746 43.3717 43.3713 24.675 44.0229 24.0233C44.6746 23.3733 44.9996 22.52 44.9996 21.6667V11.6667C44.9996 7.985 42.0146 5 38.3329 5ZM38.3329 15C36.4913 15 34.9996 13.5083 34.9996 11.6667C34.9996 9.825 36.4913 8.33333 38.3329 8.33333C40.1746 8.33333 41.6663 9.825 41.6663 11.6667C41.6663 13.5083 40.1746 15 38.3329 15Z" fill="url(#paint0_linear_688_1840)"/>
<defs>
<linearGradient id="paint0_linear_688_1840" x1="24.9998" y1="5" x2="24.9998" y2="44.9996" gradientUnits="userSpaceOnUse">
<stop stop-color="#F8EC20"/>
<stop offset="1" stop-color="#A79F1E"/>
</linearGradient>
</defs>
</svg>
