<svg width="50" height="50" viewBox="0 0 50 50" fill="none" xmlns="http://www.w3.org/2000/svg">
<g clip-path="url(#clip0_688_1846)">
<path d="M25 27.418C29.4334 27.418 33.0273 23.824 33.0273 19.3906C33.0273 14.9572 29.4334 11.3633 25 11.3633C20.5666 11.3633 16.9727 14.9572 16.9727 19.3906C16.9727 23.824 20.5666 27.418 25 27.418Z" fill="url(#paint0_linear_688_1846)"/>
<path d="M43.8825 18.6797C44.1461 18.3379 44.3385 17.9467 44.4482 17.5292C44.5579 17.1117 44.5827 16.6764 44.5211 16.2491C44.4595 15.8219 44.3129 15.4113 44.0898 15.0418C43.8667 14.6722 43.5717 14.3512 43.2224 14.0977L41.8552 13.1055C41.4044 12.7786 41.0458 12.3405 40.8145 11.834C40.5831 11.3275 40.4868 10.7697 40.5349 10.2149L40.6794 8.53128C40.7189 8.09989 40.6711 7.66496 40.5389 7.25243C40.4067 6.83989 40.1928 6.45821 39.9099 6.13012C39.627 5.80204 39.281 5.53428 38.8924 5.34281C38.5038 5.15134 38.0806 5.04008 37.6481 5.01566L35.9606 4.92191C35.4048 4.89025 34.8667 4.71534 34.3985 4.41416C33.9303 4.11299 33.548 3.6958 33.2888 3.20316L32.5075 1.70706C32.3049 1.3255 32.0277 0.988515 31.6925 0.716084C31.3572 0.443653 30.9706 0.241326 30.5557 0.121105C30.1407 0.000883272 29.7058 -0.0347853 29.2769 0.0162146C28.8479 0.0672145 28.4335 0.203844 28.0583 0.418001L26.5895 1.25003C26.1047 1.5246 25.5569 1.66891 24.9997 1.66891C24.4425 1.66891 23.8947 1.5246 23.4099 1.25003L21.9411 0.418001C21.5651 0.20506 21.1502 0.0698029 20.721 0.0202552C20.2917 -0.0292925 19.8569 0.00787817 19.4423 0.129562C19.0277 0.251245 18.6418 0.454963 18.3074 0.728629C17.973 1.00229 17.697 1.34033 17.4958 1.72269L16.7145 3.21878C16.4553 3.71143 16.073 4.12861 15.6048 4.42979C15.1366 4.73096 14.5985 4.90588 14.0427 4.93753L12.3552 5.03128C11.9227 5.0557 11.4995 5.16696 11.1109 5.35843C10.7223 5.54991 10.3763 5.81767 10.0934 6.14575C9.81051 6.47383 9.59659 6.85552 9.46439 7.26805C9.33219 7.68058 9.28442 8.11551 9.32391 8.54691L9.46844 10.2305C9.51653 10.7853 9.4202 11.3431 9.18884 11.8496C8.95747 12.3562 8.59895 12.7942 8.14813 13.1211L6.78094 14.1133C6.43156 14.3668 6.13658 14.6878 5.9135 15.0574C5.69041 15.427 5.54375 15.8375 5.48219 16.2648C5.42064 16.692 5.44544 17.1273 5.55513 17.5448C5.66482 17.9623 5.85717 18.3535 6.12079 18.6953L7.15204 20.0313C7.49243 20.4718 7.71304 20.9929 7.79245 21.5439C7.87185 22.0949 7.80733 22.6571 7.60516 23.1758L6.99188 24.7383C6.83511 25.1404 6.7606 25.5699 6.77278 26.0013C6.78495 26.4328 6.88355 26.8574 7.06275 27.25C7.24196 27.6426 7.49811 27.9953 7.81605 28.2872C8.13399 28.5791 8.50726 28.8042 8.91376 28.9493L10.5036 29.5157C11.0285 29.7023 11.4962 30.0216 11.861 30.4426C12.2259 30.8636 12.4755 31.3719 12.5856 31.918L12.8903 33.4024L8.83173 46.5938L15.2692 44.5782L19.277 50L22.9372 38.0352C23.485 38.4899 24.1679 38.7506 24.8794 38.7768C25.5909 38.8029 26.291 38.593 26.8708 38.1797L30.7224 50L34.7302 44.5782L41.1677 46.5938L37.0114 33.8438C37.0388 33.7539 37.0622 33.668 37.0817 33.5742L37.4138 31.918C37.5239 31.3719 37.7735 30.8636 38.1384 30.4426C38.5032 30.0216 38.9709 29.7023 39.4958 29.5157L41.0856 28.9493C41.4921 28.8042 41.8654 28.5791 42.1833 28.2872C42.5013 27.9953 42.7574 27.6426 42.9366 27.25C43.1158 26.8574 43.2144 26.4328 43.2266 26.0013C43.2388 25.5699 43.1643 25.1404 43.0075 24.7383L42.3942 23.1758C42.1921 22.6571 42.1275 22.0949 42.2069 21.5439C42.2863 20.9929 42.507 20.4718 42.8474 20.0313L43.8825 18.6797ZM13.8474 19.3907C13.8474 17.1849 14.5014 15.0287 15.7269 13.1947C16.9523 11.3608 18.6941 9.93133 20.7319 9.08723C22.7697 8.24314 25.0121 8.02229 27.1754 8.4526C29.3388 8.88292 31.3259 9.94508 32.8856 11.5048C34.4453 13.0644 35.5074 15.0516 35.9377 17.2149C36.3681 19.3783 36.1472 21.6206 35.3031 23.6585C34.459 25.6963 33.0296 27.4381 31.1956 28.6635C29.3616 29.8889 27.2054 30.543 24.9997 30.543C22.0429 30.5399 19.208 29.3639 17.1172 27.2731C15.0264 25.1823 13.8505 22.3475 13.8474 19.3907Z" fill="url(#paint1_linear_688_1846)"/>
</g>
<defs>
<linearGradient id="paint0_linear_688_1846" x1="25" y1="11.3633" x2="25" y2="27.418" gradientUnits="userSpaceOnUse">
<stop stop-color="#F8EC20"/>
<stop offset="1" stop-color="#A79F1E"/>
</linearGradient>
<linearGradient id="paint1_linear_688_1846" x1="25.0016" y1="-0.00634766" x2="25.0016" y2="50" gradientUnits="userSpaceOnUse">
<stop stop-color="#F8EC20"/>
<stop offset="1" stop-color="#A79F1E"/>
</linearGradient>
<clipPath id="clip0_688_1846">
<rect width="50" height="50" fill="white"/>
</clipPath>
</defs>
</svg>
