<svg width="50" height="50" viewBox="0 0 50 50" fill="none" xmlns="http://www.w3.org/2000/svg">
<path d="M25 0C11.1914 0 0 11.1914 0 25C0 38.8086 11.1914 50 25 50C38.8086 50 50 38.8086 50 25C50 11.1914 38.8086 0 25 0ZM32.8125 17.1875C34.54 17.1875 35.9365 18.584 35.9365 20.3125C35.9365 22.041 34.54 23.4375 32.8125 23.4375C31.085 23.4375 29.6855 22.041 29.6855 20.3125C29.6855 18.584 31.084 17.1875 32.8125 17.1875ZM17.0996 17.1875C18.8271 17.1875 20.2266 18.584 20.2266 20.3125C20.2266 22.041 18.8271 23.4375 17.0996 23.4375C15.3721 23.4375 13.9756 22.041 13.9756 20.3125C13.9756 18.584 15.459 17.1875 17.0996 17.1875ZM36.2109 33.8086C33.4277 37.1484 29.3457 38.9746 25 38.9746C20.6543 38.9746 16.5752 37.0654 13.7891 33.7246C12.4619 32.1328 14.8584 30.1406 16.1885 31.7227C18.3789 34.4336 21.582 35.9277 25 35.9277C28.418 35.9277 31.623 34.4219 33.8086 31.8047C35.1172 30.2246 37.5293 32.2168 36.2109 33.8086Z" fill="url(#paint0_linear_688_1842)"/>
<defs>
<linearGradient id="paint0_linear_688_1842" x1="25" y1="0" x2="25" y2="50" gradientUnits="userSpaceOnUse">
<stop stop-color="#F8EC20"/>
<stop offset="1" stop-color="#A79F1E"/>
</linearGradient>
</defs>
</svg>
