<svg width="40" height="40" viewBox="0 0 40 40" fill="none" xmlns="http://www.w3.org/2000/svg">
<g clip-path="url(#clip0_907_363)">
<path d="M20 40C31.0457 40 40 31.0457 40 20C40 8.9543 31.0457 0 20 0C8.9543 0 0 8.9543 0 20C0 31.0457 8.9543 40 20 40Z" fill="url(#paint0_linear_907_363)"/>
<path d="M15.8672 17.5625C16.4192 17.5625 16.8672 17.1145 16.8672 16.5625V12.6625C16.8672 10.919 18.2857 9.5 20.0292 9.5C21.7727 9.5 23.1917 10.919 23.1917 12.6625V16.5625C23.1917 17.1145 23.6392 17.5625 24.1917 17.5625C24.7437 17.5625 25.1917 17.1145 25.1917 16.5625V12.6625C25.1922 9.816 22.8762 7.5 20.0292 7.5C17.1832 7.5 14.8672 9.816 14.8672 12.6625V16.5625C14.8672 17.1145 15.3152 17.5625 15.8672 17.5625Z" fill="url(#paint1_linear_907_363)"/>
<path d="M31.5005 15.3154H26.1925V16.5624C26.1925 17.6654 25.2955 18.5624 24.1925 18.5624C23.0895 18.5624 22.1925 17.6654 22.1925 16.5624V15.3154H17.868V16.5624C17.868 17.6654 16.971 18.5624 15.868 18.5624C14.765 18.5624 13.868 17.6654 13.868 16.5624V15.3154H8.50047C8.22447 15.3154 8.05397 15.5329 8.11947 15.8009L11.6185 30.0494C11.8295 30.8504 12.6725 31.4999 13.5005 31.4999H26.5005C27.3295 31.4999 28.1715 30.8504 28.3835 30.0494L31.8815 15.8009C31.947 15.5324 31.777 15.3154 31.5005 15.3154Z" fill="url(#paint2_linear_907_363)"/>
</g>
<defs>
<linearGradient id="paint0_linear_907_363" x1="20" y1="0" x2="20" y2="40" gradientUnits="userSpaceOnUse">
<stop stop-color="#F8EC20"/>
<stop offset="1" stop-color="#A79F1E"/>
</linearGradient>
<linearGradient id="paint1_linear_907_363" x1="11.8182" y1="13.2627" x2="27.7874" y2="11.3999" gradientUnits="userSpaceOnUse">
<stop stop-color="#232524"/>
<stop offset="0.770833" stop-color="#151B27" stop-opacity="0.84"/>
</linearGradient>
<linearGradient id="paint2_linear_907_363" x1="1.08" y1="24.584" x2="37.3642" y2="18.5206" gradientUnits="userSpaceOnUse">
<stop stop-color="#232524"/>
<stop offset="0.770833" stop-color="#151B27" stop-opacity="0.84"/>
</linearGradient>
<clipPath id="clip0_907_363">
<rect width="40" height="40" fill="white"/>
</clipPath>
</defs>
</svg>
