<svg width="50" height="40" viewBox="0 0 50 40" fill="none" xmlns="http://www.w3.org/2000/svg">
<path d="M38.7195 3.51275C33.3333 3.51275 29.2683 7.47875 27.6423 13.711C25.1016 9.29178 23.0691 4.30595 21.9512 0H16.2602V16.6572C16.2602 19.9433 13.8211 22.6629 10.874 22.6629C7.92683 22.6629 5.4878 19.9433 5.4878 16.6572V0.113314H0V16.7705C0 23.6827 4.97967 29.2351 11.0772 29.2351C17.1748 29.2351 22.1545 23.6827 22.1545 16.7705V13.9377C23.2724 16.4306 24.6951 19.1501 26.2195 21.5297L22.6626 40H28.4553L30.8943 26.5156C33.1301 28.102 35.6707 29.0085 38.7195 29.0085C44.9187 29.0085 50 23.3428 50 16.0906C50 9.17847 44.9187 3.51275 38.7195 3.51275ZM38.7195 22.6629C36.4837 22.6629 34.1463 21.5297 32.3171 19.83L32.9268 17.3371V17.2238C33.3333 14.5042 34.6545 9.97167 38.8211 9.97167C41.9715 9.97167 44.5122 12.8045 44.5122 16.3173C44.4106 19.83 41.6667 22.6629 38.7195 22.6629Z" fill="url(#paint0_linear_906_362)"/>
<defs>
<linearGradient id="paint0_linear_906_362" x1="25" y1="0" x2="25" y2="40" gradientUnits="userSpaceOnUse">
<stop stop-color="#F8EC20"/>
<stop offset="1" stop-color="#A79F1E"/>
</linearGradient>
</defs>
</svg>
