<svg width="25" height="25" viewBox="0 0 25 25" fill="none" xmlns="http://www.w3.org/2000/svg">
<path fill-rule="evenodd" clip-rule="evenodd" d="M24.7184 17.0261C25.0939 16.6506 25.0939 16.0418 24.7184 15.6662L17.0261 7.97387C16.6505 7.59837 16.0418 7.59837 15.6663 7.97387C15.2908 8.34937 15.2908 8.95825 15.6663 9.33375L21.7171 15.3846L8.65385 15.3846C4.93655 15.3846 1.92308 12.3711 1.92308 8.65387L1.92308 0.961498C1.92308 0.430498 1.49257 -4.17232e-07 0.961537 -4.17232e-07C0.4305 -4.17232e-07 0 0.430498 0 0.961498L0 8.65387C0 13.4333 3.87446 17.3077 8.65385 17.3077L21.7171 17.3077L15.6663 23.3586C15.2908 23.7341 15.2908 24.3429 15.6663 24.7184C16.0418 25.0939 16.6505 25.0939 17.0261 24.7184L24.7184 17.0261Z" fill="white"/>
</svg>
