<svg width="28" height="25" viewBox="0 0 28 25" fill="none" xmlns="http://www.w3.org/2000/svg">
<path d="M14 2.99997C13.962 2.99997 13.917 2.99897 13.872 2.99897C11.774 2.99897 9.77002 3.39797 7.93002 4.12297L8.04002 4.08497C6.30002 4.72897 4.82302 5.72997 3.64002 7.00697L3.63302 7.01397C2.64302 8.04997 2.02502 9.44997 2.00002 10.994V10.999C2.01302 12.257 2.43202 13.414 3.13102 14.35L3.12002 14.335C3.95502 15.466 5.00502 16.388 6.21602 17.054L6.26502 17.079L7.62502 17.861L7.19902 19.359C6.92702 20.38 6.55302 21.274 6.07702 22.1L6.10602 22.046C7.75702 21.355 9.17702 20.456 10.419 19.36L10.402 19.374L11.074 18.78L11.964 18.874C12.571 18.951 13.276 18.996 13.992 18.999H13.996C14.034 18.999 14.079 19 14.124 19C16.222 19 18.226 18.601 20.066 17.876L19.956 17.914C21.696 17.27 23.173 16.269 24.356 14.992L24.363 14.985C25.372 13.96 25.995 12.553 25.995 11.001C25.995 9.44897 25.372 8.04097 24.362 7.01597L24.363 7.01697C23.173 5.73297 21.697 4.73097 20.034 4.11297L19.956 4.08797C18.226 3.40097 16.221 3.00197 14.123 3.00197C14.079 3.00197 14.035 3.00197 13.991 3.00297H13.998L14 2.99997ZM28 11C27.988 12.924 27.28 14.681 26.116 16.033L26.125 16.023C24.776 17.615 23.066 18.86 21.117 19.634L21.031 19.664C19.008 20.51 16.657 21.001 14.192 21.001C14.124 21.001 14.057 21.001 13.99 21H14C13.2 20.998 12.412 20.953 11.637 20.866L11.734 20.875C9.75302 22.634 7.33502 23.947 4.66502 24.631L4.54702 24.657C4.04402 24.802 3.44002 24.923 2.82102 24.996L2.76602 25.001H2.68602C2.52302 25.001 2.37502 24.939 2.26402 24.837C2.14102 24.726 2.05202 24.579 2.01502 24.413L2.01402 24.408V24.392C1.99702 24.363 1.98702 24.328 1.98702 24.29C1.98702 24.257 1.99502 24.227 2.00802 24.199L2.00702 24.2C2.02702 24.153 2.03802 24.099 2.03802 24.041C2.03802 24.04 2.03802 24.04 2.03802 24.039C2.03269 24.0183 2.05602 23.9686 2.10802 23.89L2.20202 23.749L2.31202 23.616L2.43702 23.475C2.51036 23.3916 2.67169 23.212 2.92102 22.936L3.46002 22.342C3.56936 22.222 3.73069 22.0163 3.94402 21.725C4.11802 21.494 4.28702 21.232 4.43502 20.958L4.45202 20.925C4.57669 20.6856 4.71736 20.3783 4.87402 20.003C5.01102 19.686 5.15002 19.291 5.26402 18.886L5.28102 18.816C3.72302 17.955 2.42902 16.798 1.43702 15.411L1.41302 15.376C0.535023 14.16 0.00602344 12.641 -0.000976562 10.999V10.997C0.0110234 9.07297 0.719023 7.31597 1.88302 5.96397L1.87402 5.97397C3.22302 4.38197 4.93302 3.13697 6.88202 2.36297L6.96802 2.33297C8.99102 1.48697 11.342 0.995972 13.807 0.995972C13.875 0.995972 13.942 0.995972 14.009 0.996972H13.999C14.056 0.995972 14.124 0.995972 14.191 0.995972C16.656 0.995972 19.007 1.48697 21.15 2.37697L21.03 2.33297C23.064 3.13697 24.775 4.38097 26.108 5.95497L26.123 5.97297C27.278 7.31497 27.986 9.07197 27.998 10.994V10.997L28 11Z" fill="#E2E2DA"/>
</svg>
