<svg width="24" height="24" viewBox="0 0 24 24" fill="none" xmlns="http://www.w3.org/2000/svg">
<path d="M21.457 16.5C21.457 15.4391 21.0356 14.4217 20.2855 13.6716C19.5353 12.9214 18.5179 12.5 17.457 12.5H16.957V12C16.957 11.7348 16.8517 11.4804 16.6641 11.2929C16.4766 11.1054 16.2222 11 15.957 11H3.95703C3.69181 11 3.43746 11.1054 3.24992 11.2929C3.06239 11.4804 2.95703 11.7348 2.95703 12V21.5C2.95703 21.8283 3.0217 22.1534 3.14733 22.4567C3.27297 22.76 3.45712 23.0356 3.68926 23.2678C3.92141 23.4999 4.19701 23.6841 4.50032 23.8097C4.80364 23.9353 5.12873 24 5.45703 24H14.457C14.7853 24 15.1104 23.9353 15.4137 23.8097C15.7171 23.6841 15.9927 23.4999 16.2248 23.2678C16.4569 23.0356 16.6411 22.76 16.7667 22.4567C16.8924 22.1534 16.957 21.8283 16.957 21.5V20.5H17.457C18.5179 20.5 19.5353 20.0786 20.2855 19.3284C21.0356 18.5783 21.457 17.5609 21.457 16.5ZM17.457 18.5H17.207C17.1742 18.5001 17.1416 18.4938 17.1112 18.4812C17.0808 18.4687 17.0532 18.4503 17.03 18.4271C17.0067 18.4038 16.9883 18.3762 16.9758 18.3458C16.9633 18.3154 16.9569 18.2829 16.957 18.25V14.75C16.957 14.6837 16.9834 14.6201 17.0303 14.5732C17.0771 14.5263 17.1407 14.5 17.207 14.5H17.457C17.9875 14.5 18.4962 14.7107 18.8712 15.0858C19.2463 15.4609 19.457 15.9696 19.457 16.5C19.457 17.0304 19.2463 17.5391 18.8712 17.9142C18.4962 18.2893 17.9875 18.5 17.457 18.5Z" fill="url(#paint0_linear_156_695)"/>
<path d="M5.64873 2.86495C5.6869 2.84424 5.71902 2.81394 5.74192 2.77704C5.76482 2.74014 5.77771 2.69791 5.77933 2.65451C5.78094 2.61111 5.77122 2.56804 5.75113 2.52954C5.73103 2.49104 5.70126 2.45844 5.66473 2.43495L3.29973 0.904948C3.21785 0.855944 3.12366 0.831396 3.02827 0.8342C2.93289 0.837005 2.8403 0.867047 2.76144 0.920778C2.68258 0.974508 2.62074 1.04968 2.58322 1.13743C2.54571 1.22517 2.53409 1.32181 2.54973 1.41595L2.97173 3.94595C2.97822 3.98533 2.99405 4.02258 3.01788 4.05459C3.04172 4.0866 3.07287 4.11244 3.10873 4.12995C3.14421 4.14796 3.18344 4.15734 3.22323 4.15734C3.26302 4.15734 3.30225 4.14796 3.33773 4.12995L5.64873 2.86495Z" fill="url(#paint1_linear_156_695)"/>
<path d="M3.64632 5.09408C3.58918 5.12577 3.54671 5.17858 3.52802 5.24119C3.50933 5.30381 3.5159 5.37125 3.54632 5.42908L5.76632 9.72908C5.80847 9.81045 5.87218 9.87867 5.95049 9.92629C6.02879 9.97391 6.11867 9.99909 6.21032 9.99908H9.21032C9.29729 9.99924 9.3828 9.97671 9.4584 9.93372C9.534 9.89073 9.59708 9.82876 9.64141 9.75393C9.68574 9.67911 9.70978 9.59402 9.71117 9.50706C9.71256 9.4201 9.69124 9.33428 9.64932 9.25808L6.62332 3.75808C6.59161 3.69988 6.53809 3.65665 6.47452 3.6379C6.41095 3.61915 6.34254 3.62641 6.28432 3.65808L3.64632 5.09408Z" fill="url(#paint2_linear_156_695)"/>
<path d="M13.5385 7.29307H13.5325C13.3091 7.1989 13.0959 7.08195 12.8965 6.94407C12.8677 6.92447 12.8352 6.91106 12.8009 6.90467C12.7667 6.89828 12.7315 6.89905 12.6976 6.90695C12.6637 6.91484 12.6317 6.92968 12.6038 6.95053C12.5759 6.97137 12.5527 6.99778 12.5355 7.02807L11.2935 9.25707C11.2512 9.33318 11.2295 9.41903 11.2305 9.50611C11.2316 9.59319 11.2553 9.67849 11.2995 9.75356C11.3436 9.82862 11.4066 9.89086 11.4822 9.93409C11.5578 9.97733 11.6434 10.0001 11.7305 10.0001H13.5625C13.6641 10.0001 13.7633 9.96928 13.8469 9.91158C13.9305 9.85388 13.9945 9.77208 14.0305 9.67707L14.7005 7.89307C14.7139 7.85787 14.7193 7.82008 14.7161 7.78252C14.7128 7.74497 14.7012 7.70863 14.682 7.67622C14.6627 7.64381 14.6364 7.61617 14.605 7.59536C14.5736 7.57456 14.5378 7.56113 14.5005 7.55607C14.2692 7.52668 14.0414 7.47442 13.8205 7.40007C13.7275 7.36907 13.6335 7.33307 13.5385 7.29307Z" fill="url(#paint3_linear_156_695)"/>
<path d="M17.0169 2.81496C16.8648 2.12846 16.5192 1.4999 16.021 1.00368C15.5229 0.507464 14.893 0.164351 14.2059 0.0149558C14.1083 -0.00860398 14.006 -0.00227545 13.9121 0.0331185C13.8182 0.0685125 13.7371 0.131334 13.6794 0.213416C13.6217 0.295498 13.5901 0.393043 13.5885 0.493368C13.587 0.593692 13.6157 0.692156 13.6709 0.775956C14.1999 1.58196 13.8809 2.05796 13.3179 2.76996C13.1011 3.01724 12.9188 3.29274 12.7759 3.58896C12.6552 3.84552 12.5894 4.12444 12.5826 4.40789C12.5759 4.69134 12.6283 4.97309 12.7366 5.23511C12.845 5.49713 13.0068 5.73366 13.2117 5.92959C13.4167 6.12552 13.6603 6.27652 13.9269 6.37296C14.2851 6.55519 14.689 6.6279 15.0882 6.58201C15.4875 6.53613 15.8644 6.37369 16.1719 6.11496C16.5938 5.68996 16.8946 5.16 17.0431 4.57986C17.1917 3.99972 17.1826 3.39043 17.0169 2.81496Z" fill="url(#paint4_linear_156_695)"/>
<defs>
<linearGradient id="paint0_linear_156_695" x1="-2.50625" y1="18.4449" x2="25.7578" y2="13.8722" gradientUnits="userSpaceOnUse">
<stop stop-color="#232524"/>
<stop offset="0.770833" stop-color="#151B27" stop-opacity="0.84"/>
</linearGradient>
<linearGradient id="paint1_linear_156_695" x1="1.58718" y1="2.73722" x2="6.59989" y2="2.18223" gradientUnits="userSpaceOnUse">
<stop stop-color="#232524"/>
<stop offset="0.770833" stop-color="#151B27" stop-opacity="0.84"/>
</linearGradient>
<linearGradient id="paint2_linear_156_695" x1="1.68851" y1="7.27649" x2="11.2816" y2="6.21631" gradientUnits="userSpaceOnUse">
<stop stop-color="#232524"/>
<stop offset="0.770833" stop-color="#151B27" stop-opacity="0.84"/>
</linearGradient>
<linearGradient id="paint3_linear_156_695" x1="10.2009" y1="8.67553" x2="15.579" y2="7.98781" gradientUnits="userSpaceOnUse">
<stop stop-color="#232524"/>
<stop offset="0.770833" stop-color="#151B27" stop-opacity="0.84"/>
</linearGradient>
<linearGradient id="paint4_linear_156_695" x1="11.2336" y1="3.7775" x2="18.3483" y2="3.21743" gradientUnits="userSpaceOnUse">
<stop stop-color="#232524"/>
<stop offset="0.770833" stop-color="#151B27" stop-opacity="0.84"/>
</linearGradient>
</defs>
</svg>
