<svg width="30" height="24" viewBox="0 0 30 24" fill="none" xmlns="http://www.w3.org/2000/svg">
<g clip-path="url(#clip0_156_772)">
<path d="M13.0726 23.9765L10.2133 23.1468C9.91327 23.0625 9.74452 22.7484 9.82889 22.4484L16.2273 0.407779C16.3117 0.107779 16.6258 -0.0609711 16.9258 0.0234039L19.7851 0.853092C20.0851 0.937467 20.2539 1.25153 20.1695 1.55153L13.7711 23.5922C13.682 23.8922 13.3726 24.0656 13.0726 23.9765ZM7.72889 18.7172L9.76795 16.5422C9.98358 16.3125 9.96952 15.9468 9.73045 15.7359L5.48359 12L9.73045 8.26403C9.96952 8.05309 9.98827 7.68747 9.76795 7.45778L7.72889 5.28278C7.51796 5.05778 7.16171 5.04372 6.93202 5.25934L0.177343 11.5875C-0.0617187 11.8078 -0.0617187 12.1875 0.177343 12.4078L6.93202 18.7406C7.16171 18.9562 7.51796 18.9468 7.72889 18.7172ZM23.0664 18.7453L29.8211 12.4125C30.0601 12.1922 30.0601 11.8125 29.8211 11.5922L23.0664 5.25465C22.8414 5.04372 22.4851 5.05309 22.2695 5.27809L20.2304 7.45309C20.0148 7.68278 20.0289 8.04841 20.2679 8.25934L24.5148 12L20.2679 15.7359C20.0289 15.9468 20.0101 16.3125 20.2304 16.5422L22.2695 18.7172C22.4804 18.9468 22.8367 18.9562 23.0664 18.7453Z" fill="url(#paint0_linear_156_772)"/>
</g>
<defs>
<linearGradient id="paint0_linear_156_772" x1="-8.86201" y1="13.7451" x2="37.2436" y2="7.19216" gradientUnits="userSpaceOnUse">
<stop stop-color="#232524"/>
<stop offset="0.770833" stop-color="#151B27" stop-opacity="0.84"/>
</linearGradient>
<clipPath id="clip0_156_772">
<rect width="30" height="24" fill="white"/>
</clipPath>
</defs>
</svg>
