<svg width="22" height="18" viewBox="0 0 22 18" fill="none" xmlns="http://www.w3.org/2000/svg">
<path d="M18.0315 2.40061C18.0259 2.38972 18.0166 2.38119 18.0053 2.37655C16.6948 1.77528 15.3118 1.34653 13.8911 1.10103C13.8782 1.09863 13.8648 1.10036 13.8529 1.10597C13.8411 1.11159 13.8313 1.12081 13.825 1.13231C13.6366 1.4741 13.4657 1.82517 13.3128 2.18418C11.7812 1.9517 10.2234 1.9517 8.69188 2.18418C8.53794 1.82426 8.36425 1.4731 8.17161 1.13231C8.165 1.12106 8.15516 1.11205 8.14336 1.10647C8.13157 1.10089 8.11836 1.099 8.10547 1.10103C6.68454 1.34602 5.30151 1.7748 3.9912 2.37658C3.97998 2.38134 3.97052 2.38946 3.96411 2.39982C1.34374 6.313 0.62592 10.13 0.978058 13.8997C0.979048 13.9089 0.981887 13.9178 0.986404 13.926C0.990922 13.9341 0.997026 13.9412 1.00435 13.9469C2.53017 15.0767 4.23682 15.939 6.05146 16.4972C6.06424 16.501 6.07789 16.5008 6.09057 16.4967C6.10325 16.4925 6.11435 16.4846 6.12238 16.4739C6.51213 15.9436 6.85747 15.3821 7.1549 14.795C7.15899 14.7869 7.16132 14.7781 7.16175 14.7691C7.16217 14.7601 7.16068 14.7511 7.15737 14.7426C7.15406 14.7342 7.14901 14.7266 7.14255 14.7203C7.13608 14.714 7.12836 14.7091 7.11987 14.706C6.57529 14.4977 6.04807 14.2465 5.54316 13.9548C5.53399 13.9494 5.52629 13.9419 5.52073 13.9328C5.51518 13.9237 5.51194 13.9134 5.51132 13.9028C5.51069 13.8922 5.51268 13.8816 5.51713 13.8719C5.52157 13.8622 5.52833 13.8538 5.5368 13.8474C5.64275 13.768 5.74876 13.6854 5.84992 13.602C5.85891 13.5946 5.86979 13.5899 5.88133 13.5883C5.89287 13.5868 5.90461 13.5885 5.91524 13.5932C9.22311 15.1029 12.8043 15.1029 16.073 13.5932C16.0837 13.5882 16.0956 13.5862 16.1073 13.5877C16.119 13.5891 16.1301 13.5938 16.1392 13.6013C16.2404 13.6846 16.3464 13.768 16.4531 13.8474C16.4616 13.8538 16.4684 13.8621 16.4729 13.8717C16.4775 13.8814 16.4795 13.892 16.479 13.9026C16.4784 13.9132 16.4753 13.9235 16.4698 13.9326C16.4643 13.9418 16.4567 13.9494 16.4475 13.9548C15.9438 14.2489 15.4161 14.5 14.8701 14.7052C14.8616 14.7085 14.8539 14.7134 14.8475 14.7199C14.841 14.7263 14.836 14.734 14.8328 14.7424C14.8295 14.7509 14.8281 14.76 14.8286 14.769C14.8291 14.7781 14.8315 14.7869 14.8357 14.795C15.1381 15.3788 15.4829 15.9397 15.8674 16.473C15.8752 16.484 15.8863 16.4922 15.899 16.4965C15.9117 16.5008 15.9255 16.501 15.9383 16.4971C17.7562 15.9408 19.4659 15.0784 20.9936 13.9469C21.001 13.9415 21.0072 13.9345 21.0118 13.9265C21.0163 13.9185 21.0191 13.9096 21.0199 13.9005C21.4415 9.54229 20.3141 5.75661 18.0315 2.40061ZM7.6489 11.6043C6.65299 11.6043 5.83239 10.6904 5.83239 9.56797C5.83239 8.44556 6.63708 7.53156 7.6489 7.53156C8.66864 7.53156 9.4813 8.4535 9.46538 9.5679C9.46538 10.6904 8.66066 11.6043 7.6489 11.6043ZM14.3651 11.6043C13.3692 11.6043 12.5486 10.6904 12.5486 9.56797C12.5486 8.44556 13.3533 7.53156 14.3651 7.53156C15.3849 7.53156 16.1975 8.4535 16.1816 9.5679C16.1816 10.6904 15.3849 11.6043 14.3651 11.6043Z" fill="url(#paint0_linear_860_765)"/>
<defs>
<linearGradient id="paint0_linear_860_765" x1="11.0007" y1="1.09998" x2="11.0007" y2="16.4999" gradientUnits="userSpaceOnUse">
<stop stop-color="#F8EC20"/>
<stop offset="1" stop-color="#A79F1E"/>
</linearGradient>
</defs>
</svg>
