<svg width="22" height="22" viewBox="0 0 22 22" fill="none" xmlns="http://www.w3.org/2000/svg">
<path fill-rule="evenodd" clip-rule="evenodd" d="M11.0005 0C4.92778 0 0.00390625 4.92387 0.00390625 10.9979C0.00390625 15.8565 3.15403 19.9788 7.52516 21.4335C8.07516 21.5339 8.24841 21.208 8.24841 20.9165C8.24841 20.6553 8.25391 19.9251 8.24841 19.0073C5.18972 19.6721 4.55584 17.5588 4.55584 17.5588C4.05603 16.2882 3.33553 15.95 3.33553 15.95C2.33728 15.268 3.41047 15.2811 3.41047 15.2811C4.51391 15.3587 5.09553 16.4147 5.09553 16.4147C6.07659 18.0943 7.66884 17.6089 8.29516 17.3284C8.39553 16.6176 8.68015 16.1329 8.99434 15.8579C6.55234 15.5801 3.98522 14.6369 3.98522 10.4225C3.98522 9.22144 4.41353 8.24038 5.11684 7.47175C5.00341 7.194 4.62528 6.07544 5.22478 4.56087C5.22478 4.56087 6.14809 4.26525 8.24841 5.68906C9.12566 5.445 10.0668 5.32331 11.0018 5.31919C11.9362 5.32331 12.8767 5.445 13.7553 5.68906C15.8556 4.26594 16.7775 4.56087 16.7775 4.56087C17.377 6.07544 16.9996 7.194 16.8868 7.47175C17.5902 8.24038 18.0171 9.22144 18.0171 10.4225C18.0171 14.6479 15.4458 15.5774 12.9956 15.8489C13.3902 16.1892 13.7484 16.8493 13.7484 17.875C13.7484 19.25 13.7484 20.5576 13.7484 20.9193C13.7484 21.2135 13.9258 21.5387 14.484 21.4321C18.851 19.9753 21.9984 15.8551 21.9984 10.9979C21.9984 4.92387 17.0745 0 11.0005 0Z" fill="url(#paint0_linear_860_757)"/>
<defs>
<linearGradient id="paint0_linear_860_757" x1="11.0012" y1="0" x2="11.0012" y2="21.4528" gradientUnits="userSpaceOnUse">
<stop stop-color="#F8EC20"/>
<stop offset="1" stop-color="#A79F1E"/>
</linearGradient>
</defs>
</svg>
