<svg width="22" height="23" viewBox="0 0 22 23" fill="none" xmlns="http://www.w3.org/2000/svg">
<g clip-path="url(#clip0_860_767)">
<path fill-rule="evenodd" clip-rule="evenodd" d="M20.9094 1.20747C21.4049 1.86228 21.6282 2.94771 21.7382 4.26729C21.8836 6.23648 21.942 8.59952 21.9978 11.0413C21.9256 13.5286 21.8961 16.037 21.7382 17.8153C21.6135 19.1804 21.3487 20.0944 20.9063 20.6488C20.3437 21.2024 19.2643 21.6698 17.7253 21.7806C15.8535 21.9403 13.5442 21.9385 10.9963 22.0013C8.16415 21.9528 6.24342 21.9736 4.22836 21.7814C2.65646 21.6724 1.62815 21.2106 0.995416 20.6531C0.526705 20.0239 0.389511 19.3548 0.259674 17.7863C0.0973777 15.9751 0.0614561 13.5208 0 11.0547C0.0921842 8.60168 0.0978105 6.12915 0.260972 4.28114C0.370468 2.82307 0.543151 1.8428 0.985895 1.21959C1.60695 0.690283 2.66642 0.427147 4.24697 0.29731C6.41091 0.0441282 8.66402 -0.00564259 10.9933 -1.63245e-05C13.3905 0.00387878 15.6917 0.0722595 17.7448 0.274372C19.1297 0.385167 20.2758 0.623634 20.9072 1.20747H20.9094Z" fill="url(#paint0_linear_860_767)"/>
<path d="M16.1443 4.75244H12.9014C12.3043 4.75244 11.8203 5.23647 11.8203 5.83355V11.2382C11.8203 11.8353 12.3043 12.3193 12.9014 12.3193H16.1443C16.7414 12.3193 17.2254 11.8353 17.2254 11.2382V5.83355C17.2254 5.23647 16.7414 4.75244 16.1443 4.75244Z" fill="url(#paint1_linear_860_767)"/>
<path d="M8.57791 4.75244H5.33501C4.73793 4.75244 4.25391 5.23647 4.25391 5.83355V15.5622C4.25391 16.1593 4.73793 16.6433 5.33501 16.6433H8.57791C9.17499 16.6433 9.65902 16.1593 9.65902 15.5622V5.83355C9.65902 5.23647 9.17499 4.75244 8.57791 4.75244Z" fill="url(#paint2_linear_860_767)"/>
</g>
<defs>
<linearGradient id="paint0_linear_860_767" x1="10.9989" y1="-0.000427246" x2="10.9989" y2="22.0013" gradientUnits="userSpaceOnUse">
<stop stop-color="#F8EC20"/>
<stop offset="1" stop-color="#A79F1E"/>
</linearGradient>
<linearGradient id="paint1_linear_860_767" x1="10.2241" y1="9.08589" x2="18.6426" y2="8.40225" gradientUnits="userSpaceOnUse">
<stop stop-color="#232524"/>
<stop offset="0.770833" stop-color="#151B27" stop-opacity="0.84"/>
</linearGradient>
<linearGradient id="paint2_linear_860_767" x1="2.65771" y1="11.5622" x2="11.1092" y2="11.1254" gradientUnits="userSpaceOnUse">
<stop stop-color="#232524"/>
<stop offset="0.770833" stop-color="#151B27" stop-opacity="0.84"/>
</linearGradient>
<clipPath id="clip0_860_767">
<rect width="22" height="22.0013" fill="white"/>
</clipPath>
</defs>
</svg>
