<svg width="36" height="50" viewBox="0 0 36 50" fill="none" xmlns="http://www.w3.org/2000/svg">
<g clip-path="url(#clip0_646_363)">
<path fill-rule="evenodd" clip-rule="evenodd" d="M30.7943 31.2049L36 43.2706L29.4736 43.1953L24.1101 47.5089L19.4055 36.1432C20.7656 35.8157 22.1119 35.1343 23.471 34.0774L23.6347 33.9581L23.6318 33.9542L23.7205 33.8858L23.7166 33.8799C23.8892 33.743 24.0667 33.6032 24.2245 33.4839C24.553 33.5045 24.9081 33.5172 25.3509 33.4966C25.9614 33.4693 26.6163 33.3734 27.3403 33.1427C27.9774 32.9393 28.5682 32.69 29.1107 32.3928C29.6707 32.0873 30.197 31.7246 30.6809 31.3105L30.6769 31.3056L30.7943 31.2049ZM17.4516 0.00197777C18.1036 -0.0156206 18.6865 0.0850814 19.2279 0.269865C19.727 0.439982 20.1847 0.683427 20.6354 0.966957C21.093 1.24853 21.5241 1.61125 21.9847 2.00233C22.4255 2.37581 22.9118 2.78644 23.4 3.06312L23.4316 3.0817C23.6328 3.15796 24.1466 3.17849 24.6842 3.19707C26.5572 3.2655 28.5781 3.33981 30.095 5.57187L30.1779 5.70386C31.2638 7.35811 31.3447 8.59684 31.4226 9.80918L31.4265 9.89424C31.4512 10.2677 31.4946 10.6187 31.6129 10.9658C31.7431 11.3324 31.9719 11.7548 32.3763 12.2857C33.4721 13.7209 34.1487 14.9792 34.4268 16.2003C34.7563 17.6493 34.5403 18.9398 33.8055 20.2382C33.2818 21.1611 32.5825 21.7556 31.966 22.2786C31.7431 22.4673 31.6327 22.4302 31.5883 22.5338L31.5429 22.6325C31.4374 22.9425 31.4305 23.3238 31.4255 23.7119C31.4107 24.7092 31.393 25.7426 30.6868 27.1241C30.2439 27.9883 29.665 28.7187 28.9578 29.3151C28.2635 29.9075 27.4517 30.3485 26.5305 30.6428C25.5866 30.9439 24.8301 30.8911 24.1151 30.8402C23.8419 30.8217 23.6476 30.7747 23.615 30.7884C23.1021 31.0084 22.5577 31.4425 22.0458 31.8482L21.9275 31.9362C18.7328 34.4645 15.9041 34.269 12.8574 31.8482C12.3465 31.4425 11.8011 31.0094 11.2872 30.7963C11.2359 30.7738 10.8681 30.8344 10.7882 30.8402C10.0721 30.8911 9.31562 30.9439 8.37271 30.6428C7.45052 30.3485 6.63978 29.9075 5.94542 29.3229C5.24219 28.7304 4.66422 27.9971 4.21644 27.1241C3.50827 25.7416 3.49249 24.7082 3.4777 23.7109C3.47178 23.2798 3.46389 22.8584 3.32285 22.5338C3.27353 22.4194 3.168 22.4742 2.93721 22.2786C2.32175 21.7565 1.62049 21.1631 1.09677 20.2382C0.361973 18.9398 0.146959 17.6493 0.476384 16.2003C0.753534 14.9782 1.43014 13.7209 2.52592 12.2857C2.9303 11.7548 3.16011 11.3324 3.28734 10.9648L3.312 10.8964C3.41359 10.5728 3.45304 10.2433 3.47474 9.89424L3.48362 9.76127C3.56351 8.53134 3.65819 7.27305 4.80723 5.57969C6.32318 3.34079 8.3451 3.2655 10.2191 3.19707C10.7901 3.17653 11.3346 3.15503 11.5052 3.06703C11.9924 2.78644 12.4777 2.37581 12.9205 2.00037L13.0409 1.90554C13.4561 1.5565 13.8477 1.22996 14.2609 0.970868C14.7008 0.688316 15.1595 0.444871 15.6743 0.269865C16.2158 0.0850814 16.7957 -0.0156206 17.4516 0.00197777ZM17.4526 1.7188C18.2732 1.6836 18.9202 1.96713 19.5732 2.37874C20.4016 2.89985 21.3347 3.92838 22.4857 4.58147C24.1062 5.49855 27.1065 4.23244 28.6432 6.49579C29.5397 7.81469 29.5812 8.85006 29.6482 9.87175C29.7202 10.9746 29.9155 11.9884 31.0537 13.4814C32.9385 15.952 33.3311 17.5965 32.3605 19.3104C31.6978 20.4787 30.3041 21.1279 29.9816 21.868C29.2951 23.4421 30.0546 24.629 29.1146 26.4641C28.4627 27.738 27.4557 28.5769 26.1143 29.0051C24.984 29.3659 23.8498 28.8438 22.9443 29.2212C21.3534 29.8831 20.1797 31.4239 18.9143 31.8131C18.4261 31.9626 17.9388 32.0369 17.4526 32.034C16.9664 32.0369 16.4791 31.9626 15.9909 31.8131C14.7245 31.4239 13.5518 29.8831 11.9609 29.2212C11.0555 28.8438 9.92121 29.3659 8.78992 29.0051C7.44953 28.5769 6.44252 27.738 5.79058 26.4641C4.85063 24.629 5.61008 23.4421 4.92362 21.868C4.6011 21.1279 3.20647 20.4787 2.54466 19.3104C1.57315 17.5965 1.96668 15.952 3.85052 13.4814C4.98871 11.9884 5.184 10.9746 5.256 9.87175C5.32307 8.85006 5.36548 7.81469 6.26104 6.49579C7.7977 4.23244 10.799 5.49855 12.4185 4.58147C13.5705 3.92838 14.5026 2.89985 15.3321 2.37874C15.985 1.96713 16.632 1.6836 17.4526 1.7188ZM17.642 12.5017L18.8748 15.3634L22.0024 15.6411C22.0352 15.6438 22.0672 15.6529 22.0964 15.6679C22.1257 15.6829 22.1516 15.7035 22.1728 15.7285C22.194 15.7535 22.21 15.7824 22.2198 15.8135C22.2297 15.8447 22.2332 15.8774 22.2302 15.91C22.2247 15.9741 22.1943 16.0337 22.1454 16.0762L19.7803 18.1234L20.4796 21.1592C20.4908 21.2075 20.4872 21.2581 20.4692 21.3044C20.4513 21.3507 20.4197 21.3906 20.3787 21.419C20.3376 21.4474 20.289 21.4629 20.2389 21.4637C20.1889 21.4644 20.1397 21.4503 20.0979 21.4231L17.4102 19.8305L14.7146 21.428C14.5953 21.4984 14.4414 21.4603 14.3704 21.342C14.337 21.2872 14.3264 21.2216 14.3408 21.1592L15.0411 18.1234L12.675 16.0762C12.6501 16.0547 12.6297 16.0286 12.6151 15.9993C12.6004 15.97 12.5917 15.9382 12.5895 15.9055C12.5873 15.8729 12.5917 15.8402 12.6023 15.8093C12.6129 15.7783 12.6295 15.7497 12.6513 15.7252C12.6976 15.6724 12.7618 15.644 12.8268 15.6401L15.9455 15.3634L17.1794 12.4998C17.2336 12.3727 17.3806 12.314 17.5088 12.3678C17.5719 12.3942 17.6173 12.444 17.642 12.5017ZM17.4102 7.32194C22.8388 7.32194 27.2407 11.6854 27.2407 17.0666C27.2407 22.4487 22.8388 26.8112 17.4102 26.8112C11.9806 26.8112 7.57973 22.4487 7.57973 17.0666C7.57973 11.6854 11.9806 7.32194 17.4102 7.32194ZM17.4102 8.96739C21.9225 8.96739 25.5807 12.5936 25.5807 17.0666C25.5807 21.5405 21.9225 25.1657 17.4102 25.1657C12.8969 25.1657 9.23967 21.5405 9.23967 17.0666C9.23967 12.5936 12.8969 8.96739 17.4102 8.96739ZM17.3776 36.373L11.8899 50L6.52636 45.6874L0 45.7617L5.69293 32.339L5.79649 32.3967C6.33896 32.691 6.92975 32.9413 7.56296 33.1427C8.28592 33.3734 8.94082 33.4693 9.55134 33.4966C9.98926 33.5172 10.3424 33.5045 10.6688 33.4849C10.8296 33.6052 11.015 33.7518 11.1925 33.8936L11.1965 33.8965C13.177 35.4686 15.1654 36.3212 17.2751 36.372L17.3776 36.373Z" fill="white"/>
</g>
<defs>
<clipPath id="clip0_646_363">
<rect width="36" height="50" fill="white"/>
</clipPath>
</defs>
</svg>
