<svg width="26" height="26" viewBox="0 0 26 26" fill="none" xmlns="http://www.w3.org/2000/svg">
<path d="M22.4967 0H3.50404C1.56912 0 0.000488281 1.56857 0.000488281 3.50355V22.4963C0.000488281 24.4313 1.56906 25.9999 3.50404 25.9999H12.8711L12.8871 16.7089H10.4733C10.1596 16.7089 9.90501 16.4553 9.9038 16.1416L9.89223 13.1467C9.89102 12.8313 10.1464 12.575 10.4618 12.575H12.8712V9.68121C12.8712 6.32299 14.9222 4.49442 17.9179 4.49442H20.3762C20.6907 4.49442 20.9457 4.7494 20.9457 5.06398V7.58926C20.9457 7.90371 20.6909 8.15863 20.3765 8.15882L18.8679 8.15952C17.2387 8.15952 16.9232 8.93369 16.9232 10.0698V12.5751H20.5031C20.8442 12.5751 21.1089 12.8729 21.0687 13.2117L20.7137 16.2065C20.6797 16.4931 20.4367 16.7091 20.1482 16.7091H16.9392L16.9232 26H22.4968C24.4317 26 26.0003 24.4314 26.0003 22.4965V3.50355C26.0002 1.56857 24.4317 0 22.4967 0Z" fill="url(#paint0_linear_51_109)"/>
<defs>
<linearGradient id="paint0_linear_51_109" x1="-7.67758" y1="14.8898" x2="32.5642" y2="10.3149" gradientUnits="userSpaceOnUse">
<stop stop-color="#232524"/>
<stop offset="0.770833" stop-color="#151B27"/>
</linearGradient>
</defs>
</svg>
