<svg width="26" height="26" viewBox="0 0 26 26" fill="none" xmlns="http://www.w3.org/2000/svg">
<path d="M18.8248 0L7.17491 0C3.21867 0 0 3.21882 0 7.17506L0 18.8249C0 22.7813 3.21867 26 7.17491 26H18.8248C22.7813 26 26 22.7812 26 18.8249V7.17506C26.0002 3.21882 22.7813 0 18.8248 0ZM23.6933 18.8249C23.6933 21.5093 21.5093 23.6932 18.8249 23.6932H7.17491C4.49066 23.6933 2.30685 21.5093 2.30685 18.8249V7.17506C2.30685 4.49081 4.49066 2.30685 7.17491 2.30685H18.8248C21.5092 2.30685 23.6932 4.49081 23.6932 7.17506V18.8249H23.6933Z" fill="url(#paint0_linear_51_104)"/>
<path d="M12.9998 6.30066C9.30565 6.30066 6.30029 9.30602 6.30029 13.0002C6.30029 16.6942 9.30565 19.6994 12.9998 19.6994C16.694 19.6994 19.6994 16.6942 19.6994 13.0002C19.6994 9.30602 16.694 6.30066 12.9998 6.30066ZM12.9998 17.3924C10.5778 17.3924 8.60714 15.4221 8.60714 13C8.60714 10.5779 10.5776 8.60735 12.9998 8.60735C15.422 8.60735 17.3925 10.5779 17.3925 13C17.3925 15.4221 15.4219 17.3924 12.9998 17.3924Z" fill="url(#paint1_linear_51_104)"/>
<path d="M19.9803 4.34448C19.5358 4.34448 19.0992 4.52442 18.7853 4.83969C18.4699 5.15342 18.2886 5.59018 18.2886 6.03617C18.2886 6.48078 18.47 6.91738 18.7853 7.23265C19.099 7.54638 19.5358 7.72786 19.9803 7.72786C20.4263 7.72786 20.8615 7.54638 21.1767 7.23265C21.492 6.91738 21.672 6.48062 21.672 6.03617C21.672 5.59018 21.492 5.15342 21.1767 4.83969C20.863 4.52442 20.4263 4.34448 19.9803 4.34448Z" fill="url(#paint2_linear_51_104)"/>
<defs>
<linearGradient id="paint0_linear_51_104" x1="-7.67812" y1="14.8898" x2="32.564" y2="10.3148" gradientUnits="userSpaceOnUse">
<stop stop-color="#232524"/>
<stop offset="0.770833" stop-color="#151B27"/>
</linearGradient>
<linearGradient id="paint1_linear_51_104" x1="2.34338" y1="13.9739" x2="23.0821" y2="11.6162" gradientUnits="userSpaceOnUse">
<stop stop-color="#232524"/>
<stop offset="0.770833" stop-color="#151B27"/>
</linearGradient>
<linearGradient id="paint2_linear_51_104" x1="17.2894" y1="6.28209" x2="22.5261" y2="5.68675" gradientUnits="userSpaceOnUse">
<stop stop-color="#232524"/>
<stop offset="0.770833" stop-color="#151B27"/>
</linearGradient>
</defs>
</svg>
