<svg width="35" height="50" viewBox="0 0 35 50" fill="none" xmlns="http://www.w3.org/2000/svg">
<path d="M8.87268 25.2938L11.5993 29.3959C11.933 29.6767 12.3155 29.872 12.7103 29.9738C13.2922 30.1203 13.9026 30.0551 14.4195 29.7255C14.4439 29.7092 14.4683 29.693 14.4968 29.6767C14.9892 29.3348 15.3107 28.8017 15.4287 28.2117C15.5467 27.6175 15.4531 26.9745 15.1031 26.4292C15.0828 26.4007 15.0665 26.3722 15.0462 26.3437L11.4935 21.2528C11.0662 20.6383 10.4598 20.2232 9.81681 20.0604C9.23487 19.9098 8.62444 19.979 8.10761 20.3086C8.08319 20.3249 8.05878 20.3412 8.03029 20.3575C7.53788 20.6993 7.21638 21.2365 7.09837 21.8225C6.98035 22.4166 7.07395 23.0596 7.42393 23.6049C7.44428 23.6334 7.46056 23.6619 7.4809 23.6904L7.63148 23.9102C8.07506 24.2683 8.49422 24.7281 8.87268 25.2938ZM14.9241 3.19218C14.8834 3.20439 14.8386 3.21253 14.7979 3.22067C14.1671 3.38345 13.6585 3.80668 13.3329 4.3642C12.9788 4.97056 12.8445 5.7275 13.0155 6.4885L16.3321 21.5091C16.8734 21.0859 17.4879 20.7807 18.1838 20.6016C19.1116 20.3615 20.1534 20.3697 21.3214 20.6423C20.829 18.4488 20.3488 16.235 19.8726 14.0212C19.2256 11.0301 18.5785 8.03899 17.9762 5.41821C17.9599 5.36938 17.9518 5.32054 17.9396 5.27171C17.7565 4.54733 17.321 3.95318 16.7594 3.57878C16.2182 3.2166 15.5711 3.06195 14.9241 3.19218ZM29.261 0.0138754C29.3343 0.0138754 29.4075 0.0220144 29.4767 0.034223C30.7912 0.197004 31.9225 0.892894 32.6957 1.89807C33.4567 2.88696 33.8677 4.17294 33.7579 5.53216C33.7579 5.60134 33.7497 5.66645 33.7375 5.73157L32.069 22.5387H32.0731C32.069 22.5631 32.069 22.5835 32.0649 22.6079C32.305 22.7951 32.5289 23.0027 32.7364 23.2305C33.6032 24.1747 34.1648 25.4322 34.409 26.8768C34.7671 29.0011 34.8648 31.5242 34.645 33.9782C34.4415 36.2449 33.9735 38.4669 33.1963 40.2941C31.3365 44.6648 28.0361 47.6518 24.223 49.0639C22.4446 49.7232 20.5604 50.0406 18.664 49.9958C16.7594 49.9511 14.8427 49.5482 13.0073 48.7669C9.38137 47.2204 6.06471 44.2049 3.80205 39.5779C2.69921 37.3193 2.52829 35.9112 2.06436 33.5387C1.99111 33.1521 2.11319 32.7736 2.36143 32.505L0.859778 30.2464C-0.37329 28.3907 -0.169814 26.4699 0.774317 25.0415C1.13651 24.4962 1.60857 24.0282 2.14982 23.6701C2.69514 23.3079 3.3137 23.0515 3.96483 22.9375C4.24156 22.8887 4.51829 22.8643 4.79908 22.8684C4.73804 22.3678 4.75839 21.8673 4.85606 21.3789C5.08395 20.2313 5.73508 19.1773 6.72804 18.4855C6.77688 18.4488 6.82978 18.4163 6.88268 18.3797C7.96518 17.6919 9.21045 17.5413 10.3784 17.8384C11.5301 18.1314 12.6044 18.8639 13.3573 19.9424L13.634 20.3371L10.6877 6.99312C10.3825 5.62169 10.6267 4.25026 11.2696 3.15148C11.9248 2.02829 12.991 1.18183 14.3259 0.872546C14.3543 0.864407 14.3869 0.860338 14.4154 0.856268C15.7176 0.58361 17.0199 0.884755 18.082 1.59285C19.1442 2.30502 19.9622 3.42821 20.2755 4.79557H20.2796C20.2836 4.81999 20.2877 4.84848 20.2959 4.87289C20.951 7.72564 21.5778 10.6191 22.2045 13.5084C22.4039 14.4404 22.6073 15.3682 22.8068 16.2879L23.9544 4.75081C23.9544 4.68163 23.9625 4.61651 23.9747 4.5514C24.1375 3.20032 24.7927 2.02015 25.7327 1.20218C26.6891 0.376064 27.9384 -0.0878629 29.261 0.0138754ZM30.8074 3.35903C30.4127 2.84627 29.8511 2.49222 29.2041 2.40676C29.1796 2.40676 29.1552 2.40269 29.1308 2.40269V2.39455C28.4512 2.32537 27.8001 2.56547 27.2995 3.00091C26.7908 3.44449 26.4368 4.08341 26.3432 4.82406C26.3432 4.84848 26.3391 4.87696 26.3391 4.90138H26.331L24.7683 20.6138L29.8145 21.1144L31.369 5.49553C31.369 5.46298 31.3731 5.43449 31.3731 5.40193H31.3772C31.4545 4.63279 31.2307 3.90435 30.8074 3.35903ZM13.1009 32.3341C13.2271 32.9893 13.2108 33.6567 13.0684 34.2915C12.8079 35.4554 12.1242 36.5135 11.0987 37.1972C11.0824 37.2053 11.0295 37.2419 10.94 37.2948L10.9441 37.2989C10.9237 37.3111 10.9074 37.3193 10.8912 37.3274C9.7924 37.9745 8.53898 38.0843 7.3751 37.7588C6.63037 37.5512 5.9182 37.1606 5.31184 36.6193C6.73618 40.9656 9.27964 44.5956 13.9433 46.5815C15.4979 47.2448 17.1135 47.5867 18.7087 47.6233C20.3121 47.6599 21.8992 47.3954 23.3928 46.8379C26.6158 45.6414 29.4116 43.098 31.0028 39.3622C31.6824 37.7669 32.0934 35.7973 32.2765 33.7747C32.476 31.5242 32.3905 29.2168 32.0609 27.2675C31.8899 26.2664 31.5318 25.4281 30.9865 24.8339C30.5063 24.309 29.8552 23.959 29.0494 23.8491C27.2629 23.609 24.0317 23.666 19.4006 23.7474C18.9 23.7555 18.3872 23.7637 17.8541 23.7759C17.5774 24.6915 17.5449 25.4891 17.6914 26.1687C17.8297 26.8077 18.1309 27.353 18.55 27.7966C18.9936 28.2686 19.5633 28.639 20.2023 28.9035C21.3661 29.3796 22.7376 29.5017 23.991 29.2453C24.6136 29.0785 25.2607 29.4325 25.4479 30.0551C25.6351 30.6859 25.277 31.3533 24.6462 31.5446C19.9459 32.9527 19.9296 33.5427 19.8645 35.7688C19.8604 35.9193 19.8563 36.074 19.8523 36.1676C19.8319 36.8268 19.2825 37.3396 18.6233 37.3193C17.9681 37.2989 17.4513 36.7495 17.4716 36.0903C17.4757 35.9153 17.4797 35.8054 17.4838 35.6996C17.5489 33.3962 17.5815 32.1794 19.2785 31.097C18.5337 30.7917 17.8501 30.3766 17.26 29.8639C16.9263 30.5231 16.4339 31.1051 15.8072 31.5446C15.7543 31.5812 15.7054 31.6138 15.6525 31.6504C14.8549 32.155 13.9759 32.3707 13.1009 32.3341ZM9.8453 30.8894C9.59706 30.6493 9.36917 30.3848 9.16569 30.0918L6.00366 25.5624C5.45835 25.2043 4.88454 25.1025 4.3555 25.1961C4.01773 25.2572 3.69624 25.3874 3.4073 25.5787C3.11837 25.7699 2.86606 26.0182 2.67479 26.3071C2.19865 27.0233 2.10912 28.0082 2.76025 28.9889L6.28039 34.2875C6.70769 34.9345 7.32219 35.3781 7.97739 35.5572C8.5634 35.7199 9.18197 35.6711 9.71915 35.3577C9.73135 35.3496 9.73949 35.3415 9.7517 35.3374V35.3415C9.75984 35.3374 9.77205 35.3293 9.82902 35.2886C10.3499 34.9427 10.6999 34.3973 10.8301 33.795C10.9644 33.1887 10.879 32.5213 10.529 31.9434C10.5005 31.8986 10.4842 31.8661 10.472 31.8539L9.8453 30.8894Z" fill="white"/>
</svg>
