<svg width="49" height="50" viewBox="0 0 49 50" fill="none" xmlns="http://www.w3.org/2000/svg">
<g clip-path="url(#clip0_646_361)">
<path fill-rule="evenodd" clip-rule="evenodd" d="M32.6127 3.89354L21.4174 10.631L34.5532 12.4292L45.3546 5.64288L32.6127 3.89354ZM35.2053 23.8859C42.3651 23.8859 48.1685 29.732 48.1685 36.9435C48.1685 44.1539 42.3651 50 35.2053 50C28.0455 50 22.2421 44.1539 22.2421 36.9435C22.2421 29.732 28.0455 23.8859 35.2053 23.8859ZM31.8675 35.1013L33.7993 36.9249L38.2365 32.3844C38.6692 31.9417 38.9429 31.585 39.4775 32.1391L41.2124 33.9305C41.7829 34.4983 41.7538 34.8315 41.2163 35.3593L34.79 41.7126C33.6586 42.8326 33.8546 42.9 32.7058 41.7527L28.9459 37.9882C28.7062 37.7263 28.7334 37.4634 28.9954 37.2005L31.0088 35.0974C31.3144 34.7749 31.556 34.8022 31.8675 35.1013ZM19.8746 12.3266L19.8659 26.1757L14.8737 22.7513L9.88053 25.5923L10.4724 11.0395L1.88141 9.86379V40.4509L19.2449 42.7124C19.4894 43.4053 19.7756 44.0786 20.1036 44.7276L0.902376 42.2267C0.400733 42.2061 0 41.7888 0 41.2797V8.78193C0.026198 8.38613 0.183386 8.10858 0.55501 7.92094L17.706 0.0830901C17.8593 0.0127253 18.0475 -0.015616 18.2154 0.00783891L48.118 4.11636C48.6119 4.17402 48.9505 4.58252 48.9505 5.09267V5.09462L49 27.452C48.445 26.6252 47.4892 25.4691 47.0662 24.7381V6.79803L35.8292 14.1209V19.966C35.2019 19.9427 34.5738 19.9544 33.9478 20.0012V14.2528L19.8746 12.3266ZM11.9647 9.33801L22.8486 2.55172L18.2319 1.91746L4.29259 8.28742L11.9647 9.33801Z" fill="white"/>
</g>
<defs>
<clipPath id="clip0_646_361">
<rect width="49" height="50" fill="white"/>
</clipPath>
</defs>
</svg>
