<svg width="32" height="26" viewBox="0 0 32 26" fill="none" xmlns="http://www.w3.org/2000/svg">
<path d="M25.354 0L6.64599 0C2.97551 0 0 3.4165 0 7.63097L0 18.369C0 22.5835 2.97551 26 6.64599 26H25.354C29.0245 26 32 22.5835 32 18.369V7.63097C32 3.4165 29.0245 0 25.354 0ZM20.8594 13.5224L12.109 18.3144C11.8759 18.442 11.6065 18.2468 11.6065 17.9503V8.06694C11.6065 7.76614 11.8829 7.57119 12.1166 7.70716L20.8669 12.7986C21.1271 12.9499 21.1226 13.3783 20.8594 13.5224Z" fill="url(#paint0_linear_51_103)"/>
<defs>
<linearGradient id="paint0_linear_51_103" x1="-9.45" y1="14.8898" x2="39.7555" y2="8.00489" gradientUnits="userSpaceOnUse">
<stop stop-color="#232524"/>
<stop offset="0.770833" stop-color="#151B27"/>
</linearGradient>
</defs>
</svg>
