<svg width="22" height="22" viewBox="0 0 22 22" fill="none" xmlns="http://www.w3.org/2000/svg">
<path d="M21.8237 13.09L18.9428 9.13V8.8C18.9428 3.96 14.6807 0 9.47139 0C8.72157 0 7.97176 0.0733336 7.22194 0.256667C3.03874 1.13667 0 4.73 0 8.8C0 10.5967 0.47357 12.21 1.42071 13.4567C3.0782 15.6567 4.1832 17.4167 3.51231 19.8C3.35445 20.35 3.47284 20.9 3.86749 21.34C4.22266 21.78 4.7357 22 5.32766 22H13.1021C14.0098 22 14.7991 21.4133 14.9569 20.6067C14.9964 20.46 15.0358 20.3133 15.0358 20.1667C15.1148 19.7267 15.5094 19.4333 15.983 19.4333H16.5355C17.4037 19.4333 18.1535 18.9567 18.3903 18.1867C18.6271 17.3433 18.9428 16.1333 18.9823 14.6667H21.0344C21.3896 14.6667 21.7447 14.3733 21.9026 14.08C22.0605 13.7867 22.021 13.31 21.8237 13.09ZM15.5489 8.06667C15.2332 8.54333 14.6017 8.8 13.6941 8.8C8.83997 8.8 8.48479 12.1 8.48479 13.6767C8.48479 14.41 7.85336 15.0333 7.06408 15.0333H6.94569C6.2748 15.0333 5.7223 14.5933 5.56444 13.97C5.40659 13.31 4.93302 12.9433 4.45945 12.6133C4.14373 12.3933 3.82802 12.1733 3.67016 11.8433C3.23606 11 2.80195 10.01 2.80195 8.76333C2.80195 5.90333 4.93302 3.41 7.8139 2.78667C8.3664 2.67667 8.87943 2.60333 9.43193 2.60333C12.1155 2.60333 14.5228 4.10667 15.5489 6.38C15.5883 6.49 16.0224 7.37 15.5489 8.06667Z" fill="#E2E2DA"/>
</svg>
