<svg width="24" height="14" viewBox="0 0 24 14" fill="none" xmlns="http://www.w3.org/2000/svg">
<path d="M2.63855 0.45465C2.34113 0.168896 1.94775 0.0133294 1.54128 0.0207239C1.13481 0.0281184 0.746998 0.197897 0.459538 0.494291C0.172077 0.790685 0.00741577 1.19055 0.000244141 1.60965C-0.00692749 2.02875 0.143951 2.43436 0.421091 2.74103L10.8808 13.5258C11.0265 13.6761 11.1995 13.7954 11.3899 13.8768C11.5804 13.9581 11.7845 14 11.9906 14C12.1967 14 12.4008 13.9581 12.5912 13.8768C12.7817 13.7954 12.9547 13.6761 13.1004 13.5258L23.5601 2.74103C23.8457 2.43578 24.0037 2.02706 23.9999 1.6029C23.9962 1.17874 23.831 0.773078 23.5399 0.47328C23.2489 0.173482 22.8553 0.00353917 22.4439 5.46556e-05C22.0326 -0.00342986 21.6363 0.159822 21.3405 0.45465L11.9895 10.0963L2.63855 0.45465Z" fill="#E2E2DA"/>
</svg>
