<svg width="15" height="20" viewBox="0 0 15 20" fill="none" xmlns="http://www.w3.org/2000/svg">
<path d="M7.5 0C3.36452 0 0 3.31524 0 7.39029C0 11.3356 6.83735 19.4834 7.12841 19.8283C7.22022 19.937 7.35638 20 7.5 20C7.64356 20 7.77978 19.9371 7.87159 19.8283C8.16271 19.4833 15 11.3356 15 7.39029C15 3.31524 11.6355 0 7.5 0ZM7.5 18.7681C6.89373 18.0222 5.6341 16.4328 4.38761 14.6159C2.14954 11.3538 0.96652 8.85518 0.96652 7.39029C0.96652 3.84038 3.89746 0.952381 7.5 0.952381C11.1025 0.952381 14.0335 3.84038 14.0335 7.39029C14.0335 8.85511 12.8505 11.3537 10.6124 14.6159C9.36583 16.4328 8.10627 18.0222 7.5 18.7681Z" fill="#E2E2DA"/>
<path d="M7.49984 3.65076C5.3148 3.65076 3.53711 5.40244 3.53711 7.55552C3.53711 9.7086 5.3148 11.4603 7.49984 11.4603C9.68488 11.4603 11.4626 9.7086 11.4626 7.55552C11.4626 5.40244 9.68488 3.65076 7.49984 3.65076ZM7.49984 10.5079C5.84774 10.5079 4.50363 9.18345 4.50363 7.55552C4.50363 5.92758 5.84774 4.60314 7.49984 4.60314C9.15201 4.60314 10.4961 5.92758 10.4961 7.55552C10.4961 9.18345 9.15201 10.5079 7.49984 10.5079Z" fill="#E2E2DA"/>
</svg>
