<svg width="28" height="28" viewBox="0 0 28 28" fill="none" xmlns="http://www.w3.org/2000/svg">
<g clip-path="url(#clip0_122_145)">
<path d="M27.6471 25.9945L19.6135 17.9551C21.1973 16.0557 22.1498 13.6284 22.1498 10.9774C22.1498 4.92919 17.1862 0.0114765 11.0806 0.0114765C4.9751 0.0114765 0 4.93493 0 10.9831C0 17.0313 4.96362 21.949 11.0692 21.949C13.6629 21.949 16.05 21.0595 17.9436 19.5733L26.0059 27.6356C26.4765 28.1062 27.1766 28.1062 27.6471 27.6356C28.1176 27.1651 28.1176 26.465 27.6471 25.9945ZM2.3527 10.9831C2.3527 6.23179 6.26621 2.36992 11.0692 2.36992C15.8721 2.36992 19.7856 6.23179 19.7856 10.9831C19.7856 15.7344 15.8721 19.5963 11.0692 19.5963C6.26621 19.5963 2.3527 15.7287 2.3527 10.9831Z" fill="#E2E2DA"/>
</g>
<defs>
<clipPath id="clip0_122_145">
<rect width="28" height="28" fill="white"/>
</clipPath>
</defs>
</svg>
