<svg width="25" height="25" viewBox="0 0 25 25" fill="none" xmlns="http://www.w3.org/2000/svg">
<path d="M9.70703 16.9283L10.7252 20.2243L12.1801 19.0275L10.0806 16.6418L9.70703 16.9283Z" fill="url(#paint0_linear_658_19)"/>
<path d="M17.5536 18.1305C17.0787 17.8825 16.5013 17.581 15.8245 17.2079L14.7339 20.7358C14.7089 20.8167 14.6452 20.8798 14.5641 20.9041C14.5529 20.9074 14.5417 20.9097 14.5304 20.9115C14.5266 20.9121 14.5229 20.9123 14.5191 20.9127C14.5115 20.9135 14.504 20.9141 14.4964 20.9143C14.4947 20.9143 14.493 20.9147 14.4912 20.9147C14.489 20.9147 14.4868 20.9142 14.4845 20.9141C14.4746 20.9138 14.4647 20.9129 14.4548 20.9115C14.4515 20.911 14.4482 20.9108 14.445 20.9102C14.4326 20.9079 14.4204 20.9047 14.4084 20.9006C14.4055 20.8996 14.4028 20.8983 14.4 20.8972C14.3904 20.8935 14.3811 20.8893 14.3721 20.8844C14.3687 20.8827 14.3655 20.881 14.3622 20.8791C14.351 20.8725 14.34 20.8652 14.3297 20.8568L12.5424 19.3855L10.754 20.8568C10.7437 20.8653 10.7326 20.8726 10.7213 20.8792C10.7182 20.881 10.7152 20.8826 10.7121 20.8844C10.7026 20.8894 10.6928 20.8939 10.6827 20.8977C10.6804 20.8986 10.6782 20.8997 10.6758 20.9005C10.6636 20.9048 10.651 20.908 10.6383 20.9103C10.6356 20.9108 10.6329 20.9111 10.6302 20.9115C10.6198 20.913 10.6092 20.914 10.5986 20.9142C10.5966 20.9143 10.5946 20.9147 10.5926 20.9147C10.591 20.9147 10.5895 20.9144 10.5879 20.9144C10.58 20.9142 10.5721 20.9135 10.5642 20.9127C10.5606 20.9122 10.5571 20.9121 10.5536 20.9115C10.5422 20.9097 10.5309 20.9074 10.5197 20.904C10.5096 20.901 10.4997 20.8973 10.4902 20.8931C10.4233 20.8636 10.3719 20.8064 10.3501 20.7357L9.26026 17.2079C8.56374 17.5916 7.9734 17.8985 7.4882 18.1508C6.22756 18.8064 5.59478 19.1354 5.3105 19.6402C5.02275 20.1513 5.03327 20.9321 5.05424 22.4877C5.05999 22.913 5.06644 23.3888 5.06779 23.9328C7.51486 24.4721 10.0102 24.7456 12.4879 24.7456C14.9676 24.7455 17.4997 24.4717 20.0169 23.9315C20.0182 23.4055 20.0242 22.9427 20.0294 22.529C20.0496 20.956 20.0598 20.1664 19.7669 19.6477C19.4774 19.135 18.8345 18.7993 17.5536 18.1305ZM18.3541 22.9375H16.0323C15.8921 22.9375 15.7783 22.8238 15.7783 22.6835C15.7783 22.5433 15.8921 22.4296 16.0323 22.4296H18.3541C18.4944 22.4296 18.6081 22.5433 18.6081 22.6835C18.6081 22.8238 18.4944 22.9375 18.3541 22.9375ZM18.3541 21.3748H16.0323C15.8921 21.3748 15.7783 21.2611 15.7783 21.1208C15.7783 20.9805 15.8921 20.8668 16.0323 20.8668H18.3541C18.4944 20.8668 18.6081 20.9805 18.6081 21.1208C18.6081 21.2611 18.4944 21.3748 18.3541 21.3748Z" fill="url(#paint1_linear_658_19)"/>
<path d="M16.1866 10.3772C16.1872 10.3629 16.1876 10.3488 16.1879 10.3347C16.189 10.2965 16.1898 10.2586 16.1898 10.2216C16.1898 8.30177 14.5854 6.73984 12.6134 6.73984C10.6414 6.73984 9.03711 8.30172 9.03711 10.2216C9.03711 10.2587 9.03792 10.2967 9.03901 10.3348C9.03944 10.3489 9.03982 10.3629 9.04036 10.3772C9.04117 10.3975 9.04231 10.4181 9.04334 10.4385C9.13949 12.2399 10.3916 15.384 12.6135 15.384C14.8355 15.384 16.0877 12.2397 16.1837 10.4383C16.1847 10.418 16.1859 10.3974 16.1866 10.3772Z" fill="url(#paint2_linear_658_19)"/>
<path d="M6.8744 11.2011H8.6198C8.57914 10.9649 8.55204 10.7348 8.53877 10.5171C8.53844 10.512 8.53817 10.507 8.53784 10.502C8.53633 10.4761 8.53492 10.4504 8.53383 10.4249C8.53308 10.4082 8.53253 10.3917 8.53199 10.3751C8.53139 10.3582 8.53074 10.3414 8.53036 10.3247C8.52955 10.2899 8.52906 10.2555 8.52906 10.2217C8.52906 8.02177 10.3613 6.23198 12.6133 6.23198C14.8654 6.23198 16.6976 8.02177 16.6976 10.2217C16.6976 10.2555 16.697 10.29 16.6962 10.3248C16.6959 10.3414 16.6952 10.3582 16.6947 10.375C16.6941 10.3916 16.6936 10.4081 16.6929 10.4249C16.6917 10.4504 16.6903 10.4762 16.6889 10.5021C16.6885 10.507 16.6883 10.512 16.6879 10.517C16.6747 10.7346 16.6476 10.9648 16.607 11.201H18.6985C19.7318 11.201 20.5725 10.3255 20.5725 9.2495C20.5725 8.7177 20.3707 8.22068 20.0045 7.8499C19.9446 7.78936 19.9192 7.7028 19.9366 7.6195C19.9701 7.45912 19.9871 7.29267 19.9871 7.12492C19.9871 5.84293 18.9847 4.79997 17.7524 4.79997C17.4597 4.79997 17.1756 4.8578 16.9082 4.97183C16.8235 5.00798 16.7259 4.99541 16.6529 4.93883C16.5801 4.88235 16.5437 4.79086 16.5575 4.6997C16.5766 4.57547 16.5863 4.44918 16.5863 4.32452C16.5863 3.04286 15.5837 2 14.3515 2C13.5785 2 12.8712 2.40688 12.4592 3.08833C12.4238 3.14682 12.3664 3.18866 12.2998 3.20421C12.2332 3.21971 12.1632 3.2079 12.1056 3.17126C11.8133 2.98525 11.4763 2.88693 11.1311 2.88693C10.2097 2.88693 9.43214 3.57256 9.28212 4.51715C9.26255 4.64056 9.15605 4.73129 9.03133 4.73129C9.03047 4.73129 9.0296 4.73129 9.02879 4.73129L8.98911 4.73092C7.95812 4.73092 7.11727 5.60619 7.11727 6.68211C7.11727 6.7897 7.12583 6.89826 7.14268 7.00471C7.1545 7.07923 7.13255 7.15511 7.08285 7.21181C7.03315 7.26855 6.96198 7.3008 6.88534 7.29831L6.87125 7.29798C5.83918 7.29983 5 8.17456 5 9.24961C5 10.3256 5.84086 11.2011 6.8744 11.2011Z" fill="url(#paint3_linear_658_19)"/>
<path d="M14.3617 20.2242L15.3809 16.9275L15.0122 16.6424L12.9082 19.0277L14.3617 20.2242Z" fill="url(#paint4_linear_658_19)"/>
<defs>
<linearGradient id="paint0_linear_658_19" x1="10.9435" y1="16.6418" x2="10.9435" y2="20.2243" gradientUnits="userSpaceOnUse">
<stop stop-color="#F8EC20"/>
<stop offset="1" stop-color="#A79F1E"/>
</linearGradient>
<linearGradient id="paint1_linear_658_19" x1="12.5416" y1="17.2079" x2="12.5416" y2="24.7456" gradientUnits="userSpaceOnUse">
<stop stop-color="#F8EC20"/>
<stop offset="1" stop-color="#A79F1E"/>
</linearGradient>
<linearGradient id="paint2_linear_658_19" x1="12.6135" y1="6.73984" x2="12.6135" y2="15.384" gradientUnits="userSpaceOnUse">
<stop stop-color="#F8EC20"/>
<stop offset="1" stop-color="#A79F1E"/>
</linearGradient>
<linearGradient id="paint3_linear_658_19" x1="12.7862" y1="2" x2="12.7862" y2="11.2011" gradientUnits="userSpaceOnUse">
<stop stop-color="#F8EC20"/>
<stop offset="1" stop-color="#A79F1E"/>
</linearGradient>
<linearGradient id="paint4_linear_658_19" x1="14.1446" y1="16.6424" x2="14.1446" y2="20.2242" gradientUnits="userSpaceOnUse">
<stop stop-color="#F8EC20"/>
<stop offset="1" stop-color="#A79F1E"/>
</linearGradient>
</defs>
</svg>
