<svg width="25" height="25" viewBox="0 0 25 25" fill="none" xmlns="http://www.w3.org/2000/svg">
<path d="M23.7281 0.727249C22.6375 1.58828 15.6431 10.0342 13.002 12.4007C11.6788 13.5844 12.3303 14.5693 12.3303 14.5693C12.7247 14.6089 13.1196 15.201 13.1196 15.201C13.8888 15.2894 15.0913 14.0175 17.1823 10.7441C19.991 6.34497 24.1226 0.963577 24.1226 0.963577C24.3989 0.411722 23.7281 0.727249 23.7281 0.727249Z" fill="url(#paint0_linear_658_4)"/>
<path d="M10.5064 15.3067C9.21138 17.5739 7.375 16.8495 7.375 16.9908C7.375 17.6598 9.68804 18.3601 10.996 18.0381C12.5997 17.6437 13.025 16.3222 13.025 15.6533C13.025 14.9838 11.3882 13.7648 10.5064 15.3067Z" fill="url(#paint1_linear_658_4)"/>
<path d="M15.117 18.2349C14.143 18.0287 13.3613 17.7269 12.7388 17.3535C12.3842 17.7948 11.8534 18.1839 11.0776 18.3744C10.833 18.4352 10.553 18.4656 10.2445 18.4656C8.93335 18.4656 7.02793 17.891 7.02793 16.9908C7.02793 16.8316 7.13189 16.6925 7.28618 16.6442C7.33071 16.6308 7.37744 16.6236 7.43467 16.6236C7.4814 16.6236 7.53149 16.6281 7.59634 16.633C7.68447 16.6404 7.79399 16.6484 7.92256 16.6484C8.86367 16.6484 9.63105 16.1393 10.2052 15.1351C10.3475 14.8868 10.504 14.7034 10.6649 14.5677C9.75 10.8726 12.7533 5.93793 10.2102 5.93793C4.99736 5.93793 0.771484 10.0737 0.771484 15.175C0.771484 20.2762 4.99736 24.4113 10.2102 24.4113C15.4233 24.4114 18.0934 18.8641 15.117 18.2349ZM7.81401 7.59305C8.39868 7.59305 8.87251 8.06708 8.87251 8.65131C8.87251 9.23578 8.39868 9.70912 7.81401 9.70912C7.23018 9.70912 6.75689 9.23578 6.75689 8.65131C6.75689 8.06703 7.23022 7.59305 7.81401 7.59305ZM5.10142 9.88348C5.88735 9.88348 6.52412 10.521 6.52412 11.3066C6.52412 12.093 5.88735 12.73 5.10142 12.73C4.31504 12.73 3.67759 12.093 3.67759 11.3066C3.67759 10.521 4.31504 9.88348 5.10142 9.88348ZM1.85039 15.7521C1.85039 14.7426 2.66807 13.9247 3.67759 13.9247C4.68687 13.9247 5.50498 14.7426 5.50498 15.7521C5.50498 16.7612 4.68687 17.5793 3.67759 17.5793C2.66807 17.5793 1.85039 16.7612 1.85039 15.7521ZM6.92837 23.0063C5.69595 23.0063 4.69648 22.0073 4.69648 20.7745C4.69648 19.5425 5.69595 18.543 6.92837 18.543C8.16147 18.543 9.1605 19.5425 9.1605 20.7745C9.1605 22.0073 8.16147 23.0063 6.92837 23.0063Z" fill="url(#paint2_linear_658_4)"/>
<defs>
<linearGradient id="paint0_linear_658_4" x1="18.1796" y1="0.637451" x2="18.1796" y2="15.2053" gradientUnits="userSpaceOnUse">
<stop stop-color="#F8EC20"/>
<stop offset="1" stop-color="#A79F1E"/>
</linearGradient>
<linearGradient id="paint1_linear_658_4" x1="10.2" y1="14.5603" x2="10.2" y2="18.1189" gradientUnits="userSpaceOnUse">
<stop stop-color="#F8EC20"/>
<stop offset="1" stop-color="#A79F1E"/>
</linearGradient>
<linearGradient id="paint2_linear_658_4" x1="8.56463" y1="5.93793" x2="8.56463" y2="24.4113" gradientUnits="userSpaceOnUse">
<stop stop-color="#F8EC20"/>
<stop offset="1" stop-color="#A79F1E"/>
</linearGradient>
</defs>
</svg>
