<svg width="25" height="20" viewBox="0 0 25 20" fill="none" xmlns="http://www.w3.org/2000/svg">
<g clip-path="url(#clip0_658_2)">
<path d="M10.8955 19.9805L8.51268 19.2891C8.26268 19.2188 8.12206 18.957 8.19237 18.707L13.5244 0.339857C13.5947 0.0898565 13.8564 -0.0507685 14.1064 0.019544L16.4892 0.71095C16.7392 0.781263 16.8799 1.04298 16.8095 1.29298L11.4775 19.6602C11.4033 19.9102 11.1455 20.0547 10.8955 19.9805V19.9805ZM6.44237 15.5977L8.14159 13.7852C8.32128 13.5938 8.30956 13.2891 8.11034 13.1133L4.57128 10L8.11034 6.88673C8.30956 6.71095 8.32518 6.40626 8.14159 6.21486L6.44237 4.40236C6.26659 4.21486 5.96972 4.20314 5.77831 4.38283L0.149414 9.65626C-0.0498046 9.83986 -0.0498046 10.1563 0.149414 10.3399L5.77831 15.6172C5.96972 15.7969 6.26659 15.7891 6.44237 15.5977V15.5977ZM19.2236 15.6211L24.8525 10.3438C25.0517 10.1602 25.0517 9.84376 24.8525 9.66017L19.2236 4.37892C19.0361 4.20314 18.7392 4.21095 18.5595 4.39845L16.8603 6.21095C16.6806 6.40236 16.6924 6.70705 16.8916 6.88283L20.4306 10L16.8916 13.1133C16.6924 13.2891 16.6767 13.5938 16.8603 13.7852L18.5595 15.5977C18.7353 15.7891 19.0322 15.7969 19.2236 15.6211V15.6211Z" fill="url(#paint0_linear_658_2)"/>
</g>
<defs>
<linearGradient id="paint0_linear_658_2" x1="12.501" y1="0.00146484" x2="12.501" y2="20" gradientUnits="userSpaceOnUse">
<stop stop-color="#F8EC20"/>
<stop offset="1" stop-color="#A79F1E"/>
</linearGradient>
<clipPath id="clip0_658_2">
<rect width="25" height="20" fill="white"/>
</clipPath>
</defs>
</svg>
