<svg width="40" height="40" viewBox="0 0 40 40" fill="none" xmlns="http://www.w3.org/2000/svg">
<path d="M35.9321 4.16015C35.818 4.03471 35.6796 3.93372 35.5253 3.86329C35.371 3.79285 35.204 3.75442 35.0345 3.75033C34.8649 3.74624 34.6963 3.77658 34.5388 3.83949C34.3813 3.90241 34.2381 3.99661 34.1181 4.1164L33.1517 5.07812C33.0345 5.19532 32.9688 5.35422 32.9688 5.51991C32.9688 5.6856 33.0345 5.84451 33.1517 5.96171L34.0376 6.84609C34.0957 6.90443 34.1647 6.95073 34.2407 6.98232C34.3167 7.01391 34.3982 7.03017 34.4806 7.03017C34.5629 7.03017 34.6444 7.01391 34.7204 6.98232C34.7964 6.95073 34.8655 6.90443 34.9235 6.84609L35.8657 5.90859C36.3423 5.4328 36.3868 4.6578 35.9321 4.16015Z" fill="url(#paint0_linear_659_3)"/>
<path d="M31.1985 7.03126L17.0954 21.1094C17.0099 21.1945 16.9477 21.3003 16.9149 21.4164L16.2626 23.3594C16.247 23.4121 16.2459 23.4681 16.2594 23.5214C16.2729 23.5747 16.3006 23.6233 16.3395 23.6622C16.3784 23.7011 16.427 23.7287 16.4803 23.7423C16.5336 23.7558 16.5896 23.7547 16.6423 23.7391L18.5837 23.0867C18.6998 23.0539 18.8056 22.9918 18.8907 22.9063L32.9688 8.80157C33.0991 8.66993 33.1721 8.49223 33.1721 8.30704C33.1721 8.12186 33.0991 7.94415 32.9688 7.81251L32.1915 7.03126C32.0597 6.89983 31.8812 6.82602 31.695 6.82602C31.5089 6.82602 31.3303 6.89983 31.1985 7.03126Z" fill="url(#paint1_linear_659_3)"/>
<path d="M30.1828 15.1297L20.6602 24.6711C20.2921 25.04 19.8398 25.3138 19.3422 25.4688L17.3187 26.1461C16.8385 26.2817 16.3309 26.2868 15.848 26.1609C15.3652 26.035 14.9246 25.7826 14.5718 25.4298C14.2189 25.0769 13.9666 24.6364 13.8407 24.1536C13.7147 23.6707 13.7199 23.163 13.8555 22.6828L14.5328 20.6594C14.6873 20.162 14.9605 19.7096 15.3289 19.3414L24.8703 9.81719C24.9578 9.72983 25.0174 9.61849 25.0415 9.49726C25.0657 9.37603 25.0534 9.25035 25.0062 9.13612C24.9589 9.02188 24.8789 8.92423 24.7761 8.8555C24.6733 8.78677 24.5525 8.75006 24.4289 8.75H8.125C6.96468 8.75 5.85188 9.21094 5.03141 10.0314C4.21094 10.8519 3.75 11.9647 3.75 13.125V31.875C3.75 33.0353 4.21094 34.1481 5.03141 34.9686C5.85188 35.7891 6.96468 36.25 8.125 36.25H26.875C28.0353 36.25 29.1481 35.7891 29.9686 34.9686C30.7891 34.1481 31.25 33.0353 31.25 31.875V15.5711C31.2499 15.4475 31.2132 15.3267 31.1445 15.2239C31.0758 15.1211 30.9781 15.0411 30.8639 14.9938C30.7497 14.9466 30.624 14.9343 30.5027 14.9585C30.3815 14.9826 30.2702 15.0422 30.1828 15.1297Z" fill="url(#paint2_linear_659_3)"/>
<defs>
<linearGradient id="paint0_linear_659_3" x1="34.6091" y1="3.74997" x2="34.6091" y2="7.03017" gradientUnits="userSpaceOnUse">
<stop stop-color="#F8EC20"/>
<stop offset="1" stop-color="#A79F1E"/>
</linearGradient>
<linearGradient id="paint1_linear_659_3" x1="24.7111" y1="6.82602" x2="24.7111" y2="23.7517" gradientUnits="userSpaceOnUse">
<stop stop-color="#F8EC20"/>
<stop offset="1" stop-color="#A79F1E"/>
</linearGradient>
<linearGradient id="paint2_linear_659_3" x1="17.5" y1="8.75" x2="17.5" y2="36.25" gradientUnits="userSpaceOnUse">
<stop stop-color="#F8EC20"/>
<stop offset="1" stop-color="#A79F1E"/>
</linearGradient>
</defs>
</svg>
