<svg width="22" height="22" viewBox="0 0 22 22" fill="none" xmlns="http://www.w3.org/2000/svg">
<path d="M18.5625 10.3125H17.1875V6.875C17.1875 6.32799 16.9702 5.80339 16.5834 5.41659C16.1966 5.0298 15.672 4.8125 15.125 4.8125H11.6875V3.4375C11.6875 2.70815 11.3978 2.00868 10.882 1.49296C10.3663 0.977231 9.66685 0.6875 8.9375 0.6875C8.20815 0.6875 7.50868 0.977231 6.99296 1.49296C6.47723 2.00868 6.1875 2.70815 6.1875 3.4375V4.8125H2.75C2.20299 4.8125 1.67839 5.0298 1.29159 5.41659C0.904798 5.80339 0.6875 6.32799 0.6875 6.875V11C0.6875 11.1823 0.759933 11.3572 0.888864 11.4861C1.0178 11.6151 1.19266 11.6875 1.375 11.6875H3.4375C3.80217 11.6875 4.15191 11.8324 4.40977 12.0902C4.66763 12.3481 4.8125 12.6978 4.8125 13.0625C4.8125 13.4272 4.66763 13.7769 4.40977 14.0348C4.15191 14.2926 3.80217 14.4375 3.4375 14.4375H1.375C1.19266 14.4375 1.0178 14.5099 0.888864 14.6389C0.759933 14.7678 0.6875 14.9427 0.6875 15.125V19.25C0.6875 19.797 0.904798 20.3216 1.29159 20.7084C1.67839 21.0952 2.20299 21.3125 2.75 21.3125H6.875C7.05734 21.3125 7.2322 21.2401 7.36114 21.1111C7.49007 20.9822 7.5625 20.8073 7.5625 20.625V18.5625C7.5625 18.1978 7.70737 17.8481 7.96523 17.5902C8.22309 17.3324 8.57283 17.1875 8.9375 17.1875C9.30217 17.1875 9.65191 17.3324 9.90977 17.5902C10.1676 17.8481 10.3125 18.1978 10.3125 18.5625V20.625C10.3125 20.8073 10.3849 20.9822 10.5139 21.1111C10.6428 21.2401 10.8177 21.3125 11 21.3125H15.125C15.672 21.3125 16.1966 21.0952 16.5834 20.7084C16.9702 20.3216 17.1875 19.797 17.1875 19.25V15.8125H18.5625C19.2918 15.8125 19.9913 15.5228 20.507 15.007C21.0228 14.4913 21.3125 13.7918 21.3125 13.0625C21.3125 12.3332 21.0228 11.6337 20.507 11.118C19.9913 10.6022 19.2918 10.3125 18.5625 10.3125Z" fill="url(#paint0_linear_658_27)"/>
<defs>
<linearGradient id="paint0_linear_658_27" x1="11" y1="0.6875" x2="11" y2="21.3125" gradientUnits="userSpaceOnUse">
<stop stop-color="#F8EC20"/>
<stop offset="1" stop-color="#A79F1E"/>
</linearGradient>
</defs>
</svg>
