<svg width="40" height="40" viewBox="0 0 40 40" fill="none" xmlns="http://www.w3.org/2000/svg">
<path d="M19.9993 23.3333C24.6017 23.3333 28.3327 18.8562 28.3327 13.3333C28.3327 7.8105 24.6017 3.33334 19.9993 3.33334C15.397 3.33334 11.666 7.8105 11.666 13.3333C11.666 18.8562 15.397 23.3333 19.9993 23.3333Z" fill="url(#paint0_linear_633_44)"/>
<path d="M36.333 31.8334C34.833 28.8334 31.9997 26.3334 28.333 24.8334C27.333 24.5 26.1664 24.5 25.333 25C23.6664 26 21.9997 26.5 19.9997 26.5C17.9997 26.5 16.333 26 14.6664 25C13.833 24.6667 12.6664 24.5 11.6664 25C7.99971 26.5 5.16638 29 3.66638 32C2.49971 34.1667 4.33304 36.6667 6.83304 36.6667H33.1664C35.6664 36.6667 37.4997 34.1667 36.333 31.8334Z" fill="url(#paint1_linear_633_44)"/>
<defs>
<linearGradient id="paint0_linear_633_44" x1="19.9993" y1="3.33334" x2="19.9993" y2="23.3333" gradientUnits="userSpaceOnUse">
<stop stop-color="#F8EC20"/>
<stop offset="1" stop-color="#A79F1E"/>
</linearGradient>
<linearGradient id="paint1_linear_633_44" x1="19.9997" y1="24.601" x2="19.9997" y2="36.6667" gradientUnits="userSpaceOnUse">
<stop stop-color="#F8EC20"/>
<stop offset="1" stop-color="#A79F1E"/>
</linearGradient>
</defs>
</svg>
