<svg width="114" height="76" viewBox="0 0 114 76" fill="none" xmlns="http://www.w3.org/2000/svg">
<path d="M64.2069 72.1308L111.084 15.8784C112.666 13.9661 113.425 11.5049 113.196 9.0338C112.967 6.56266 111.768 4.28299 109.862 2.69399C107.956 1.10498 105.497 0.33616 103.025 0.555872C100.553 0.775584 98.2692 1.96593 96.673 3.86623L57.0011 51.4756L17.3293 3.86623C15.7353 1.9586 13.4493 0.761678 10.9735 0.538395C8.49759 0.315111 6.03435 1.08373 4.12481 2.6754C2.21527 4.26707 1.01562 6.55162 0.789367 9.02721C0.563118 11.5028 1.32879 13.967 2.91817 15.8784L49.796 72.1308C50.6772 73.1855 51.7792 74.034 53.0243 74.6162C54.2693 75.1984 55.627 75.5001 57.0015 75.5001C58.3759 75.5001 59.7336 75.1984 60.9786 74.6162C62.2237 74.034 63.3257 73.1855 64.2069 72.1308Z" fill="url(#paint0_linear_173_67)"/>
<defs>
<linearGradient id="paint0_linear_173_67" x1="113.236" y1="38.0003" x2="0.75041" y2="38.0003" gradientUnits="userSpaceOnUse">
<stop stop-color="#F8EC20"/>
<stop offset="1" stop-color="#A79F1E"/>
</linearGradient>
</defs>
</svg>
