<svg width="539" height="510" viewBox="0 0 539 510" fill="none" xmlns="http://www.w3.org/2000/svg">
<g clip-path="url(#clip0)">
<path d="M308.472 209.42C297.393 218.49 284.37 229.374 273.096 238.646C272.124 239.452 270.569 239.452 269.597 238.646C258.323 229.374 245.3 218.49 234.221 209.42C233.638 208.815 233.444 208.009 233.832 207.203L262.017 161.247C262.6 160.24 263.572 159.635 264.738 159.635H277.955C279.121 159.635 280.093 160.24 280.676 161.247L308.861 207.203C309.25 208.009 309.055 209.017 308.472 209.42ZM225.28 502.689C210.896 497.65 196.318 492.812 186.016 480.92C183.295 477.695 179.407 472.455 172.799 471.246C169.689 470.641 166.773 471.044 165.024 471.649C165.218 469.633 165.218 466.61 164.441 463.586C163.08 459.152 160.748 456.532 159.97 455.524C151.223 445.446 131.786 412.995 128.287 402.514C127.898 401.506 126.732 397.475 123.428 393.847C122.067 392.234 120.706 391.025 119.929 390.42C122.261 390.017 125.371 389.211 127.121 386.792C128.676 384.373 128.481 381.552 128.481 380.745C127.898 371.071 136.645 343.659 147.919 324.913C148.891 323.301 150.057 321.487 151.418 319.471C151.806 313.223 153.361 307.176 156.083 301.533L181.74 244.29C182.712 242.073 183.295 239.452 183.295 237.034V207.001C183.295 200.148 185.239 193.295 188.737 187.45L192.431 181.202C188.543 178.38 184.461 175.155 180.574 171.325C171.438 162.457 166.968 158.022 165.413 152.58C165.024 151.371 164.246 147.743 161.331 145.727C159.387 144.316 157.054 144.115 155.499 144.115C156.083 142.905 156.666 140.89 156.666 138.471C156.666 135.045 155.111 132.424 154.722 131.82C149.474 122.145 152.778 96.1438 153.167 79.4143C153.167 78.4065 153.167 76.7941 153.75 74.7785C154.528 71.352 155.499 70.1426 156.083 67.7239C156.471 66.1114 156.666 63.4912 155.694 60.2662C156.666 60.0647 158.221 59.6615 159.97 58.4522C164.635 55.0257 165.413 48.5758 165.801 46.7617C168.717 29.4277 194.763 13.5045 196.124 12.4967C210.119 4.03118 223.336 3.42651 222.947 1.61247C222.753 3.72529e-08 211.868 0.403119 211.285 0.403119C185.822 1.81403 159.581 25.7996 144.809 41.5212C144.42 44.7462 144.031 47.9711 143.643 51.196C142.476 51.8007 140.533 52.8085 138.783 54.8241C135.285 58.8553 135.479 64.0958 135.285 65.9099C135.09 73.9722 132.758 101.787 129.065 140.688C129.065 141.696 129.453 144.921 131.98 147.541C133.146 148.549 134.313 149.154 135.09 149.557C134.118 154.193 135.09 157.418 135.673 159.03C136.451 161.046 137.617 162.658 138.978 164.271C141.31 167.093 143.254 169.108 143.837 169.511C149.279 174.349 160.942 184.427 169.106 196.722C172.604 202.164 171.827 202.164 174.548 205.792C176.298 208.009 178.047 209.823 179.991 211.637C175.909 212.242 172.41 212.443 169.689 212.443C154.528 212.242 134.507 205.994 127.315 196.722C126.343 195.512 123.428 191.28 117.985 189.667C115.847 189.063 113.903 189.063 112.543 189.063C112.348 187.652 111.765 185.434 110.599 183.217C108.267 178.38 104.768 175.76 103.407 174.752C92.5222 166.085 83.1922 147.944 82.6091 146.937C81.6372 145.123 79.4991 140.285 74.4454 136.859C72.696 135.649 71.141 134.843 70.1691 134.44C70.7523 133.432 71.3354 132.021 71.5298 130.006C72.1129 124.16 68.031 119.122 66.8648 117.711C58.7011 107.23 60.8392 85.6627 62.1998 71.7551C63.9492 53.6148 69.586 42.529 68.031 41.9243C66.6704 41.3196 60.2561 52.607 56.1742 62.6849C50.7317 76.1894 44.7061 98.3609 49.3711 131.013C51.5092 133.432 53.6473 135.851 55.7854 138.27C54.6192 140.285 53.4529 143.107 54.0361 146.332C54.6192 150.363 57.7292 152.782 58.8954 153.991C66.8648 160.844 77.9441 176.566 81.2485 190.877C82.2203 195.311 82.4147 198.939 85.3303 202.769C88.6347 207.001 93.2997 208.815 96.7984 209.622C97.3815 212.04 98.5478 215.064 101.269 217.281C104.185 219.7 107.878 219.7 109.044 219.901C120.901 220.304 145.198 228.77 160.553 241.065C161.525 241.871 162.108 242.476 162.886 242.879C148.502 243.685 132.563 243.685 124.594 241.266C124.205 241.266 120.706 240.057 116.041 240.259C113.126 240.259 110.793 240.46 108.461 242.274C105.934 244.491 105.157 247.515 104.962 248.926C103.213 248.724 100.686 248.523 97.9647 249.53C95.6322 250.337 94.2716 251.546 91.5503 253.763C86.4966 258.197 83.9697 260.415 83.581 260.818C76.0004 268.477 64.3379 277.547 55.2023 283.594C53.2586 284.803 50.343 286.819 48.788 287.827C42.3736 292.059 40.2355 293.672 38.2918 296.695C38.0974 297.098 37.1255 298.912 36.348 301.331C35.5705 304.354 35.5705 306.975 35.5705 308.587C35.1818 308.386 34.2099 307.983 32.8493 307.983C31.683 308.184 30.7112 308.789 30.3224 308.99C28.9618 310.401 26.8237 312.618 24.4912 315.642C19.0487 322.696 14.5781 330.96 8.35811 351.721C2.52688 370.869 -0.388731 380.745 1.809e-05 392.637C0.194392 402.111 1.94376 414.607 4.47063 414.809C8.55249 415.01 6.22 383.366 22.5474 357.969C31.0999 344.666 39.2636 332.17 44.9005 328.743C45.4836 328.34 48.0105 326.929 49.1767 324.107C50.1486 321.487 49.5655 318.867 48.788 317.053C52.0923 317.657 56.5629 317.657 59.8673 315.037C61.811 313.425 62.3942 311.207 62.9773 310.603C65.6985 307.781 67.2535 305.362 70.5579 302.339C77.5554 295.889 93.6884 280.974 104.768 278.756C105.74 278.555 108.655 278.152 110.21 275.733C111.376 273.919 111.376 271.702 111.182 270.089C112.543 270.492 114.681 271.097 117.208 271.5C122.845 272.307 126.538 271.5 131.008 271.097C133.535 270.896 137.423 271.097 145.198 271.5C145.781 271.5 146.364 271.5 147.141 271.702C144.42 276.136 141.505 278.353 138.783 279.563C134.507 281.578 128.676 281.981 126.538 286.617C125.566 288.834 125.76 291.052 125.955 291.656C127.121 301.533 120.901 320.882 118.18 327.937C111.96 343.659 96.4097 365.225 94.8547 371.675C94.2716 373.691 94.4659 375.706 94.4659 375.706C94.6603 378.125 95.6322 379.939 96.4097 381.149C95.2434 381.753 92.7166 383.164 91.5503 386.188C90.7728 388.606 91.1616 390.823 91.9391 392.839C94.6603 401.708 98.3534 406.343 98.3534 406.343C103.796 412.995 114.098 427.91 119.346 439.198C124.983 451.09 130.62 471.447 135.868 478.502C138.2 481.727 140.921 482.734 141.31 482.936C143.837 483.742 146.169 483.541 147.53 483.339C147.919 484.952 148.891 487.169 150.834 489.386C153.167 492.208 155.888 493.417 157.249 494.022C182.906 505.309 198.067 507.526 198.067 507.526C217.116 510.146 237.72 510.146 237.914 508.131C239.275 506.317 234.221 505.914 225.28 502.689ZM531.031 351.116C524.811 330.356 520.34 322.092 514.898 315.037C512.565 312.215 510.621 309.998 509.066 308.386C508.678 308.184 507.9 307.579 506.539 307.378C505.179 307.176 504.207 307.781 503.818 307.983C504.013 306.37 504.013 303.75 503.041 300.726C502.263 298.308 501.291 296.494 501.097 296.091C499.348 292.866 497.015 291.455 490.601 287.222C489.24 286.214 486.325 284.199 484.186 282.989C475.051 277.144 463.388 267.872 455.808 260.213C455.419 259.81 452.892 257.593 447.838 253.158C445.312 250.941 443.757 249.732 441.424 248.926C438.703 247.918 435.982 248.119 434.427 248.321C434.232 247.112 433.649 243.887 430.928 241.67C428.79 239.855 426.263 239.654 423.347 239.654C418.682 239.452 415.184 240.662 414.795 240.662C407.02 243.08 391.081 243.08 376.503 242.274C377.086 241.67 377.864 241.065 378.836 240.46C394.191 228.165 418.488 219.7 430.345 219.296C431.511 219.296 435.204 219.296 438.12 216.676C440.647 214.661 441.813 211.436 442.59 209.017C445.895 208.211 450.754 206.397 454.058 202.164C456.974 198.334 457.168 194.908 458.14 190.272C461.445 175.961 472.524 160.441 480.493 153.387C481.66 152.379 484.77 149.759 485.353 145.727C485.936 142.502 484.77 139.681 483.603 137.665C485.741 135.246 487.88 132.828 490.018 130.409C494.683 97.9578 488.851 75.5847 483.215 62.0802C479.133 52.0023 472.718 40.715 471.358 41.3196C469.997 41.9243 475.44 53.2116 477.189 71.1504C478.55 85.058 480.688 106.423 472.524 117.106C471.358 118.517 467.276 123.556 467.859 129.401C468.053 131.417 468.831 133.029 469.22 133.835C468.248 134.238 466.693 135.045 464.943 136.254C460.084 139.681 457.751 144.518 456.78 146.332C456.197 147.34 446.867 165.682 435.982 174.147C434.621 175.155 431.122 177.775 428.79 182.613C427.623 185.031 427.04 187.047 426.846 188.458C425.485 188.256 423.736 188.256 421.404 189.063C416.155 190.675 413.045 194.908 412.074 196.117C405.076 205.389 384.861 211.436 369.7 211.839C366.979 211.839 363.48 211.839 359.398 211.033C361.342 209.42 363.091 207.404 364.841 205.187C367.756 201.559 366.784 201.559 370.283 196.117C378.447 183.822 390.109 173.744 395.552 168.907C396.135 168.504 398.273 166.689 400.411 163.666C401.772 162.054 402.744 160.441 403.715 158.426C404.299 157.015 405.27 153.79 404.299 148.952C405.076 148.549 406.242 147.944 407.409 146.937C409.935 144.316 410.324 141.091 410.324 140.084C406.825 101.183 404.299 73.3676 404.104 65.3052C404.104 63.4912 404.104 58.2506 400.605 54.2194C398.856 52.2038 396.912 51.196 395.746 50.5914C395.357 47.3664 394.969 44.1415 394.58 40.9165C379.807 25.1949 353.567 1.20936 328.104 5.21541e-08C327.521 5.21541e-08 316.636 -0.604678 316.441 1.20936C316.247 3.02339 329.464 3.62807 343.265 12.0936C344.626 12.8998 370.672 29.0245 373.587 45.9555C373.976 47.7695 374.754 54.2194 379.419 57.6459C380.974 58.8553 382.529 59.2584 383.695 59.46C382.723 62.8865 382.917 65.3052 383.306 66.9177C383.889 69.3364 384.861 70.5457 385.639 73.9722C386.027 75.9878 386.027 77.6003 386.222 78.6081C386.61 95.3375 389.915 121.339 384.667 131.013C384.278 131.82 382.723 134.238 382.723 137.665C382.723 140.084 383.306 142.099 383.889 143.309C382.334 143.309 380.002 143.51 378.058 144.921C375.142 146.937 374.365 150.565 373.976 151.774C372.421 157.216 367.951 161.65 358.815 170.519C354.733 174.349 350.846 177.574 346.958 180.396L350.651 186.644C354.15 192.489 356.094 199.141 356.094 206.195V236.227C356.094 238.848 356.677 241.266 357.649 243.484L383.889 300.525C386.416 306.169 387.971 312.215 388.554 318.464C389.915 320.479 391.081 322.293 392.053 323.906C403.327 342.651 412.074 370.063 411.49 379.738C411.49 380.544 411.102 383.366 412.851 385.784C414.6 388.405 417.71 389.211 420.043 389.412C419.265 390.017 417.905 391.226 416.544 392.839C413.24 396.669 412.074 400.498 411.685 401.506C408.186 411.987 388.749 444.438 380.002 454.516C379.224 455.524 376.697 458.144 375.531 462.578C374.559 465.602 374.754 468.625 374.948 470.641C373.199 470.238 370.283 469.633 367.173 470.238C360.564 471.447 356.677 476.688 353.956 479.913C343.654 491.805 329.27 496.642 314.692 501.681C305.751 504.704 300.697 505.107 300.891 506.115C301.086 508.131 321.689 508.131 340.738 505.511C340.738 505.511 355.899 503.293 381.557 492.006C382.917 491.401 385.639 490.192 387.971 487.37C389.915 485.153 390.692 482.936 391.275 481.323C392.636 481.525 394.969 481.928 397.495 480.92C398.079 480.719 400.605 479.711 402.938 476.486C408.186 469.431 413.823 449.074 419.46 437.182C424.708 425.895 435.204 410.778 440.452 404.328C440.452 404.328 444.145 399.692 446.867 390.823C447.45 388.606 448.033 386.389 447.255 384.172C446.089 381.149 443.562 379.738 442.396 379.133C443.173 377.924 444.145 376.11 444.34 373.691C444.34 373.691 444.534 371.675 443.951 369.66C442.396 363.411 426.846 341.844 420.626 325.921C417.905 318.867 411.685 299.517 412.851 289.641C412.851 289.036 413.24 286.819 412.268 284.602C410.13 279.966 404.299 279.563 400.022 277.547C397.301 276.338 394.385 273.919 391.664 269.686C392.247 269.686 392.83 269.686 393.608 269.485C401.383 269.082 405.27 268.88 407.797 269.082C412.268 269.485 416.155 270.492 421.598 269.485C424.125 269.082 426.068 268.477 427.623 268.074C427.429 269.686 427.429 271.903 428.595 273.717C430.15 276.136 433.066 276.539 434.038 276.741C445.117 278.756 461.445 293.873 468.248 300.323C471.746 303.548 473.107 305.765 475.828 308.587C476.411 309.192 476.995 311.409 478.938 313.022C482.243 315.642 486.713 315.642 490.018 315.037C489.435 316.851 488.657 319.471 489.629 322.092C490.601 324.914 493.322 326.526 493.905 326.728C499.542 330.154 507.706 342.651 516.258 355.954C532.78 381.35 530.448 412.995 534.335 412.793C536.862 412.592 538.611 400.095 538.806 390.622C539.777 380.141 536.862 370.264 531.031 351.116ZM304.196 429.926C292.145 434.965 281.26 437.585 272.513 438.996H267.848C259.101 437.585 248.022 434.965 236.165 429.926C222.364 424.081 211.479 416.825 203.316 410.173C198.845 406.545 194.957 401.909 191.847 396.87C187.766 389.816 183.684 382.156 179.602 373.892C173.771 361.799 168.911 350.108 165.024 339.023C160.942 327.534 161.525 315.037 166.579 303.951L192.819 246.91C194.18 243.887 194.957 240.46 194.957 237.034V207.001C194.957 201.156 196.512 195.714 199.428 190.675L224.502 149.355C226.252 146.534 227.224 143.309 227.807 140.084L230.722 116.904C231.111 113.881 232.666 111.059 234.804 109.044L253.27 93.1204C254.047 92.5157 254.825 92.1126 255.602 92.1126C258.129 92.1126 260.267 94.9344 258.907 97.7562L251.326 112.47C250.743 113.478 250.937 114.687 251.52 115.493L259.49 127.385C259.684 127.789 260.073 127.99 260.656 127.99H280.093C280.482 127.99 280.871 127.789 281.26 127.385L289.229 115.695C289.812 114.889 290.006 113.679 289.423 112.672L281.843 97.9578C280.288 95.136 282.62 92.3141 285.147 92.3141C285.925 92.3141 286.702 92.5157 287.48 93.3219L305.945 109.245C308.278 111.261 309.638 114.083 310.027 117.106L312.943 140.285C313.331 143.51 314.498 146.735 316.247 149.557L341.321 190.877C344.237 195.714 345.792 201.358 345.792 207.203V237.235C345.792 240.662 346.569 244.088 347.93 247.112L374.171 304.153C379.224 315.037 379.807 327.735 375.726 339.224C371.838 350.31 366.979 362 361.147 374.094C357.26 382.358 352.984 390.017 348.902 397.072C345.986 402.111 342.099 406.747 337.434 410.375C328.881 416.825 317.996 424.081 304.196 429.926ZM263.377 273.113C263.377 272.105 262.988 271.299 262.211 270.694L246.661 257.996C245.883 257.391 244.523 257.996 244.523 259.004V384.373C244.523 384.978 243.745 385.18 243.357 384.575L232.083 359.38V307.378C232.083 306.37 231.694 305.564 230.917 304.959L215.367 292.261C214.589 291.656 213.229 292.261 213.229 293.269V348.294C213.229 348.899 213.034 349.302 212.645 349.705L206.426 354.946C205.842 355.55 204.871 355.147 204.482 354.543L195.152 332.976C192.431 326.929 192.431 319.875 195.152 313.828L201.372 300.323C201.761 299.517 201.955 298.509 201.955 297.501V273.717C201.955 272.307 200.011 271.903 199.428 273.113L182.517 310.804C178.824 318.867 178.824 328.138 182.517 336.201L200.789 376.916C201.955 379.738 205.454 380.544 207.786 378.528L216.727 371.071C217.116 370.667 217.699 370.869 217.894 371.272L237.525 414.809C238.692 417.631 242.19 418.437 244.523 416.421L260.267 403.522C262.405 401.708 263.572 399.087 263.572 396.265L263.377 273.113ZM272.707 264.043L308.666 234.212C309.444 233.607 310.61 234.212 310.61 235.22V286.819C310.61 287.827 311.776 288.431 312.748 287.827L328.298 275.128C329.076 274.524 329.464 273.717 329.464 272.71V213.854C329.464 207.404 327.715 201.156 324.411 195.714L293.116 144.72C292.145 143.309 290.59 142.301 288.84 142.301H254.047C252.298 142.301 250.743 143.309 249.771 144.72L218.671 195.512C215.367 200.955 213.617 207.203 213.617 213.653V272.508C213.617 273.516 214.006 274.322 214.784 274.927L230.334 287.625C231.111 288.23 232.472 287.625 232.472 286.617V235.018C232.472 234.01 233.638 233.406 234.415 234.01L270.375 263.841C270.763 264.647 271.93 264.647 272.707 264.043ZM305.556 415.01L325.188 371.474C325.383 371.071 325.966 370.869 326.354 371.272L335.296 378.73C337.628 380.544 340.933 379.738 342.293 377.117L360.564 336.402C364.257 328.34 364.063 319.068 360.564 311.006L343.459 273.314C342.876 272.105 340.933 272.508 340.933 273.919V297.703C340.933 298.711 341.127 299.517 341.516 300.525L347.736 314.029C350.457 320.076 350.457 327.131 347.736 333.177L338.211 354.543C337.823 355.349 337.045 355.55 336.268 354.946L330.048 349.705C329.659 349.302 329.464 348.899 329.464 348.294V293.269C329.464 292.261 328.298 291.656 327.326 292.261L311.776 304.959C310.999 305.564 310.61 306.37 310.61 307.378V359.38L299.336 384.575C299.142 385.18 298.17 384.978 298.17 384.373V259.004C298.17 257.996 297.004 257.391 296.032 257.996L280.482 270.694C279.705 271.299 279.316 272.105 279.316 273.113V396.669C279.316 399.49 280.482 402.111 282.62 403.925L298.365 416.825C300.891 418.639 304.196 417.832 305.556 415.01Z" fill="#E5E55C"/>
</g>
<defs>
<clipPath id="clip0">
<rect width="539" height="509.743" fill="white"/>
</clipPath>
</defs>
</svg>
