<?xml version="1.0" encoding="utf-8"?>
<!-- Generator: Adobe Illustrator 21.1.0, SVG Export Plug-In . SVG Version: 6.00 Build 0)  -->
<svg width="100" height="66" version="1.1" id="Слой_2" xmlns="http://www.w3.org/2000/svg" xmlns:xlink="http://www.w3.org/1999/xlink" x="0px" y="0px"
	 viewBox="0 0 303.4 195.9" style="enable-background:new 0 0 303.4 195.9;" xml:space="preserve">
<style type="text/css">
	.st0{fill:#6FDA44;}
	.st1{fill:#FFFFFF;}
	.st2{fill:#FF337D;}
	.st3{fill:#FF6D9F;}
	.st4{fill:#FFA1C0;}
</style>
<path class="st0" d="M84.2,111.4c-4.8,0-9.3-2-13.3-5.3l1-4.7l0-0.2c0.9-5,3.7-13.3,12.3-13.3c6.5,0,11.7,5.3,11.7,11.7
	C95.9,106.1,90.6,111.4,84.2,111.4L84.2,111.4z M84.2,76.1c-11,0-19.6,7.2-23,18.9c-5.3-8-9.3-17.5-11.7-25.6H37.6v30.9
	c0,6.1-5,11-11,11s-11-5-11-11V69.4H3.7v30.9c0,12.6,10.2,23,22.9,23c12.6,0,22.9-10.4,22.9-23v-5.2c2.3,4.8,5.1,9.7,8.6,14
	l-7.3,34.2h12.1l5.3-24.8c4.6,3,9.9,4.8,16,4.8c13,0,23.6-10.7,23.6-23.7C107.8,86.7,97.2,76.1,84.2,76.1L84.2,76.1z"/>
<path class="st1" d="M144,77.4l7.7,30.9l8.4-30.9h10l-13,44.6h-10l-8-31.1l-7.9,31h-10l-13-44.6h10l8.4,30.9l7.7-30.9L144,77.4
	L144,77.4L144,77.4z M194.2,76.1c-13,0-23.6,10.6-23.6,23.6c0,13,10.6,23.6,23.6,23.6c13,0,23.6-10.6,23.6-23.6
	C217.8,86.6,207.2,76.1,194.2,76.1L194.2,76.1z M194.2,113.6c-7.7,0-13.9-6.2-13.9-13.9c0-7.7,6.2-13.9,13.9-13.9
	c7.7,0,13.9,6.2,13.9,13.9C208.1,107.4,201.9,113.6,194.2,113.6z M246.5,87.4c-6.7,0-12.2,5.5-12.2,12.2V122h-10.1V77.4h10.1v6.9
	c0,0,4.3-6.9,13.2-6.9h3.1v10H246.5L246.5,87.4z M280.5,98c7.2-4.1,12.1-11.8,12.1-20.6h-10.1c0,7.4-6,13.5-13.5,13.5h-1.4v-35
	h-10.1V122h10.1v-21h1.2c1,0,2.3,0.6,2.9,1.4L286,122h12.1L280.5,98L280.5,98z"/>
<path class="st0" d="M23,185.5l14.2,10.4L31.9,179l14.2-10H28.8L23,151.8L17.3,169H0l14.2,10l-5.4,16.9L23,185.5z M87.4,185.5
	l14.2,10.4L96.2,179l14.2-10H93.1l-5.8-17.3L81.6,169H64.3l14.2,10l-5.4,16.9L87.4,185.5z M151.7,185.5l14.2,10.4l-5.4-16.9l14.2-10
	h-17.3l-5.8-17.3L146,169h-17.3l14.2,10l-5.4,16.9L151.7,185.5z M216,185.5l14.2,10.4l-5.4-16.9l14.2-10h-17.3l-5.8-17.3l-5.8,17.3
	H193l14.2,10l-5.4,16.9L216,185.5z M280.4,185.5l14.2,10.4l-5.4-16.9l14.2-10h-17.3l-5.8-17.3l-5.8,17.3h-17.3l14.2,10l-5.4,16.9
	L280.4,185.5z"/>
<path class="st0" d="M282,48H21.5V0H282V48z M17.8,6.4H0L9,24L0,41.6h17.8V6.4z M285.7,41.6h17.8l-9-17.6l9-17.6h-17.8V41.6z"/>
<g>
	<polygon class="st2" points="72.3,31.1 53.3,43.2 34.4,31.1 34.4,6 72.3,6 	"/>
	<polygon class="st3" points="34.4,31.1 34.4,6 72.3,6 	"/>
	<path class="st4" d="M34.4,6h37.9c-6.3,4.2-12.6,8.4-18.9,12.5L34.4,6z"/>
</g>
<path class="st1" d="M83.4,11.7h12V15h-3.2v22.5h-5.7V15h-3.2V11.7z M110.1,16.4v16.7c0,1.5-0.6,2.7-1.8,3.5s-2.8,1.2-4.7,1.2
	c-4.3,0-6.5-1.6-6.5-4.7V16.5c0-3.4,2.2-5,6.5-5C108,11.4,110.1,13.1,110.1,16.4z M104.6,15.8c0-0.5-0.3-0.8-0.9-0.8
	c-0.6,0-1,0.3-1,0.8v17.6c0,0.5,0.3,0.8,1,0.8c0.6,0,0.9-0.3,0.9-0.8V15.8z M125,16.2v7.2c0,1.7-0.5,2.9-1.4,3.6c-0.9,0.7-2.9,1-6,1
	v9.5H112V11.7h6c2.4,0,4.1,0.3,5.3,0.9C124.4,13.2,125,14.4,125,16.2z M119.4,16.7c0-0.9-0.6-1.4-1.9-1.4v9c1.3,0,1.9-0.5,1.9-1.4
	V16.7z M146.9,30.5c0,4.1,0.4,6.5,1.1,7h-5.7c-0.6-0.7-0.9-2.8-0.9-6.2v0l0-1.6c0-2.2,0.1-3.3,0.1-3.3c0-0.9-0.6-1.3-1.8-1.3v12.4
	H134V11.7h7c1.6,0,3,0.4,4.2,1.1c1.2,0.7,1.8,1.9,1.8,3.5v3.1c0,2-1.2,3.4-3.5,4.1c2.4,0.6,3.5,2,3.5,4.3L146.9,30.5z M141.4,16.3
	c0-0.9-0.6-1.4-1.8-1.4v7c1.2,0,1.8-0.5,1.8-1.4V16.3z M160.5,11.7l4.3,25.9h-5.6l-1-6.9h-2.5l-1,6.9H149l4.3-25.9H160.5z M157.7,27
	l-0.8-7.7l-0.8,7.7H157.7z M166.1,15h3.2v22.5h5.7V15h3.2v-3.4h-12V15z M185.6,25.1h4.8V22h-4.8v-7h5.4v-3.3h-11v25.9H191v-3.3h-5.4
	V25.1z M205.6,16.8v15.7c0,1.6-0.6,2.9-1.7,3.8s-2.5,1.3-4.2,1.3h-7.1V11.7h7.1c1.5,0,2.9,0.4,4.1,1.3C205,13.7,205.6,15,205.6,16.8
	z M199.9,16.3c0-0.9-0.5-1.4-1.6-1.4v19.2c1.1,0,1.6-0.5,1.6-1.4V16.3z M227.7,16.2v7.2c0,1.7-0.5,2.9-1.4,3.6c-0.9,0.7-2.9,1-6,1
	v9.5h-5.5V11.7h6c2.4,0,4.1,0.3,5.3,0.9C227.1,13.2,227.7,14.4,227.7,16.2z M222.1,16.7c0-0.9-0.6-1.4-1.9-1.4v9
	c1.3,0,1.9-0.5,1.9-1.4V16.7z M235.1,11.7h-5.7v25.9h10.7v-3.3h-5V11.7z M249.2,33.4c0,0.5-0.3,0.8-0.9,0.8c-0.6,0-1-0.3-1-0.8V11.7
	h-5.7v21.5c0,1.6,0.7,2.8,2,3.6c1.3,0.7,2.9,1.1,4.7,1.1c1.9,0,3.5-0.4,4.8-1.2c1.2-0.8,1.9-2,1.9-3.5V11.7h-5.7V33.4z M268.7,26.2
	c-0.6-0.9-2.2-2.5-4.5-4.8c-1.3-1.3-1.9-2.4-1.9-3.4l-0.1-1.7c0-1,0.3-1.5,1-1.5c0.6,0,0.9,0.3,0.9,0.8v4.8h5.2V16
	c0-3.1-2-4.6-5.9-4.6c-4.4,0-6.6,1.7-6.6,5v2.9c0,1,0.3,1.8,0.9,2.7c0.6,0.8,2.1,2.4,4.5,4.7c1.3,1.3,1.9,2.4,1.9,3.3v3.1
	c0,0.6-0.3,0.9-1,0.9c-0.7,0-1.1-0.3-1.1-0.9v-5.9h-5.2v5.9c0,3.1,2.1,4.7,6.4,4.7c4.4,0,6.6-1.7,6.6-5.2v-3.3
	C269.7,28.2,269.4,27.1,268.7,26.2z"/>
</svg>
